<?xml version="1.0"?>
<svg xmlns="http://www.w3.org/2000/svg" viewBox="0 0 159.9 243">
  <path d="M142.8 183.8h-32.7v4c0 1.1-.9 2-2 2s-2-.9-2-2v-4H52.5v4c0 1.1-.9 2-2 2s-2-.9-2-2v-4H17.6L7.1 208.1h145l-9.3-24.3zm-90.3-8.1h53.6v4.2H52.5z" fill="none"/>
  <path d="M48.5 168.1c0-1.1.9-2 2-2s2 .9 2 2v3.6h53.6v-3.6c0-1.1.9-2 2-2s2 .9 2 2v3.6h31.7V12.6H17.9v159.1h30.6v-3.6zm31-149.2c25.5 0 46.2 20.7 46.2 46.2s-20.7 46.2-46.2 46.2C54 111.2 33.3 90.5 33.3 65c.1-25.5 20.7-46.1 46.2-46.1zm-51.6 97.2H131c1.1 0 2 .9 2 2s-.9 2-2 2H27.9c-1.1 0-2-.9-2-2s.9-2 2-2zm90.6 11.3c0 1.1-.9 2-2 2h-74c-1.1 0-2-.9-2-2s.9-2 2-2h74c1.1 0 2 .9 2 2zm-92.9 34v-22.6c0-1.1.9-2 2-2h104.6c1.1 0 2 .9 2 2v22.6c0 1.1-.9 2-2 2H27.6c-1.1 0-2-.9-2-2z" fill="#fff"/>
  <path d="M58.9 83.9h.3c1.2-.3 2.4-.6 3.5-.9l-4.4-.2 2.3-34.9c0-7.9.6-15.2 7.5-18.6 3.4-1.7 7.1-2.6 10.9-2.7h.1c4.7 0 10.3 1.9 13.1 4.4 4 3.7 5 9.7 5.2 16.5v.2l4.3 35.5h-3.9c4.1 1 11.9 3 16.7 5.7 13.2-19.2 8.4-45.4-10.7-58.6S58 21.8 44.8 41c-10 14.5-10 33.6.1 48.1 4.3-2.6 9.2-3.9 14-5.2z" fill="#bcd7aa"/>
  <path d="M95 95.5l4.9-2.8-1.1-5c-2-.5-3.7-.9-4.9-1.1L92.7 105c2.2-.7 4.3-1.6 6.3-2.7l.2-.9-4.2-2.5c-1-.6-1.3-1.8-.7-2.7.2-.3.4-.6.7-.7zm9.1-2.2c.2.8-.2 1.7-1 2.2l-3.1 1.8 2.6 1.5c.4.2.7.6.8 1 3.1-2.1 5.9-4.7 8.3-7.5-2.7-1.3-5.6-2.4-8.5-3.2l.9 4.2zm-48.2.7l1.6-5.5c-3.5.8-6.9 2.1-10.2 3.8 2.7 3.2 5.9 6 9.5 8.3.1-.5.4-.9.9-1.1l2.6-1.6-3.3-1.5c-.9-.4-1.4-1.5-1.1-2.4zm6.1-6.7l-1.8 6.1 5.2 2.2c1 .4 1.5 1.6 1.1 2.6-.2.4-.4.7-.8.9l-4.6 2.9.3 1.1c2.2 1 4.5 1.9 6.8 2.5l-2.4-19.5c-1.1.5-2.4.9-3.8 1.2z" fill="#fff"/>
  <path d="M79.1 94.2c-2.6.1-5.2-.6-7.5-1.9-.3-.2-.6-.3-1-.5l1.8 14.9c5.4.9 10.9.8 16.2-.4l1-15.4c-.4.3-.8.5-1.3.8-2.7 1.7-5.9 2.6-9.2 2.5z" fill="#e28888"/>
  <path d="M88.1 82.6c-1.1-1-1.9-2.2-2.5-3.5-.6-1.6-.9-3.3-.8-5-3.8 2.6-8.9 2.3-12.3-.7.2 2.8-.2 5.7-1.2 8.4-.1.3-.2.5-.4.7-.3.5-.6 1-1 1.4.7 2.3 2.9 6.2 9.2 6.2 6.9 0 9.7-4 10.8-6.2-.6-.3-1.1-.7-1.6-1.1-.1 0-.2-.1-.2-.2zm1.6 8.2v-.2c-.4.4-.9.7-1.3 1 .4-.3.8-.5 1.3-.8zm-19.1.8v.1c.3.2.6.4 1 .5-.3-.2-.7-.4-1-.6zm-6.2-41.3v2c.3 10.7 10.5 19.6 14.4 19.6 2.7 0 6.3-2.3 9.1-5.7 3.3-4 5.2-9.1 5.2-14.4v-2.1C89.3 47.1 83 46.8 79.4 43c0-2.3.2-11.3-.6-11.3-.9 0-.5 9-.6 11.4-6 4.6-11 4.1-13.8 7.2z" fill="#cfab92"/>
  <path d="M70.9 82.5c.2-.2.3-.5.4-.7-.2.3-.3.5-.4.7zm23.6.1l.2-.9-.9-.3c.3.4.4.8.4 1.2h.3z" fill="#4d4d4d"/>
  <path d="M15.4 227.8l-1.3 3.2h134.5l-1.3-3.2z" fill="#fff"/>
  <path d="M151.6 227.8v-.2h-.1z" fill="#4d4d4d"/>
  <path d="M14.2 220.4l-1.3 3.2h137.3l-1.3-3.2z" fill="#fff"/>
  <path d="M153.2 220.5v-.2h-.1z" fill="#4d4d4d"/>
  <path d="M12.5 213l-1.3 3.3h140.5l-1.4-3.3zm-4.3-.9v.9l.4-.9z" fill="#fff"/>
  <path d="M154.7 213.2v-1.1h-.4z" fill="#4d4d4d"/>
  <path d="M42.5 125.4c-1.1 0-2 .9-2 2s.9 2 2 2h74c1.1 0 2-.9 2-2s-.9-2-2-2h-74z" fill="#cbcbcb"/>
  <path d="M27.9 120.1H131c1.1 0 2-.9 2-2s-.9-2-2-2H27.9c-1.1 0-2 .9-2 2s.9 2 2 2zm51.6-8.9c25.5 0 46.2-20.7 46.2-46.2S105 18.9 79.5 18.9C54 18.9 33.3 39.5 33.3 65c.1 25.5 20.7 46.1 46.2 46.2zM57.7 99.4c-.4.3-.7.7-.9 1.1-3.6-2.3-6.7-5.1-9.5-8.3 3.2-1.7 6.6-3 10.2-3.8L55.9 94c-.3 1 .2 2 1.1 2.4l3.3 1.4-2.6 1.6zm3.8 3.7l-.3-1.1 4.6-2.9c.9-.6 1.2-1.8.6-2.8-.2-.3-.5-.6-.9-.8l-5.2-2.2 1.8-6.1c1.3-.3 2.6-.7 3.9-1.1l2.4 19.5c-2.4-.6-4.7-1.4-6.9-2.5zm17.3-71.3c.8 0 .6 9 .6 11.3 3.7 3.8 10 4.1 13.7 6.7v2.1c-.1 5.2-1.9 10.3-5.2 14.4-2.8 3.5-6.4 5.7-9.1 5.7-3.9 0-14-8.8-14.4-19.6v-2c2.8-3.2 7.8-2.6 13.8-7.2.1-2.4-.2-11.4.6-11.4zm10.9 59l-1 15.4c-5.3 1.2-10.8 1.3-16.2.4l-1.8-14.9v-.1c.3.2.6.4 1 .6 2.3 1.3 4.9 2 7.5 1.9 3.3.1 6.5-.8 9.3-2.6.5-.3.9-.6 1.3-1l-.1.3zm-10.6-.6c-6.3 0-8.5-3.9-9.2-6.2.4-.4.7-.9 1-1.4.1-.2.2-.5.4-.7 1-2.7 1.4-5.5 1.2-8.4 3.5 3 8.5 3.3 12.3.7-.1 1.7.2 3.4.8 5 .6 1.3 1.4 2.5 2.5 3.5l.2.2c.5.4 1 .8 1.6 1.1-1.1 2.2-3.9 6.2-10.8 6.2zM95 98.9l4.3 2.5-.2.9c-2 1.1-4.2 2-6.3 2.7L94 86.6c1.2.2 2.9.6 4.9 1.1l1.1 5-5 2.8c-1 .6-1.3 1.8-.7 2.7.1.3.4.6.7.7zm-1.2-17.5l.9.3-.2.9h-.3c0-.4-.1-.8-.4-1.2zm9.6 18.3c-.2-.4-.5-.7-.8-1l-2.6-1.5 3.1-1.8c.8-.4 1.1-1.3 1-2.2l-.9-4.3c2.9.8 5.8 1.9 8.5 3.2-2.4 2.9-5.2 5.5-8.3 7.6zM37.3 65c0-23.3 18.8-42.2 42.1-42.2s42.2 18.8 42.2 42.1c0 8.6-2.6 16.9-7.5 24-4.7-2.6-12.5-4.7-16.7-5.7h3.9L97 47.7v-.2c-.2-6.8-1.2-12.9-5.2-16.5-2.8-2.5-8.4-4.4-13.1-4.4h-.1c-3.8.1-7.5 1-10.9 2.7-6.8 3.4-7.4 10.6-7.5 18.6l-2.3 34.9 4.4.2c-1.1.3-2.3.6-3.5.9l.2.1h-.2v.1c-4.8 1.2-9.7 2.5-13.9 5.1C40 82 37.3 73.6 37.3 65z" fill="#4d4d4d"/>
  <path fill="#aed7f0" d="M29.6 140.8h100.6v18.6H29.6z"/>
  <path d="M134.2 161.4v-22.6c0-1.1-.9-2-2-2H27.6c-1.1 0-2 .9-2 2v22.6c0 1.1.9 2 2 2h104.6c1.1 0 2-.9 2-2zm-4-2H29.6v-18.6h100.6v18.6z" fill="#4d4d4d"/>
  <path d="M4 212.1h4.6l-.4.9-1 2.4-.9 2.1c-.4 1 0 2.2 1.1 2.6.2.1.5.2.8.2H10l-1 2.4-.9 2.2c-.4 1 .1 2.2 1.1 2.6.2.1.5.2.8.2h1.2l-.9 2.3-.9 2.3c-.4 1 .1 2.2 1.1 2.6.2.1.5.1.7.1h140.4c1.1 0 2-.9 2-2 0-.3 0-.5-.1-.7l-1.8-4.5-.1-.2h1.6c1.1 0 2-.9 2-2 0-.3-.1-.5-.1-.8l-1.8-4.4-.1-.2h1.5c1.1 0 2-.9 2-2 0-.3-.1-.5-.2-.8l-1.8-4.3-.4-1.1h.7c1.1 0 2-.9 2-2 0-.2 0-.5-.1-.7L146.2 181c-.3-.8-1-1.3-1.9-1.3h-34v-4.2H144c1.1 0 2-.9 2-2V10.6c0-1.1-.9-2-2-2H15.9c-1.1 0-2 .9-2 2v163.1c0 1.1.9 2 2 2h32.6v4.2H16.3c-.8 0-1.5.5-1.8 1.2L2.2 209.3c-.4 1 0 2.2 1 2.6.3.2.5.2.8.2zM14.1 231l1.3-3.2h131.9l1.3 3.2H14.1zm-1.2-7.4l1.3-3.2h134.6l1.3 3.2H12.9zm-1.7-7.3l1.4-3.2h137.8l1.3 3.2H11.2zm6.7-44.6V12.6h123.9v159.1h-31.7v-3.6c0-1.1-.9-2-2-2s-2 .9-2 2v3.6H52.5v-3.6c0-1.1-.9-2-2-2s-2 .9-2 2v3.6H17.9zm88.3 4v4.2H52.5v-4.2h53.7zm-88.6 8.1h30.9v4c0 1.1.9 2 2 2s2-.9 2-2v-4h53.6v4c0 1.1.9 2 2 2s2-.9 2-2v-4h32.7l9.2 24.3H7.1l10.5-24.3z" fill="#4d4d4d"/>
</svg>
