<?xml version="1.0"?>
<svg xmlns="http://www.w3.org/2000/svg" viewBox="0 0 320 320">
  <path d="M149.6 227c-3.6-1.5-6.9-3.6-9.9-6.1 2.9 2.5 6.2 4.5 9.7 6 .1.1.2.1.2.1zm-69-201.1c.1-3.6-.3-6.6-1.2-8.4-.3-.8-.8-1.6-1.2-2.3.5.7.9 1.5 1.2 2.3.8 1.8 1.2 4.8 1.2 8.4zm59.1 195.2l2.1 1.8-2.1-1.8zM51.2 13.9c1.1-1.5 2.4-2.7 3.9-3.6-1.5.9-2.8 2.1-3.9 3.6-1.9 2.5-3.1 5.3-3.6 8.4 0-.1.1-.1.1-.1.5-3.1 1.7-5.9 3.5-8.3zm78.4 236.6l7.2 59.4-7.2-59.4zm27.2 18.2c11.6 0 19.1-4.3 23.8-9.2.7-.4 1.3-.9 1.8-1.2v-.9c-.6.7-1.2 1.4-1.9 2.1-4.7 4.9-12.1 9.2-23.7 9.2zm-21.4-8.9l6.1 50.3c6.2.3 12.5.4 18.8.5-6.3 0-12.6-.2-18.8-.5l-6.1-50.3zm37.5-22.9c1 2.3 2.4 4.5 4.1 6.2-1.7-1.8-3.1-3.9-4.1-6.2-1.7-4.5-2.1-9.4-1.1-14.1-1 4.7-.6 9.5 1.1 14.1zM63.4 16.9l-.6-1.3h-1.5c-3.8 0-8.6 1.2-11.3 3.7 2.8-2.5 7.5-3.7 11.3-3.7h1.5l.6 1.3c2.1 2.8 4.5 5.4 7.2 7.7-2.7-2.3-5.1-4.9-7.2-7.7zM156.7 264c-10.1 0-15.8-4.3-19.1-8.8 3.3 4.5 9 8.9 19.1 8.8 18.3 0 24.6-12 26.4-16.6-1.8 4.7-8.1 16.6-26.4 16.6zm52.2 7.5c-.1.1-.2.2-.3.2l-10 5.8 10-5.8c.1-.1.2-.2.3-.2zm-5.4 14.3l-5.6 23.6c-4.6.3-9.4.6-14.3.7 4.8-.2 9.7-.5 14.3-.7l5.6-23.6zm-11.5-9.5c-.3.5-.3 1-.3 1.5-.1-.9.3-1.7 1.1-2.2l12-7v-.1l-12 7c-.3.2-.6.5-.8.8zm-8.8-29.7c-.1-.2-.1-.5-.2-.7.1.2.1.4.2.7l.1-1.4-.1 1.4zm.1-1.5c0-.3.1-.5.2-.8-.1.3-.2.6-.2.8zM43.7 101.6c.8-6.4.3-10.6-.7-13.3 1 2.7 1.4 6.9.7 13.3 13 1.2 26.1 1.4 39.1.7-13.1.7-26.1.5-39.1-.7zm12-43.3c.1.6.1 1.3.1 2 0-.7 0-1.4-.1-2zm7.5-1.5c1.6 0 3.4-.8 5.2-2.2-1.7 1.3-3.6 2.1-5.2 2.2-3.8 0-14-8.5-14-18.7v.1c0 10.1 10.2 18.6 14 18.6zm62.3 116.4c4.1-3.8 10-4.8 17-7.7-7 2.8-12.9 3.9-17 7.7zm1.6 105.5c0 .1 0 .1-.1.2.1-.1.1-.2.1-.2zM46.2 73.2c-.1 0-.1 0 0 0l-1.2.3c-2.6 3.7-3.4 9.9-3.6 12 .2-2.1.9-8.3 3.6-12l1.2-.3zM64 79.4c9.7 0 13.7-4.9 15.2-7.5-1.5 2.7-5.6 7.5-15.2 7.5-10.8 0-13-5.3-13.4-7.7.3 2.3 2.4 7.7 13.4 7.7zm144.5 205v.7l-5.7 23.9 5.7-23.9v-.7zM41.8 52.2c1.6 1.3 4.5 2.6 8.9 1.5-4.4 1.1-7.3-.2-8.9-1.5zm115.6 106.2c8.8 9 24.4 8.9 32.4 16.3v2.9c0 20-12.4 37-24.2 43.5 11.8-6.4 24.4-23.5 24.4-43.6v-2.9c-8-7.3-23.6-7.2-32.4-16.3-.1-5.1.5-24.9-1.4-24.9h-.1c1.7.3 1.3 19.9 1.3 25zm-21 151.4c-5.1-.3-10.1-.6-15-1.1 4.8.5 9.9.9 15 1.1zm-25.6-25.7l9.2-5.7h-.1l-9.1 5.7c-.9.5-1.3 1.6-1 2.6l6.6 21.6c-2.2-.2-4.3-.5-6.4-.7 2.1.3 4.2.5 6.4.7l-6.6-21.6c-.3-.9.1-2 1-2.6zm-19.4-21.7c1.4-.7 2.7-1.3 4-2 4.6-1.7 9.3-3.1 14-4.4-4.7 1.2-9.3 2.7-13.9 4.3-3.7 1.4-7.3 3.1-10.7 5.1-5.7 3.1-9.5 8.7-10.5 15.1 3.2-8 9.3-14.5 17.1-18.1zM78.5 34.1c-4-1.2-7.8-3.2-11-6 3.3 2.7 7 4.8 11 6zm29.1 237.6c0-.3 0-.5.1-.8l5-15.7h-.1l-4.9 15.6c-.1.3-.1.6-.1.9zM84.7 95.8zm150.9 6.8l-3.3-11 3.3 11c2.1.2 4.3.4 6.5.5v-.1c-2.2 0-4.4-.2-6.5-.4zm20.6 1c3.1 0 6.3 0 9.3-.1l1.4-21.2-1.4 21.2c-3.1.1-6.2.1-9.3.1z" fill="none"/>
  <path d="M255.6 95.7l11.3-13.3-11.3 13.3zm-18-11.7l-6.4-2.7 6.4 2.7c.4.2.8.6 1.1 1 .1.1.1.3.2.4-.3-.6-.7-1.1-1.3-1.4zm-206 1.3c-3.9 3.4-4 10.1-4 10.9 0 1.3 1 2.3 2.3 2.3-1.3 0-2.3-1-2.3-2.3.1-.8.2-7.5 4-10.9 1.5-1.3 3.3-1.9 5.3-1.8-1.9-.1-3.8.5-5.3 1.8zm45.1-32.8c2.3-3.2 4-6.7 5.1-10.5.9 3.4 2.4 6.6 4.4 9.5-2-2.9-3.6-6.1-4.5-9.6-1 3.8-2.7 7.3-5 10.6 0-.1 0-.1 0 0zm151.6 36.2l3.4-2.1-4.2-1.8c-1.1-.5-1.7-1.7-1.3-2.8l2.1-7.1-2.1 7.1c-.3 1.1.2 2.3 1.3 2.8l4.2 1.8-3.4 2.1c-.9.6-1.3 1.6-1 2.6l3.3 10.9-3.3-10.9c-.3-1 .1-2.1 1-2.6zm55-.4c.5.6.7 1.3.5 2.1l-2.9 12.2 2.9-12.1c.2-.8 0-1.6-.5-2.2zm12.2-6.3c-2.4-1.9-7.3-4.3-12.2-6.3l1.2 5.4c.2 1-.2 2-1.1 2.5l-4 2.3 4-2.3c.9-.5 1.3-1.5 1.1-2.5l-1.2-5.4c5 2.2 9.9 4.5 12.2 6.3 3.1 2.5 4.9 9 5 14.6-.1-5.5-1.9-12.1-5-14.6zM37 83.5c.3-2.9 1-5.7 2-8.4-1.1 2.7-1.7 5.5-2 8.4-.1 0-.1 0 0 0zm235.5 2.4c0-.8.4-1.6 1.2-2l6-3.5-1.5-6.9c-2.2-.9-4.3-1.7-5.8-2.2 1.5.6 3.5 1.3 5.8 2.2l1.5 6.9-6 3.5c-.8.4-1.3 1.2-1.2 2 0 .8.4 1.6 1.1 2l5.3 3.1-1.8 7.8L279 91l-5.3-3.1c-.8-.4-1.2-1.2-1.2-2zm-18.4-22.8c-2.4 0-5.7-1.5-8.9-4.1 3.2 2.6 6.4 4.1 8.9 4.1 3.3-.2 6.5-1.4 9.1-3.5.5 3.6 2.1 7 4.6 9.6-2.5-2.6-4.1-6-4.6-9.6-2.6 2.1-5.8 3.4-9.1 3.5zM37.3 88.2c-.2-.1-.5-.1-.7-.1.2 0 .4 0 .7.1 1.3.2 2.9 3.9 1.7 13 1.2-9.1-.4-12.9-1.7-13zm201-53.3c.7-2.3 2.8-3.9 5.3-3.9-2.5 0-4.6 1.6-5.3 3.9zm16.2 0c.7-2.3 2.8-3.9 5.2-3.9-2.4 0-4.5 1.6-5.2 3.9zm-8.4 73.1c1.6.1 3.3.2 4.9.2-1.6-.1-3.3-.1-4.9-.2zm19.3-77.6c-7.3 0-17.3-6-21.9-12.3 4.6 6.2 14.7 12.3 21.9 12.3zm-31.1 237c-3.2-2.5-8.8-5.3-15.1-7.9-4-1.7-8.3-3.3-12.5-4.7v.1c4.1 1.5 8.4 3 12.4 4.7 1.9.9 3.8 1.8 5.8 2.7 7 3.4 12.7 9 16.1 16 2.4 7.1 3.4 14.6 2.8 22.1.6-7.5-.3-15-2.7-22.1-1.6-4.6-3.9-8.5-6.8-10.9zM82.6 89.5c-3.2 3.3-3.4 8.4-.6 11.9-.8-1-1.3-2.1-1.6-3.3-1.2-4.9 1.7-9.8 6.5-11.1 0-7.3-1.4-11.3-2.8-13.4 1.4 2.1 2.7 6.1 2.7 13.4-1.6.4-3.1 1.3-4.2 2.5zm188.2-54.6v-.5c0-1.9 0-3.8-.1-5.6.1 1.8.1 3.7.1 5.6v.5zM87.3 95.8c0-1.1.9-1.9 1.9-1.9h.4c-.1 0-.3-.1-.4-.1-1.1.1-2 .9-1.9 2 0 .8.4 1.4 1.1 1.7-.7-.3-1.1-.9-1.1-1.7zm10.1-18.5c3.3 1.2 6.3 2.5 8 3.9-1.7-1.4-4.7-2.7-8-3.9zm160.8-40.6c0 .2 0 .3-.1.5 0-.2.1-.4.1-.5z" fill="none"/>
  <path d="M179.2 69.9h4.6c1.3 0 2.3-1 2.3-2.3 0-1.3-1-2.3-2.3-2.3h-4.6c-1.3 0-2.3 1-2.3 2.3 0 1.3 1 2.3 2.3 2.3zm12.8 0h4.6c1.3 0 2.3-1 2.3-2.3 0-1.3-1-2.3-2.3-2.3H192c-1.3 0-2.3 1-2.3 2.3 0 1.3 1 2.3 2.3 2.3zm12.8 0h4.6c1.3 0 2.3-1 2.3-2.3 0-1.3-1-2.3-2.3-2.3h-4.6c-1.3 0-2.3 1-2.3 2.3-.1 1.3 1 2.3 2.3 2.3zm12.7 0h4.6c1.3 0 2.3-1 2.3-2.3 0-1.3-1-2.3-2.3-2.3h-4.6c-1.3 0-2.3 1-2.3 2.3 0 1.3 1.1 2.3 2.3 2.3zm-115 0h4.6c1.3 0 2.3-1 2.3-2.3 0-1.3-1-2.3-2.3-2.3h-4.6c-1.3 0-2.3 1-2.3 2.3 0 1.3 1 2.3 2.3 2.3zm63.9 0h4.6c1.3 0 2.3-1 2.3-2.3 0-1.3-1-2.3-2.3-2.3h-4.6c-1.3 0-2.3 1-2.3 2.3 0 1.3 1 2.3 2.3 2.3zm-79-2.3c0 1.3 1 2.3 2.3 2.3h4.6c1.3 0 2.3-1 2.3-2.3 0-1.3-1-2.3-2.3-2.3h-4.6c-1.2 0-2.3 1-2.3 2.3zm27.9 2.3h4.6c1.3 0 2.3-1 2.3-2.3 0-1.3-1-2.3-2.3-2.3h-4.6c-1.3 0-2.3 1-2.3 2.3 0 1.3 1 2.3 2.3 2.3zm38.3 0h4.6c1.3 0 2.3-1 2.3-2.3 0-1.3-1-2.3-2.3-2.3h-4.6c-1.3 0-2.3 1-2.3 2.3 0 1.3 1.1 2.3 2.3 2.3zm-12.7 0h4.6c1.3 0 2.3-1 2.3-2.3 0-1.3-1-2.3-2.3-2.3h-4.6c-1.3 0-2.3 1-2.3 2.3-.1 1.3 1 2.3 2.3 2.3zm-12.8 0h4.6c1.3 0 2.3-1 2.3-2.3 0-1.3-1-2.3-2.3-2.3h-4.6c-1.3 0-2.3 1-2.3 2.3 0 1.3 1 2.3 2.3 2.3zm101.1-.3c2.2-.8 4.4-1.6 6.8-2.4.4-.1.8-.3 1.2-.6-.4-.8-1.2-1.3-2.1-1.3h-4.6c-1.3 0-2.3 1-2.3 2.3-.2.8.2 1.6 1 2zM83.9 67.1c-.2-1.1-1.2-1.8-2.3-1.8h-2.7c.2.3.4.5.6.7 1.5 0 3 .4 4.4 1.1z" fill="#cbcbcb"/>
  <path d="M251 108.2c-1.6 0-3.3-.1-4.9-.2h-.1c-.4 1.1.1 2.4 1.1 2.9 1.2.6 2.5.1 3.1-1.1l.8-1.6c.1 0 .1 0 0 0zm-178.1 4.7c.3 0 .7-.1 1-.2 1.2-.5 1.7-1.9 1.1-3.1l-1-2.2h-5.2l1.9 4.1c.4.9 1.3 1.4 2.2 1.4zM98 169.3c.5 1.2 1.9 1.7 3.1 1.1 1.2-.5 1.7-1.9 1.1-3.1l-2-4.2c-.6-1.2-2-1.6-3.1-1.1-1.2.6-1.6 2-1.1 3.1l2 4.2zm-16.3-34.7c.4.8 1.2 1.3 2.1 1.3 1.3 0 2.3-1 2.3-2.3 0-.3-.1-.7-.2-1l-2-4.2c-.6-1.2-2-1.6-3.1-1.1-1.1.6-1.6 1.9-1.1 3l2 4.3zm21.8 46.3c.4.8 1.2 1.3 2.1 1.3.3 0 .7-.1 1-.2 1.2-.5 1.7-1.9 1.2-3.1l-2-4.2c-.6-1.2-2-1.6-3.1-1.1-1.1.6-1.6 1.9-1.1 3l1.9 4.3zm-10.9-23.1c.4.8 1.2 1.3 2.1 1.3.3 0 .7-.1 1-.2 1.2-.5 1.7-1.9 1.2-3.1l-2-4.2c-.5-1.2-1.9-1.7-3.1-1.1-1.2.5-1.7 1.9-1.1 3.1l1.9 4.2zm109.5 44.8c.3.2.7.2 1 .2.9 0 1.7-.5 2.1-1.3l2.1-4.2c.6-1.2.1-2.5-1.1-3.1-1.2-.6-2.5-.1-3.1 1.1l-2.1 4.2c-.5 1.2-.1 2.6 1.1 3.1zM80.4 121.1l-2-4.2c-.5-1.2-1.9-1.7-3.1-1.2-1.2.5-1.7 1.9-1.2 3.1v.1l2 4.2c.4.8 1.2 1.3 2.1 1.3.3 0 .7-.1 1-.2 1.3-.6 1.8-1.9 1.2-3.1zm4.8 20.9l1.9 4.2c.4.8 1.2 1.3 2.1 1.3.3 0 .7-.1 1-.2 1.2-.5 1.7-1.9 1.2-3.1l-2-4.2c-.5-1.2-1.9-1.7-3.1-1.2-1.1.6-1.7 1.9-1.1 3.2 0-.1 0 0 0 0zm129.2 30.4l-2.1 4.2c-.6 1.2-.1 2.5 1.1 3.1.3.2.7.2 1 .2.9 0 1.7-.5 2.1-1.3l2.1-4.2c.5-1.2 0-2.5-1.2-3.1-1.2-.4-2.5 0-3 1.1zm-2.6 10.4c-1.1-.6-2.5-.1-3.1 1.1l-2.1 4.2c-.6 1.2-.1 2.5 1.1 3.1.3.2.7.2 1 .2.9 0 1.7-.5 2.1-1.3l2.1-4.2c.6-1.1.1-2.5-1.1-3.1zm-12.1 29.9l1.9-3.8c.6-1.2.1-2.5-1.1-3.1-.5-.3-1.1-.3-1.7-.1l.9 7zm20.3-51.8s0 .1-.1.1l.1-.1-2.1 4.3c-.6 1.1-.1 2.5 1.1 3.1.3.2.7.2 1 .2.9 0 1.7-.5 2.1-1.3l2.1-4.2c.6-1.1.2-2.5-1-3.1-1.1-.6-2.6-.2-3.2 1zm17-34.5s0 .1-.1.1l-2.1 4.2c-.6 1.1-.1 2.5 1.1 3.1.3.2.7.2 1 .2.9 0 1.7-.5 2.1-1.3l2.1-4.2c.6-1.1.2-2.5-1-3.1-1.1-.6-2.5-.1-3.1 1zm-130 61.8l1.9 4.2c.4.8 1.2 1.3 2.1 1.3.3 0 .7-.1 1-.2 1.2-.5 1.7-1.9 1.2-3.1l-2-4.2c-.5-1.2-1.8-1.8-3-1.3s-1.8 1.8-1.3 3c0 .1 0 .2.1.3zm5.3 11.6l2 4.2c.2.5.6.8 1 1.1l.5-8.1c-.7-.5-1.6-.7-2.4-.3-1.1.5-1.6 1.9-1.1 3.1zm117.9-54.5c.3.2.7.2 1 .2.9 0 1.7-.5 2.1-1.3l2.1-4.2c.5-1.2 0-2.5-1.2-3.1-1.1-.5-2.4-.1-3 1l-2.1 4.2c-.5 1.2 0 2.6 1.1 3.2zm-4.4 3.9c0 .1-.1.2-.1.2l-2.1 4.2c-.6 1.2-.1 2.5 1.1 3.1 1.2.6 2.5.1 3.1-1.1l2-4.2c.6-1.1.2-2.5-.9-3.2-1.1-.5-2.5-.1-3.1 1zm15.7-26.9c.3.2.7.2 1 .2.9 0 1.7-.5 2.1-1.3l2-4.2c.6-1.2.1-2.5-1.1-3.1s-2.5-.1-3.1 1.1l-2 4.2c-.5 1.2 0 2.6 1.1 3.1z" opacity=".65" fill="#cbcbcb"/>
  <path d="M273.6 87.9c-.7-.4-1.2-1.2-1.2-2s.4-1.6 1.2-2l6-3.5-1.5-6.9c-2.3-.9-4.3-1.7-5.8-2.2l-2.1 32c1.9-.1 3.9-.2 5.8-.3l1-4.2 1.8-7.8-5.2-3.1zm22-5.8c-2.4-1.9-7.3-4.3-12.2-6.3l1.2 5.4c.2 1-.3 2-1.1 2.5l-4 2.3 3.2 1.9c.2.1.4.3.6.5.5.6.7 1.3.5 2.1l-2.9 12.1c8-.8 14.9-2 19.5-3.7.1-.7.1-1.5.1-2.3-.1-5.5-1.9-12.1-4.9-14.5zm-53.5 21l-3.3-27.3-.5-4.4-.8.3-3.7 1.3-2.5 8.4 6.4 2.7c.6.3 1.1.8 1.3 1.4.1.1.1.3.1.5v.8c-.1.6-.5 1.2-1.1 1.6l-5.6 3.5 3.3 11c2-.1 4.2.1 6.4.2zm-13.8-14.4l3.4-2.1-4.2-1.8c-1.1-.5-1.7-1.7-1.3-2.8l2.1-7.1c-4.4 1.7-8.6 3.7-12.6 6.1-5.4 3.3-5.6 7.6-5.6 16.2v.9c6.7 2 13.5 3.4 20.5 4l-3.3-10.9c-.3-.9.1-2 1-2.5z" fill="#fff"/>
  <path d="M255.6 95.7l-11.4-13 2.5 20.7c3.1.1 6.2.2 9.4.2 3.1 0 6.2 0 9.3-.1l1.4-21.2-11.2 13.4z" fill="#aed7f0"/>
  <path d="M254.1 63.2c-2.4 0-5.7-1.5-8.9-4.1 0 .4-.1.8-.1 1.1-.1.8-.2 1.5-.4 2.2-.1.4-.2.7-.3 1.1-.2.7-.5 1.4-.8 2.1-.3.7-.7 1.4-1.1 2l.8 6.8 12.3 14.1 11.9-14 .4-5.3c-2.5-2.6-4.1-6-4.6-9.6-2.7 2.1-5.9 3.4-9.2 3.6zM243.5 31h5.1c2.4 0 4.5 1.6 5.2 3.9h.7c.7-2.3 2.8-3.9 5.2-3.9h5.1c2.4 0 4.5 1.6 5.2 3.9h.7v-.5c0-1.9 0-3.8-.1-5.6-1.4 1.1-3.2 1.5-5.2 1.5-7.3 0-17.3-6-21.9-12.3-1.6 4.4-3.7 8.6-6.2 12.6v4.2h.8c.9-2.2 3-3.8 5.4-3.8z" fill="#d7c8b7"/>
  <path d="M258.1 37.1c0 .2-.1.3-.2.4.1.2.2.4.3.5l.4.4c.3.2.7.3 1.1.3h5.1c1 0 1.8-.8 1.9-1.8v-.8c0-.1 0-.2-.1-.4s-.2-.5-.3-.6c-.1-.1-.2-.2-.2-.3-.3-.3-.8-.5-1.3-.5h-5.1c-.8 0-1.5.5-1.8 1.3.2.3.3.6.3.9 0 .3-.1.5-.1.6zm-9.5-2.6h-5.1c-1.1 0-2 .9-2 2v.4c0 .3.1.5.2.8.1.2.2.4.4.6.4.4.8.6 1.4.6h5.1c.8 0 1.5-.5 1.8-1.3-.3-.6-.3-1.2 0-1.8-.3-.8-1-1.3-1.8-1.3z" fill="#d7c8b7"/>
  <path d="M254.1 58.5c3.1 0 7.3-2.7 10.6-6.9 3-3.8 5-8.4 5.8-13.2h-.5c-.7 2.3-2.8 3.9-5.2 3.9h-5.1c-.6 0-1.2-.1-1.7-.3-.8-.3-1.6-.7-2.2-1.4-.4-.4-.7-.9-1-1.4-.1-.3-.2-.5-.3-.8h-.7c-.1.3-.2.6-.3.8-.3.5-.6 1-1 1.4-.6.6-1.3 1.1-2.2 1.4-.5.2-1.1.3-1.7.3h-5.1c-2.4 0-4.5-1.6-5.2-3.9h-.5c2 11.3 12.2 20.1 16.3 20.1z" fill="#d7c8b7"/>
  <path d="M298.5 78.4c-6-4.8-24.4-11.4-27.2-12.4-.8-.7-3.7-3.6-3.8-10.6l.8-1c4.6-5.7 7.1-12.8 7.1-20.1 0-10.1-.5-19.5-6.1-24.8-3.2-3-9.8-5.3-15.2-5.3-4.4.1-8.8 1.2-12.7 3.3-8.7 4.4-8.7 14.4-8.7 24.9v1.9c0 7.9 3.6 15.2 8.1 20.4-.1.3-.2.6-.2 1 0 .1.3 8.1-3.6 10.8l-1.2.6c-2.3.8-4.6 1.6-6.8 2.4-5.5 2-10.9 4.5-15.9 7.5-7.9 4.8-7.9 11.9-7.8 20.2v4.1l1.5.6c8.1 3.1 23 5.2 39.1 6h.1c1.6.1 3.3.1 4.9.2h.1c2.7.1 5.5.1 8.2.1 17.9 0 35.2-1.7 44.1-5.6l1.2-.5.2-1.3c1.3-7.4-1-18.2-6.2-22.4zm-61.1-44v-3.7c2.5-4 4.5-8.2 6.2-12.6 4.5 6.3 14.6 12.3 21.9 12.3 2 0 3.8-.5 5.2-1.5.1 1.8.1 3.7.1 5.6v.5h-.8c-.7-2.3-2.8-3.9-5.2-3.9h-5.1c-2.4 0-4.5 1.6-5.2 3.9h-.7c-.7-2.3-2.8-3.9-5.2-3.9h-5.1c-2.4 0-4.5 1.6-5.2 3.9h-.9v-.6zm20.5 1.4c.3-.8 1-1.3 1.8-1.3h5.1c.5 0 1 .2 1.3.5.1.1.2.2.2.3l.3.6c0 .1.1.2.1.4v.8c-.1 1-.9 1.8-1.9 1.8h-5.1c-.4 0-.8-.1-1.1-.3-.2-.1-.3-.2-.4-.4s-.2-.3-.3-.5c.1-.1.1-.3.2-.4s.1-.3.1-.5c0-.4-.1-.7-.3-1zm-7.5 1.8c-.3.8-1 1.3-1.8 1.3h-5.1c-.5 0-1-.2-1.4-.6-.2-.2-.3-.4-.4-.6-.1-.2-.2-.5-.2-.8v-.4c0-1.1.9-2 2-2h5.1c.8 0 1.5.5 1.8 1.3-.3.5-.3 1.2 0 1.8zm-12.6.8h.5c.7 2.3 2.8 3.9 5.2 3.9h5.1c.6 0 1.2-.1 1.7-.3.8-.3 1.6-.7 2.2-1.4.4-.4.7-.9 1-1.4.1-.3.2-.5.3-.8h.7c.1.3.2.6.3.8.3.5.6 1 1 1.4.6.6 1.3 1.1 2.2 1.4.5.2 1.1.3 1.7.3h5.1c2.4 0 4.5-1.6 5.2-3.9h.5c-.8 4.8-2.8 9.4-5.8 13.2-3.3 4.2-7.5 6.9-10.6 6.9-4.1 0-14.3-8.8-16.3-20.1zm-10.5 52.9l3.3 10.9c-6.9-.6-13.8-2-20.5-4v-.9c-.1-8.6.1-12.9 5.6-16.2 4-2.4 8.2-4.5 12.6-6.1l-2.1 7.1c-.3 1.1.2 2.3 1.3 2.8l4.2 1.8-3.4 2.1c-.9.4-1.3 1.5-1 2.5zm8.3 11.4l-3.3-11 5.6-3.5c.6-.4.9-.9 1.1-1.6v-.8c0-.2-.1-.3-.1-.5-.1-.1-.1-.3-.2-.4-.3-.4-.6-.7-1.1-.9l-6.4-2.7 2.5-8.4 3.7-1.3.8-.3.5 4.4L242 103v.1c-2.1-.1-4.3-.2-6.4-.4zm29.9.8c-3.1.1-6.2.1-9.3.1-3.1 0-6.3-.1-9.4-.2l-2.5-20.7 11.3 13 11.3-13.3-1.4 21.1zm2.3-34.3l-.4 5.3-11.9 14-12.3-14.1-.8-6.8c.4-.6.8-1.3 1.1-2 .3-.7.6-1.4.8-2.1.1-.4.2-.7.3-1.1.2-.7.3-1.5.4-2.2.1-.4.1-.8.1-1.1 3.2 2.6 6.4 4.1 8.9 4.1 3.3-.2 6.5-1.4 9.1-3.6.6 3.6 2.2 6.9 4.7 9.6zm9.2 29.6l-1 4.2c-1.9.1-3.9.3-5.8.3l2.1-32c1.5.6 3.6 1.3 5.8 2.2l1.5 6.9-6 3.5c-.7.4-1.2 1.2-1.2 2s.4 1.6 1.2 2l5.3 3.1-1.9 7.8zm23.4.1c-4.6 1.7-11.5 2.9-19.5 3.7l2.9-12.2c.2-.7 0-1.5-.5-2.1-.2-.2-.4-.4-.6-.5l-3.2-1.9 4-2.3c.9-.5 1.3-1.5 1.1-2.5l-1.2-5.4c4.9 2.1 9.8 4.4 12.2 6.3 3.1 2.5 4.9 9 5 14.6-.1.8-.1 1.6-.2 2.3z" fill="#4d4d4d"/>
  <path d="M203.5 285.8l-10.7-6.3c-.4-.2-.6-.5-.8-.8-.2-.3-.3-.6-.3-1-.1-.5 0-1 .3-1.5.2-.4.5-.6.8-.8l12-7-3.3-15.3c-5.8-1.9-10.8-3.4-13.8-4.3l-4.1 61.4c4.8-.2 9.7-.4 14.3-.7l5.6-23.7z" fill="#fff"/>
  <path d="M241.1 278.4c-3.4-7-9.1-12.7-16.1-16-2-1-3.9-1.9-5.8-2.7-4-1.6-8.3-3.2-12.4-4.7l3 14.2c.2.9-.2 1.7-.9 2.3l-.3.3-10 5.8 8.8 5.1c.7.4 1.1 1.1 1.1 1.8v.7l-5.7 23.9c17.1-1.5 31.8-4 41-7.7 0-.3 0-.6.1-.9.5-7.5-.4-15-2.8-22.1zm-120-25.4c-1 .3-2 .6-3.1.8l-5.2 16.4 13.1 5.5c.2.1.4.2.5.3l.1.1c.2.1.3.3.4.5 0 0 0 .1.1.1 0 .1.1.2.1.2 0 .1 0 .1.1.2 0 .1 0 .1.1.2v.8c0 .1-.1.2-.1.3v.2c-.1.2-.2.4-.3.5l-.1.1c-.1.2-.3.3-.5.4l-11.5 7.1 6.6 21.7c4.9.4 9.9.8 15 1.1h.4l-7.2-59.4c-2.8 1.3-5.6 2.1-8.5 2.9z" fill="#fff"/>
  <path d="M109.7 286.8c-.3-1 .1-2.1 1-2.7l9.1-5.7-10.8-4.6c-.8-.4-1.4-1.2-1.4-2 0-.3 0-.6.1-.9l4.9-15.6c-1.1.3-2.2.6-3.3.8-4.7 1.3-9.4 2.7-14 4.4-1.3.6-2.7 1.3-4 2-7.8 3.6-13.9 10.1-17 18.1-.9 4.7-.8 10.1-.8 16.5v3c9.1 3.3 21.8 5.8 36.4 7.6 2.1.3 4.2.5 6.4.7l-6.6-21.6z" fill="#fff"/>
  <path d="M156.8 268.7c-.1 0-.1 0 0 0-10.3 0-17-4-21.4-8.9l6.1 50.3c6.2.3 12.5.4 18.8.5 6.3 0 12.5 0 18.7-.2l3.5-52.1-1.8 1.2c-4.9 4.9-12.3 9.2-23.9 9.2z" fill="#e28888"/>
  <path d="M156.7 264c18.3 0 24.6-12 26.3-16.7-2.3-1.1-4.3-2.5-6.1-4.3-1.7-1.8-3.2-3.9-4.1-6.2-1.7-4.5-2.1-9.4-1.2-14.1-5.1 3.7-10.5 5.8-15.6 5.8-2.2-.1-4.4-.6-6.4-1.5 0 0-.1 0-.1-.1h-.1c-3.5-1.5-6.8-3.6-9.7-6v.1l2.1 1.8c-.7-.6-1.4-1.1-2.1-1.7.6 6.3.7 15.6-2.4 22.2l-.3.6c-.7 1.5-1.7 2.8-2.9 3.9.5 1.9 1.6 4.7 3.5 7.4 3.3 4.5 9 8.8 19.1 8.8z" fill="#cfab92"/>
  <path d="M156.2 223.8c2.5 0 5.2-.7 8-2.1.3-.2.7-.3 1-.5.1 0 .2-.1.2-.1 11.8-6.5 24.2-23.5 24.2-43.5v-2.9c-7.9-7.3-23.6-7.3-32.4-16.3 0-5.1.4-24.7-1.3-24.9-1.8.5-1.1 19.9-1.2 25-4.4 3.4-8.6 5.4-12.5 7-7 2.9-12.9 4-17 7.7-1.2 1.1-2.2 2.4-3.1 4v1.5c1 25.3 24.7 45.2 34.1 45.1z" fill="#cfab92"/>
  <path d="M237.1 263.8c-9.4-7.4-36-15.9-46.7-19l13.1-.1-3.8-32-.8-7.1-4.4-36.8c0-.2-.1-.3-.1-.5-.4-14.5-2.5-27.5-10.8-35.1-5.8-5.2-17.6-9.2-27.4-9.2h-.2c-8 .2-15.8 2.2-23 5.8-13.9 7-15.2 22.3-15.3 39.1l-1.8 28-.5 8.1-2.4 38.7 15.9.7.1 1.2-.6.3c-4.7 1.6-9.8 2.9-15.1 4.3-10.6 2.7-21.5 5.5-30.9 11.2-13.8 8.3-13.6 20.3-13.6 35.6v6.2l1.5.6c13.5 5.2 37.8 9 66.2 10.6l1.6.1c6.9.3 14 .6 21.3.7h6.1c36.4 0 66.4-3.7 81.2-10.1l1.2-.5.2-1.3c2.2-13.2-1.8-32.2-11-39.5zm-114.7-85.1v-1.5c.9-1.6 1.9-2.9 3.1-4 4.1-3.8 10-4.9 17-7.7 3.8-1.6 8-3.6 12.5-7 .1-5.2-.6-24.6 1.2-25h.1c1.9 0 1.3 19.8 1.4 24.9 8.8 9 24.4 9 32.4 16.3v2.9c0 20-12.6 37.1-24.4 43.6-.1 0-.2.1-.2.1-.3.2-.7.4-1 .5-2.8 1.4-5.5 2.1-8 2.1-9.7 0-33.4-19.9-34.1-45.2zm-12.5 128.9c-14.6-1.8-27.3-4.3-36.4-7.6v-3c0-6.4-.1-11.8.8-16.5.9-6.4 4.8-12 10.5-15.1 3.4-2 7-3.7 10.7-5.1 4.6-1.6 9.2-3.1 13.9-4.3 1.1-.3 2.2-.6 3.3-.8h.1l-5 15.7c-.1.3-.1.5-.1.8 0 .9.6 1.7 1.4 2l10.8 4.6h.1l-9.2 5.7c-.9.6-1.3 1.6-1 2.6l6.6 21.6c-2.2-.1-4.4-.3-6.5-.6zm26.9 2.3h-.4c-5.1-.3-10.1-.6-15-1.1l-6.6-21.7 11.5-7.1c.2-.1.3-.3.5-.4l.1-.1c.1-.2.2-.3.3-.5 0-.1 0-.1.1-.2 0-.1.1-.2.1-.3v-.8c0-.1 0-.1-.1-.2 0-.1 0-.1-.1-.2 0-.1-.1-.2-.1-.2s0-.1-.1-.1c-.1-.2-.3-.3-.4-.5l-.1-.1c-.2-.1-.3-.2-.5-.3l-13.1-5.5 5.2-16.4c1-.3 2.1-.5 3.1-.8 2.9-.8 5.8-1.6 8.5-2.6l7.1 59.1zm45.6-51.6l-3.5 52.1c-6.1.2-12.4.2-18.7.2-6.3 0-12.6-.2-18.8-.5l-6.1-50.3c4.3 5 11.1 8.9 21.3 8.9 11.6 0 19.1-4.3 23.8-9.2.7-.7 1.3-1.4 1.9-2.1l.1.9zm-25.6 5.8c-10.1 0-15.9-4.4-19.1-8.9-1.9-2.7-3-5.5-3.5-7.4 1.2-1.1 2.1-2.5 2.9-3.9l.3-.6c3.1-6.6 3-15.8 2.4-22.2v-.1c3 2.5 6.3 4.5 9.9 6.1 0 0 .1 0 .1.1 2 .9 4.2 1.4 6.4 1.5 5 0 10.4-2.1 15.6-5.8-.9 4.7-.5 9.6 1.2 14.2 1 2.3 2.4 4.4 4.1 6.2 1.7 1.8 3.8 3.2 6.1 4.3-1.9 4.5-8.1 16.5-26.4 16.5zm26.4-17.5c-.1-.2-.1-.5-.2-.7.1.2.1.4.2.7l.1-1.5-.1 1.5zm.1-1.5c0-.3.1-.5.2-.7-.1.2-.2.4-.2.7zm.4 65.1l4.1-61.4c3 .9 8.1 2.4 13.8 4.3l3.3 15.3v.1l-12 7c-.8.5-1.2 1.3-1.1 2.2 0 .3.1.7.3 1 .2.4.5.6.8.8l10.7 6.3-5.6 23.7c-4.7.3-9.5.5-14.3.7zm60.2-9.7c0 .3 0 .6-.1.9-9.2 3.7-23.8 6.2-41 7.7l5.7-23.9c.1-.2.1-.5 0-.7-.1-.7-.5-1.4-1.1-1.8l-8.8-5.1 10-5.8c.1-.1.2-.2.3-.2.7-.5 1-1.4.9-2.3l-3-14.2v-.1c4.2 1.5 8.5 3.1 12.5 4.7 6.3 2.6 11.9 5.3 15.1 7.9 2.9 2.3 5.2 6.3 6.8 10.9 2.4 7 3.3 14.5 2.7 22z" fill="#4d4d4d"/>
  <path d="M99.5 120.5c-.5.2-.9.5-1.3.7l1.3-.7z" fill="#e49f87"/>
  <path d="M37.2 88.2c-.2 0-.5-.1-.7-.1-.7 0-1.3.3-1.9.7-1.9 1.7-2.4 6-2.4 7.4 0 1.3-1 2.3-2.3 2.3-1.3 0-2.3-1-2.3-2.3 0-.8.1-7.5 4-10.9 1.5-1.3 3.3-1.9 5.3-1.8h.1c.3-2.9 1-5.7 2-8.4-4.7 1.3-9.5 2.7-13.5 5.1-5.4 3.3-5.6 7.6-5.6 16.2v.9c6.2 1.9 12.6 3.2 19.1 3.8 1.2-9-.4-12.8-1.8-12.9zm6.5 13.4c13 1.2 26.1 1.4 39.1.7-.3-.3-.6-.6-.8-.9-2.8-3.5-2.6-8.6.6-11.9 1.2-1.2 2.6-2.1 4.3-2.5 0-7.3-1.4-11.3-2.7-13.4l-.5-.1C81.4 78 75.5 84.1 64 84.1c-6.4 0-11.3-1.6-14.5-4.9-1.7-1.7-2.8-3.7-3.3-6l-1.2.3c-2.6 3.7-3.4 9.9-3.6 12 .6.7 1.2 1.6 1.6 2.8 1 2.7 1.5 6.9.7 13.3zm50.8-13.3c4.1 2.9 5.1 8.6 2.2 12.7 4.6-.6 9.1-1.6 13.5-3.1.4-5.9-1.3-14-4.8-16.8-1.7-1.3-4.7-2.7-8-3.9-2.4-.9-5-1.6-7.5-2.3 1.2 3.9 1.7 7.9 1.6 12 1.1.4 2.1.8 3 1.4z" fill="#98d0c0"/>
  <path d="M51.2 13.9c-1.8 2.4-3 5.2-3.5 8.2.5-.8 1.1-1.5 1.7-2.2l.6-.6c2.7-2.5 7.5-3.7 11.3-3.7h1.5l.6 1.3c2.1 2.8 4.5 5.4 7.2 7.7 2.8 2.4 6.2 4.2 9.8 5.1.1-1.3.2-2.6.2-3.8.1-3.6-.3-6.6-1.2-8.4-.3-.8-.8-1.6-1.2-2.3-2.8-4.3-7.6-7.1-12.8-7.1H65c-4.3.1-7.5.7-10 2.2-1.4.9-2.7 2-3.8 3.6zm-.5 39.7c-2-2.4-3.6-5.1-4.7-8.1-1.1 2.4-2.6 4.5-4.4 6.4l.3.3c1.5 1.3 4.4 2.6 8.8 1.4zm26-1.1c0 .3-.1.7-.2 1.3 3.4.5 6.9-.3 9.7-2.3-2-2.9-3.5-6.1-4.4-9.5-1.1 3.7-2.9 7.3-5.1 10.5z" fill="#736357"/>
  <path d="M64 79.4c9.6 0 13.7-4.8 15.2-7.5-3.9-2.4-6.3-6.4-7.1-11.8-.1-.8-.2-1.6-.2-2.3-2.4 2.2-5.4 3.5-8.6 3.7-2.1 0-4.8-1.1-7.5-3.1.1.6.1 1.3.1 1.9.1 4.6-1.1 9.5-5.3 11.5.4 2.3 2.5 7.6 13.4 7.6zm-.8-22.7c1.6 0 3.4-.8 5.2-2.2 4.1-3.2 8.3-9.6 9.5-17l.1-.7c.2-.9.3-1.8.4-2.8-4-1.2-7.8-3.3-11-6-2.7-2.4-5.2-4.9-7.4-7.7-3 .2-6.1 1.3-7.3 2.6-3.6 4-3.6 6.6-3.6 15 .1 10.3 10.3 18.8 14.1 18.8z" fill="#d6b999"/>
  <path d="M89.2 91.3c-2.5 0-4.5 2-4.5 4.5s2 4.5 4.5 4.5c2.2 0 4-1.5 4.4-3.6v-.2c0-.2.1-.4.1-.7 0-2.5-2-4.5-4.5-4.5zm1.9 4.5c0 1.1-.9 1.9-1.9 1.9-.3 0-.6-.1-.9-.2-.6-.3-1.1-1-1.1-1.7 0-1.1.9-1.9 1.9-1.9.2 0 .3 0 .4.1h.1c.1 0 .2 0 .3.1.7.2 1.2.9 1.2 1.7z" fill="#cbcbcb"/>
  <path d="M89.9 94c-.1 0-.2-.1-.3-.1h-.5c-1.1 0-1.9.9-1.9 1.9 0 .8.4 1.4 1.1 1.7.3.1.5.2.9.2 1.1 0 1.9-.9 1.9-1.9 0-.8-.5-1.5-1.2-1.8z" fill="#4d4d4d"/>
  <path d="M69.1 107.4H74c16.1-.3 31.1-2 39.3-5.6l1.2-.5.2-1.3c1.1-7.5-1.2-18.3-6.4-22.5-4.6-3.7-15.5-6.7-21.5-8.1-.4-.4-.7-.8-1.2-1.2-.5-.4-1.1-.8-1.7-1.1-1.4-.7-2.9-1.1-4.4-1.1-.2-.2-.4-.5-.6-.7-1.3-2-2.1-4.3-2.3-6.7 3.1.4 8.7 0 14.6-5l2.1-1.8-2.1-1.8c-2.3-1.9-4.5-6.6-5.9-12.9-.5-2-.6-4.2-.4-6.2.5-4.6.6-11-1.3-15.3C80.4 8.1 73.1 3.3 65 3.4c-8.4.1-13.5 2.3-17.6 7.6-3.8 5-5.3 11-4.8 18.8.2 2 .3 3.6.4 4.9.3 3.4.4 4.1-.2 6-1.1 3.6-3.1 6.7-6 9.1L35 51.1l1.2 1.8c2.5 3.6 6.7 5.8 11.1 5.7 1.2 0 2.4-.2 3.6-.4.3 2.4.3 5.7-.9 7.8h-.3c-2.9 0-5.6 1.2-7.5 3.4l-2.1.6c-5.8 1.5-11.8 3-17.1 6.2-7.9 4.8-7.9 11.9-7.8 20.2v4.1l1.5.6c10.3 4 31.5 6.3 52.1 6.3h.3zM39 101.1c-6.5-.7-12.9-1.9-19.1-3.8v-.9c-.1-8.6.1-12.9 5.6-16.2 4-2.4 8.7-3.8 13.5-5.1-1 2.7-1.7 5.5-2 8.4h-.1c-1.9-.1-3.8.6-5.2 1.8-3.9 3.4-4 10.1-4 10.9 0 1.3 1 2.3 2.3 2.3 1.3 0 2.3-1 2.3-2.3 0-1.4.4-5.7 2.4-7.4.5-.5 1.2-.7 1.9-.7.2 0 .5 0 .7.1 1.3.1 2.9 3.9 1.7 12.9zm58.4-23.8c3.3 1.2 6.3 2.5 8 3.9 3.5 2.8 5.2 10.9 4.8 16.8-4.4 1.5-8.9 2.5-13.5 3.1 2.9-4.1 1.9-9.8-2.2-12.7-.9-.6-1.9-1.1-2.9-1.4.1-4.1-.5-8.1-1.6-12 2.4.7 5 1.5 7.4 2.3zm-3.7 18.5c0 .3 0 .5-.1.7v.2c-.4 2-2.2 3.6-4.4 3.6-2.5 0-4.5-2-4.5-4.5s2-4.5 4.5-4.5c2.4 0 4.5 2 4.5 4.5zm-7.5-44.3c-2.8 2-6.3 2.8-9.7 2.3.1-.6.1-1.1.2-1.3v-.1c2.3-3.2 4-6.7 5.1-10.5.9 3.4 2.4 6.7 4.4 9.6zM51.1 13.9c1.2-1.5 2.5-2.7 4-3.6 2.5-1.5 5.7-2.1 10-2.2h.3c5.3 0 10.1 2.8 12.8 7.1.5.7.9 1.5 1.2 2.3.8 1.8 1.2 4.8 1.2 8.4 0 1.2-.1 2.5-.2 3.8-3.6-.9-6.9-2.7-9.8-5.1-2.6-2.3-5.1-4.9-7.2-7.7l-.6-1.3h-1.5c-3.8 0-8.5 1.2-11.3 3.7l-.6.6c-.6.7-1.2 1.4-1.7 2.2 0 .1-.1.1-.1.1.5-3 1.7-5.9 3.5-8.3zm-9.3 38.3l-.3-.3c1.8-1.9 3.3-4.1 4.4-6.4 1.1 2.9 2.7 5.7 4.7 8.1-4.3 1.2-7.2-.1-8.8-1.4zm7.4-14.1c0-8.5 0-11.1 3.6-15.1 1.2-1.3 4.2-2.4 7.3-2.6 2.3 2.8 4.8 5.3 7.4 7.7 3.2 2.7 7 4.8 11 6-.1.9-.2 1.9-.4 2.8l-.1.7c-1.3 7.4-5.4 13.8-9.5 17-1.8 1.4-3.7 2.2-5.2 2.2-3.9 0-14.1-8.5-14.1-18.7zm1.4 33.6c4.2-2 5.3-6.9 5.3-11.5 0-.7 0-1.3-.1-2 2.7 2 5.4 3.1 7.5 3.1 3.2-.2 6.2-1.5 8.6-3.7 0 .7.1 1.5.2 2.3.8 5.4 3.2 9.5 7.1 11.8-1.5 2.7-5.5 7.5-15.2 7.5-11 .2-13.1-5.2-13.4-7.5 0 .1 0 0 0 0zm-7 29.9c.8-6.4.4-10.6-.6-13.3-.4-1.2-1-2.2-1.6-2.8.2-2.1.9-8.3 3.6-12l1.2-.3c.5 2.3 1.7 4.4 3.3 6 3.2 3.2 8.1 4.9 14.5 4.9 11.5 0 17.4-6.1 19.6-10.6l.5.1c1.4 2.1 2.7 6.1 2.8 13.4-4.9 1.2-7.8 6.2-6.5 11.1.3 1.2.9 2.3 1.6 3.3.3.3.5.6.8.9-13.1.7-26.1.5-39.2-.7z" fill="#4d4d4d"/>
</svg>
