<?xml version="1.0"?>
<svg xmlns="http://www.w3.org/2000/svg" viewBox="0 0 262 275">
  <path d="M123.3 175.9c-4.6 2.9-13.7 19.5-14.2 30.1-.1.7 0 1.4.4 2.1.4.2.8.3 1.3.2l3.6-.3h1.1l12.7-31.1c-1.5-.9-3.2-1.2-4.9-1zm-35.2 70.5c-.8 1.5-2.7 6-1.5 8.6.6 1.2 1.8 2 3.1 2.2 7.6 1.8 14-5.6 14.1-5.6.1-.2.3-.3.5-.4l-.4-1.3c-5.4-.1-10.8-1.5-15.6-4 0 .1-.1.3-.2.5z" fill="none"/>
  <path d="M142.4 151.6l-.1-.1c-.8-.8-2-.9-2.8-.1-.1.1-.1.1-.1.2l1.5.9c.4-.4.9-.7 1.5-.9zm-17.9-16.3c-.8.8-.9 2-.1 2.8l2.7 2.9c.7.8 2 .9 2.8.2s.9-2 .2-2.8l-.1-.1-2.7-2.9c-.7-.8-2-.9-2.8-.1zm7.5 8c-.8.8-.9 2-.1 2.8l2.7 2.9c.8.8 2 .8 2.8.1.8-.8.8-2 .1-2.8l-2.7-2.9c-.8-.8-2-.8-2.8-.1zm-22.5-24.2c-.8.8-.9 2-.1 2.8l2.7 2.9c.7.8 2 .9 2.8.2.8-.7.9-2 .2-2.8l-.1-.1-2.7-2.9c-.7-.8-2-.8-2.8-.1zM87 95c-.8.8-.9 2-.1 2.8l2.7 2.9c.7.8 2 .9 2.8.2.8-.7.9-2 .2-2.8l-.1-.1-2.7-2.9c-.7-.8-2-.9-2.8-.1zm15 16.1c-.8.8-.9 2-.1 2.8l2.7 2.9c.7.8 2 .9 2.8.2s.9-2 .2-2.8l-.1-.1-2.7-2.9c-.7-.8-2-.9-2.8-.1zM83.6 93.3c1.1 0 2-.9 2-2 0-.5-.2-1-.5-1.4L84 88.7l-.6 4.6h.2zm33.4 33.9c-.8.8-.9 2-.1 2.8l2.7 2.9c.8.8 2 .8 2.8.1.8-.8.8-2 .1-2.8l-2.7-2.9c-.7-.8-2-.9-2.8-.1zM94.5 103c-.8.8-.9 2-.1 2.8l2.7 2.9c.8.8 2 .8 2.8.1.8-.8.8-2 .1-2.8l-2.7-2.9c-.7-.8-2-.8-2.8-.1z" fill="#e6e6e6"/>
  <path d="M86.5 37.3l1.7-13c.6-4.5-2.6-8.7-7.1-9.2L32.4 8.9c-.4 0-.7-.1-1.1-.1-4.2 0-7.7 3.1-8.2 7.2L9.3 123.5c-.6 4.5 2.6 8.7 7.1 9.2l48.6 6.2c4.5.6 8.7-2.6 9.2-7.1L86 40.9l.5-3.6zM56.5 14c.4.1.6.4.6.8-.1.4-.4.6-.8.6-.4-.1-.6-.4-.6-.8s.4-.6.8-.6zm-6.2 4l11 1.4c.3 0 .5.3.4.6s-.3.5-.6.4l-11-1.4c-.3 0-.5-.3-.4-.6.1-.2.4-.4.6-.4zm-5.4-1.2c.6.1.9.6.8 1.2s-.6.9-1.2.8c-.5-.1-.9-.6-.8-1.1.1-.6.6-1 1.2-.9zm2.7 112.5c-.2 1.6-1.1 3.1-2.4 4.1-1.1.8-2.4 1.3-3.7 1.2-.3 0-.5 0-.8-.1-1.6-.2-3.1-1-4.1-2.3-2.1-2.6-1.7-6.4.9-8.5.1 0 .1-.1.2-.1 2.7-2 6.5-1.5 8.7 1.1 1 1.3 1.5 3 1.2 4.6zm27.6-7.7c-.2 1.9-1.8 3.3-3.7 3.3H71l-56.6-7.3c-2-.3-3.5-2.1-3.2-4.2l11.6-90.5c.3-2 2.1-3.5 4.2-3.2L83.6 27c2 .3 3.5 2.1 3.2 4.2l-11.6 90.4z" fill="#989898"/>
  <path d="M41.8 126.4h-.3c-.5 0-1 .2-1.3.4-.9.7-1.1 1.9-.4 2.8l.1.1c.8.9 2.1 1.1 3.1.4.9-.7 1.1-1.9.4-2.8 0 0 0-.1-.1-.1-.4-.4-1-.7-1.5-.8z" fill="#989898"/>
  <path d="M25 107.5c.6.1 1.3 0 1.9-.2 1.5-.5 4.1-2.1 7.3-7.6-1.1.4-2.3.9-3.6 1.4-5.1 2.2-5.7 5-5.6 6.4z" fill="#fff"/>
  <path d="M82.8 30.8l-56-7.2-11.6 90 56 7.2 11.6-90zm-23.1 6c.1-1.1 1.1-1.9 2.2-1.8L75 36.5c1.1.1 1.9 1.1 1.7 2.2-.1 1-1 1.8-2 1.8h-.2l-13-1.5c-1.1-.2-1.9-1.2-1.8-2.2zm-.7 7.9c.1-1.1 1.1-1.9 2.2-1.8l13.2 1.4c1.1.1 1.9 1.1 1.8 2.2-.1 1-1 1.8-2 1.8H74l-13.2-1.4c-1.2-.1-2-1.1-1.8-2.2zm-31 8.5c.1-1.1 1.1-1.9 2.2-1.7l42.5 5.3c1.1.1 1.9 1.1 1.7 2.2-.1 1-1 1.8-2 1.8h-.3l-42.5-5.3c-1-.3-1.8-1.3-1.6-2.3zm-.9 9c.1-1.1 1.1-1.9 2.2-1.7l42.5 5.2c1.1.1 1.9 1.1 1.7 2.2-.1 1-1 1.8-2 1.8h-.2l-42.5-5.2c-1-.2-1.8-1.2-1.7-2.3zm40.5 33.3c-1 5.5-2.2 6.5-3.8 6.6-.6 0-1.2-.2-1.6-.7-.6.6-1.5 1-2.4 1.1h-.4c-1 0-1.9-.4-2.6-1-.7.6-1.5 1-2.3 1.3h-.1c-.4.1-.9.2-1.3.2-.9 0-1.8-.3-2.5-.8-.6-.5-1-1.1-1.3-1.7-1.3 1.4-2.9 2.5-4.7 2.2-1-.1-1.8-.8-2.3-1.7-.4-1.1-.4-2.2-.1-3.3-.8.1-1.7.3-2.7.6-3.6 7.5-7.5 11.8-11.7 13-.7.2-1.5.3-2.2.3-1.2 0-2.4-.3-3.5-.9-.3-.2-.6-.6-.8-1-1-2.7-.6-8.6 7.7-12.2 2.5-1.1 5-2 7.6-2.7 2-4.6 2.2-6.5 2.2-7.1-1.2.2-4.1 1.8-6.3 3.7-.8.7-2.1.7-2.8-.2-.7-.8-.7-2.1.2-2.8l.1-.1c3-2.4 8.4-6.1 11.4-3.9 1.9 1.5 1.9 4.3 0 9.3 1.3-.2 2.6-.4 3.8-.5h.8c.1 0 .2.1.3.1h.1c.5.3.8.8 1 1.3v1.1c0 .1-.1.2-.1.2v.1c-.3.5-.5.9-.7 1.4.8-1 1.5-2.1 2.1-3.3.5-1 1.6-1.4 2.7-1 .7.3 1.2 1.1 1.2 1.9-.1 1.7.3 3.6.7 3.9h.2c.6-.2 1.2-.6 1.6-1.1-.2-1.2.1-2.4.8-3.3.4-.4.9-.7 1.5-.9 1.1-.2 2.1.6 2.3 1.7.1.9 0 1.9-.2 2.8l.3.3c.6-.7 1-1.6 1.2-2.6.3-1.1 1.4-1.7 2.5-1.3.2.1.4.1.5.2.2-1.1 1.3-1.8 2.3-1.6.8.3 1.5 1.3 1.3 2.4zm3.2-16.8h-.2L28 73.4c-1.1-.1-1.9-1.1-1.7-2.2s1.1-1.9 2.2-1.7L71 74.7c1.1.1 1.9 1.1 1.7 2.2-.1 1-.9 1.8-1.9 1.8z" fill="#fff"/>
  <path d="M83.6 26.9L27 19.6c-2-.3-3.9 1.2-4.2 3.2l-11.6 90.5c-.3 2 1.2 3.9 3.2 4.2l56.6 7.3h.5c1.9 0 3.5-1.4 3.7-3.3L86.8 31c.2-2-1.2-3.9-3.2-4.1zm-68.4 86.7l11.6-90 56 7.2-11.6 90-56-7.2z" fill="#424343"/>
  <path d="M81.5 11.2L32.9 4.9c-6.2-.8-12 3.2-13.5 9.2-.4 0-.8.2-1.2.5-.5.4-.8.9-.9 1.5l-.6 5c-.1 1 .5 2 1.4 2.4l-.3 2.7c-.4.1-.8.2-1.1.5-.5.4-.8.9-.9 1.5l-1.2 9.7c-.1.6.1 1.2.4 1.6-.5.4-.8.9-.8 1.5L13 50.6c-.1 1 .4 1.9 1.3 2.3l-9 70.1c-.9 6.7 3.9 12.9 10.6 13.7l48.6 6.2c.5.1 1.1.1 1.6.1 6.2 0 11.3-4.6 12.1-10.7l5-39.1.6-4.6L89 49.4c.9-.3 1.5-1.1 1.6-2l1.2-9.4c.1-.9-.3-1.8-1.1-2.3l1.4-10.8c.9-6.7-3.8-12.9-10.6-13.7zm-7.1 120.6c-.6 4.5-4.7 7.7-9.2 7.1l-48.6-6.2c-4.5-.6-7.7-4.7-7.1-9.2L23.1 16c.5-4.1 4-7.2 8.2-7.2.4 0 .7 0 1.1.1L81 15.1c4.5.6 7.7 4.7 7.1 9.2l-1.7 13-.4 3.6-11.6 90.9z" fill="#424343"/>
  <path d="M50.2 19l11 1.4c.3 0 .5-.2.6-.4s-.2-.5-.4-.6l-11-1.4c-.3 0-.5.2-.6.4-.1.3.1.6.4.6zm6.1-3.6c.4 0 .7-.2.7-.6s-.2-.7-.6-.7c-.4 0-.7.2-.7.6-.1.3.2.6.6.7zm-11.7 3.4c.6.1 1.1-.3 1.1-.9s-.3-1.1-.9-1.1c-.5-.1-1 .3-1.1.9 0 .5.4 1.1.9 1.1zm-2.3 103.7c-1.6-.2-3.3.2-4.6 1.2-2.7 2-3.2 5.8-1.2 8.4 0 .1.1.1.1.2 1 1.3 2.5 2.1 4.1 2.3.3 0 .5.1.8.1 1.3 0 2.7-.4 3.7-1.2 2.7-2 3.2-5.8 1.2-8.4 0-.1-.1-.1-.1-.2-.9-1.4-2.4-2.2-4-2.4zm1.4 6.3c-.1.5-.4 1-.8 1.4-1 .7-2.4.5-3.1-.4-.7-.9-.6-2.1.3-2.8l.1-.1c.4-.3.9-.4 1.3-.4h.3c.6.1 1.1.4 1.5.8.3.4.4.9.4 1.5z" fill="#424343"/>
  <path d="M101.9 241.8v-.6c0-.1 0-.2.1-.2l9.8-24.1c-3.5 1.4-9.7 5.5-11.4 1.8-2.2-4.8-.1-15 6.4-30.6 10.9-26 22.6-24.1 22.6-24.1 1.3.4 2.4 1.4 2.9 2.7l3.2-7.8c.5-1.4 1.3-2.6 2.2-3.8-5.4-3-10.1-3.2-16.7-1h-.1c-.1 0-4.9 1.5-10.9 6.8-5.6 4.9-13.4 14.3-19 30.8-13.4 40.1-3.3 48.8-2.8 49.2 2.6 2.1 8.8 4.5 14.6 4.8l-.9-3.4v-.5z" fill="#cbcbcb"/>
  <path d="M129.5 164s-11.7-1.9-22.6 24.1c-6.6 15.6-8.6 25.8-6.4 30.6 1.7 3.7 7.9-.4 11.4-1.8l2-4.8-2.7.2c-1.6.2-3.2-.3-4.4-1.3a6.2 6.2 0 01-1.6-5.2c.5-9.8 9.2-29 16.2-33.4l.1-.1c2-1.1 5.4-.8 8.3.8l2.6-6.5c-.6-1.1-1.6-2.1-2.9-2.6zm110.6-8.3v-.1l-25.3 80.1c-1.3 3.8-5.5 6.9-9.3 6.9h-99.3l2.2 8.4c.4 1.3 1.5 2.2 2.9 2.2H208l15.1-14.8 17.2-39.7-.2-43z" fill="#989898"/>
  <path d="M205.4 242.5c3.8 0 8-3.1 9.3-6.9l25.3-80.1c-.3-1.4-2.4-1.3-2.7-1.3h-11.5c-.2 0-.4 0-.6-.1-1 4.1-2.1 8.2-3.5 12h4.1c1.1 0 2 .9 2 2s-.9 2-2 2h-84.3c-1.1 0-2-.9-2-2s.9-2 2-2h2.2c1.7-3.9 3.1-7.9 4.2-12-3.8.2-7.2 2.6-8.6 6.1L106 241.9l.1.6h99.3zM152 225.2c-1 1.1-2.5 1.6-4.7 1.6s-3.8-.5-4.8-1.6c-1-1.3-1.5-2.9-1.3-4.6v-.5c0-2.6 2.6-4.6 6-4.6s6 2 6 4.6v.6c.2 1.6-.2 3.2-1.2 4.5zm17-.3c-1 1.1-2.5 1.6-4.7 1.6s-3.8-.5-4.8-1.6c-1-1.3-1.5-2.9-1.3-4.6v-.5c0-2.6 2.6-4.6 6-4.6s6 2 6 4.6v.6c.2 1.6-.2 3.2-1.2 4.5zm4.9-17c-1 1.1-2.5 1.6-4.7 1.6-1.8.2-3.5-.4-4.8-1.6-1-1.3-1.5-2.9-1.3-4.6v-.5c0-2.6 2.6-4.6 6-4.6s6 2 6 4.6v.6c.2 1.6-.2 3.3-1.2 4.5zm32.5 12.5c0 1-.4 2-1.3 2.6-5.3 3.8-12.5 3.9-17.8.1-.9-.6-1.4-1.6-1.3-2.7l-.1-5.2v-1h.1c.3-2 2-3.7 4.6-4.8 4.5-1.8 10.5-1.2 13.7 1.4 1.2.9 2 2.2 2.1 3.6h.1v6zm9.3-24.2h-26.2l5.1-11.7h25.5l-4.4 11.7zm-34.2-9.1v.6c.3 1.6-.2 3.2-1.2 4.5-1 1.1-2.5 1.6-4.7 1.6s-3.8-.5-4.8-1.6c-1-1.3-1.5-2.9-1.3-4.6v-.5c0-2.6 2.6-4.6 6-4.6s6 2 6 4.6zm-29 .8v-.5c0-2.6 2.6-4.6 6-4.6s6 2 6 4.6v.6c.3 1.6-.2 3.2-1.2 4.5-1 1.1-2.5 1.6-4.7 1.6s-3.8-.5-4.8-1.6c-1-1.3-1.5-3-1.3-4.6zm5.5 15.3v.6c.3 1.6-.2 3.2-1.2 4.5-1 1.1-2.5 1.6-4.7 1.6-1.8.2-3.5-.4-4.8-1.6-1-1.3-1.5-2.9-1.3-4.6v-.5c0-2.6 2.6-4.6 6-4.6s6 2 6 4.6zm-10.5-15.8v.6c.3 1.6-.2 3.2-1.2 4.5-1 1.1-2.5 1.6-4.7 1.6s-3.8-.5-4.8-1.6c-1-1.3-1.5-2.9-1.3-4.6v-.5c0-2.6 2.6-4.6 6-4.6s6 2.1 6 4.6zm-18.4 16.3v-.5c0-2.6 2.6-4.6 6-4.6s6 2 6 4.6v.6c.3 1.6-.2 3.2-1.2 4.5-1 1.1-2.5 1.6-4.7 1.6-1.8.2-3.5-.4-4.8-1.6-1.1-1.3-1.6-3-1.3-4.6zm-4.9 16.9v-.5c0-2.6 2.6-4.6 6-4.6s6 2 6 4.6v.6c.3 1.6-.2 3.2-1.2 4.5-1 1.1-2.5 1.6-4.7 1.6s-3.8-.5-4.8-1.6c-1.1-1.3-1.5-3-1.3-4.6z" fill="#cbcbcb"/>
  <path d="M196.1 221.3c-2.5 0-5-.6-7.2-1.8v1.1c4.3 3 10.1 3 14.4-.1v-1.1c-.5.3-1.1.6-1.7.8-1.7.8-3.6 1.1-5.5 1.1z" fill="#e28888"/>
  <path d="M159.8 149.6h55.3c1.1 0 2 .9 2 2s-.9 2-2 2h-54.6c1.6 1.9 3.6 3.5 5.8 4.7h46.6c1.1 0 2 .9 2 2s-.9 2-2 2h-31.6c9.4 1 21.7.6 37.5.1 6-18.5 7.4-38.8 5.4-49.8l-69.8 1.1c1.2 8.4 1.2 16.9.2 25.2.5 4 1.8 7.8 3.6 11.3.5-.3 1-.6 1.6-.6zm58.8-20.2H199c-1.1 0-2-.9-2-2s.9-2 2-2h19.5c1.1 0 2 .9 2 2s-.8 2-1.9 2zm-22-11.1l21.9-.1c1.1 0 2 .9 2 2s-.9 2-2 2l-21.9.1c-1.1 0-2-.9-2-2s.9-2 2-2zm-35.6 23l56 .1c1.1 0 2 .9 2 2s-.9 2-2 2l-56-.1c-1.1 0-2-.9-2-2s.9-2 2-2z" fill="#fff"/>
  <path d="M218.8 162.5c-15.9.6-28.2.9-37.5-.1h-23.7c-1.1 0-2-.9-2-2s.9-2 2-2h8.7c-2.2-1.2-4.2-2.8-5.8-4.7h-.7c-1.1 0-2-.9-2-2 0-.5.2-.9.5-1.3-1.8-3.5-3.1-7.4-3.6-11.3-.9 9.3-3.1 18.5-6.6 27.2h69.4c.5-1.3.9-2.6 1.3-3.8z" fill="#eee9e0"/>
  <path d="M189.6 196.2h26.1l4.4-11.7h-25.5z" fill="#4d4d4d"/>
  <path d="M188.8 214.7c0 .8.4 1.5 1 1.9 2.4 1.9 7.3 2.3 10.8 1 1.6-.6 2.6-1.6 2.8-2.5 0-.8-.4-1.5-1-1.9-1.8-1.2-4-1.8-6.2-1.8-1.5 0-3.1.3-4.5.8-1.7.7-2.8 1.6-2.9 2.5z" fill="#e28888"/>
  <path d="M206.3 214.4c-.2-1.4-1-2.7-2.1-3.6-3.2-2.6-9.3-3.2-13.7-1.4-2.6 1-4.3 2.8-4.6 4.8v1l.1 5.2c0 1.1.5 2.1 1.3 2.7 5.4 3.8 12.5 3.7 17.8-.1.8-.6 1.3-1.6 1.3-2.6l-.1-6zm-17.5.3c.1-.9 1.2-1.8 2.8-2.5 1.4-.5 3-.8 4.5-.8 2.2-.1 4.4.5 6.2 1.8.6.4 1 1.1 1 1.9-.1.9-1.2 1.8-2.8 2.5-3.4 1.4-8.4.9-10.8-1-.5-.4-.9-1.1-.9-1.9zm14.6 5.7v.2c-4.3 3.1-10.1 3.1-14.4.1v-1.1c2.2 1.2 4.7 1.8 7.2 1.8 1.9 0 3.8-.3 5.6-1 .6-.2 1.1-.5 1.7-.8v.8z" fill="#4d4d4d"/>
  <path d="M161.2 219.8c0 .8 1.3 1.6 3 1.6s3-.9 3-1.6-1.3-1.6-3-1.6-3 .8-3 1.6z" fill="#828282"/>
  <path d="M170.2 220.4v-.6c0-2.6-2.6-4.6-6-4.6s-6 2-6 4.6v.5c-.2 1.6.3 3.3 1.3 4.6 1.1 1.1 2.6 1.6 4.8 1.6 2.1 0 3.7-.5 4.7-1.6 1-1.3 1.4-2.9 1.2-4.5zm-6-2.2c1.7 0 3 .9 3 1.6s-1.3 1.6-3 1.6-3-.9-3-1.6 1.3-1.6 3-1.6z" fill="#4d4d4d"/>
  <path d="M144.2 220.1c0 .8 1.3 1.6 3 1.6s3-.9 3-1.6-1.3-1.6-3-1.6-3 .9-3 1.6zm-17 0c0 .8 1.3 1.6 3 1.6s3-.9 3-1.6-1.3-1.6-3-1.6-3 .9-3 1.6z" fill="#828282"/>
  <path d="M153.1 220.7v-.6c0-2.6-2.6-4.6-6-4.6s-6 2-6 4.6v.5c-.2 1.6.3 3.3 1.3 4.6 1.1 1.1 2.6 1.6 4.8 1.6 2.1 0 3.7-.5 4.7-1.6 1.1-1.3 1.5-2.9 1.2-4.5zm-6-2.2c1.7 0 3 .9 3 1.6s-1.3 1.6-3 1.6-3-.9-3-1.6 1.3-1.6 3-1.6zm-11 1.6c0-2.6-2.6-4.6-6-4.6s-6 2-6 4.6v.5c-.2 1.6.3 3.3 1.3 4.6 1.1 1.1 2.6 1.6 4.8 1.6 2.1 0 3.7-.5 4.7-1.6 1-1.3 1.4-2.9 1.2-4.5v-.6zm-6-1.6c1.7 0 3 .9 3 1.6s-1.3 1.6-3 1.6-3-.9-3-1.6 1.4-1.6 3-1.6z" fill="#4d4d4d"/>
  <path d="M172 202.9c0-.8-1.3-1.6-3-1.6s-3 .9-3 1.6 1.3 1.6 3 1.6 3-.9 3-1.6zm-22.9.3c0 .8 1.3 1.6 3 1.6s3-.9 3-1.6-1.3-1.6-3-1.6-3 .9-3 1.6zm-17 0c0 .8 1.3 1.6 3 1.6s3-.9 3-1.6-1.3-1.6-3-1.6-3 .9-3 1.6zm40.5-16.1c0 .8 1.3 1.6 3 1.6s3-.9 3-1.6-1.3-1.6-3-1.6-3 .8-3 1.6zm-17.1.3c0 .8 1.3 1.6 3 1.6s3-.9 3-1.6-1.3-1.6-3-1.6-3 .9-3 1.6zm-14 1.7c1.7 0 3-.9 3-1.6s-1.3-1.6-3-1.6-3 .9-3 1.6 1.3 1.6 3 1.6z" fill="#828282"/>
  <path d="M175 202.9c0-2.6-2.6-4.6-6-4.6s-6 2-6 4.6v.5c-.2 1.6.3 3.3 1.3 4.6 1.3 1.2 3.1 1.8 4.8 1.6 2.1 0 3.7-.5 4.7-1.6 1-1.3 1.4-2.9 1.2-4.5v-.6zm-5.9-1.6c1.7 0 3 .9 3 1.6s-1.3 1.6-3 1.6-3-.9-3-1.6 1.3-1.6 3-1.6zm-11.1 1.9c0-2.6-2.6-4.6-6-4.6s-6 2-6 4.6v.5c-.2 1.6.3 3.3 1.3 4.6 1.3 1.2 3.1 1.8 4.8 1.6 2.1 0 3.7-.5 4.7-1.6 1-1.3 1.4-2.9 1.2-4.5v-.6zm-6-1.6c1.7 0 3 .9 3 1.6s-1.3 1.6-3 1.6-3-.9-3-1.6 1.3-1.6 3-1.6zm-11 1.6c0-2.6-2.6-4.6-6-4.6s-6 2-6 4.6v.5c-.2 1.6.3 3.3 1.3 4.6 1.3 1.2 3.1 1.8 4.8 1.6 2.1 0 3.7-.5 4.7-1.6 1-1.3 1.4-2.9 1.2-4.5v-.6zm-6-1.6c1.7 0 3 .9 3 1.6s-1.3 1.6-3 1.6-3-.9-3-1.6 1.3-1.6 3-1.6zm46.5-13.9v-.6c0-2.6-2.6-4.6-6-4.6s-6 2-6 4.6v.5c-.2 1.6.3 3.3 1.3 4.6 1.1 1.1 2.6 1.6 4.8 1.6 2.1 0 3.7-.5 4.7-1.6 1.1-1.3 1.5-2.9 1.2-4.5zm-6-2.2c1.7 0 3 .9 3 1.6s-1.3 1.6-3 1.6-3-.9-3-1.6 1.3-1.6 3-1.6zm-11 2.5v-.6c0-2.6-2.6-4.6-6-4.6s-6 2-6 4.6v.5c-.2 1.6.3 3.3 1.3 4.6 1.1 1.1 2.6 1.6 4.8 1.6 2.1 0 3.7-.5 4.7-1.6 1-1.3 1.5-2.9 1.2-4.5zm-6-2.2c1.7 0 3 .9 3 1.6s-1.3 1.6-3 1.6-3-.9-3-1.6 1.3-1.6 3-1.6zm-11 2.2v-.6c0-2.6-2.6-4.6-6-4.6s-6 2-6 4.6v.5c-.2 1.6.3 3.3 1.3 4.6 1.1 1.1 2.6 1.6 4.8 1.6 2.1 0 3.7-.5 4.7-1.6 1-1.3 1.5-2.9 1.2-4.5zm-6-2.2c1.7 0 3 .9 3 1.6s-1.3 1.6-3 1.6-3-.9-3-1.6 1.3-1.6 3-1.6zm-39.6 55.6zm.1-.3c0 .1 0 .2-.1.2.1-.1.1-.2.1-.2zm-.1.9v-.2.2zm94.8-119.7l21.9-.1c1.1 0 2-.9 2-2s-.9-2-2-2l-21.9.1c-1.1 0-2 .9-2 2s.9 2 2 2zm21.8 3.1H199c-1.1 0-2 .9-2 2s.9 2 2 2h19.5c1.1 0 2-.9 2-2s-.8-2-2-2zM161 145.3l56 .1c1.1 0 2-.9 2-2s-.9-2-2-2l-56-.1c-1.1 0-2 .9-2 2s.9 2 2 2zm56.1 6.3c0-1.1-.9-2-2-2h-55.3c-1.1 0-2 .9-2 2s.9 2 2 2h55.3c1.1 0 2-.9 2-2zm-2.2 8.8c0-1.1-.9-2-2-2h-55.3c-1.1 0-2 .9-2 2s.9 2 2 2h55.3c1.1 0 2-.9 2-2zm-167.5-65v.2c-.1-.1 0-.2 0-.2zm0-.4zm-.1.8c0 .1-.1.2-.1.2 0-.1 0-.2.1-.2zM46 93.2c.1 0 .2.1.3.1-.1 0-.2 0-.3-.1zm-.3-.1h.2c-.1.1-.2 0-.2 0zm1.6 1.6c-.1-.6-.5-1.1-1-1.3.6.3.9.8 1 1.3z" fill="#4d4d4d"/>
  <path d="M66 93.1c-1.1-.2-2.1.5-2.3 1.6-.9-.6-2.2-.3-2.8.6-.1.2-.2.3-.2.5-.2.9-.6 1.8-1.2 2.6l-.3-.3c.3-.9.4-1.8.2-2.8-.2-1.1-1.2-1.8-2.3-1.7-.6.2-1.1.5-1.5.9-.7.9-1 2.1-.8 3.3-.4.5-1 .9-1.6 1.1H53c-.4-.3-.8-2.1-.7-3.9.1-1.1-.8-2-1.9-2.1-.8 0-1.6.4-1.9 1.2-.6 1.2-1.2 2.3-2.1 3.3.2-.5.4-1 .7-1.4v-.1c0-.1.1-.2.1-.2v-1.1c-.1-.6-.5-1.1-1-1.3h-.1c-.1 0-.2-.1-.3-.1H45c-1.3.1-2.6.3-3.8.5 1.9-5 1.9-7.9 0-9.3-3-2.3-8.4 1.4-11.4 3.9-.9.7-1.1 1.9-.4 2.8.7.9 1.9 1.1 2.8.4l.1-.1c2.3-1.9 5.1-3.5 6.3-3.7 0 .7-.2 2.6-2.2 7.1-2.6.7-5.2 1.6-7.6 2.7-8.2 3.5-8.6 9.5-7.7 12.2.1.4.4.7.8 1 1 .6 2.2 1 3.5.9.8 0 1.5-.1 2.2-.3 4.2-1.2 8.1-5.6 11.7-13 1-.2 1.9-.4 2.7-.6-.4 1.1-.3 2.3.1 3.3.4.9 1.3 1.5 2.3 1.7 1.8.3 3.5-.8 4.7-2.2.3.7.8 1.3 1.3 1.7.7.6 1.6.9 2.5.8.5 0 .9-.1 1.3-.2h.1c.8-.3 1.6-.7 2.3-1.3.7.6 1.6 1 2.6 1h.4c.9-.1 1.7-.5 2.4-1.1.4.4 1 .7 1.6.7 1.6 0 2.9-1.1 3.8-6.6.4-1.1-.3-2.2-1.4-2.4zm-39.2 14.2c-.6.2-1.2.3-1.9.2-.1-1.3.5-4.2 5.6-6.4 1.2-.5 2.4-1 3.6-1.4-3.1 5.5-5.8 7.1-7.3 7.6zM61.5 39l13.1 1.5h.2c1.1 0 2-.9 2-2 0-1-.8-1.9-1.8-2L61.9 35c-1.1-.1-2.1.7-2.2 1.8-.1 1.1.7 2 1.8 2.2zm-.8 7.9l13.2 1.4h.2c1.1 0 2-.9 2-2 0-1-.8-1.9-1.8-2L61.2 43c-1.1-.1-2.1.7-2.2 1.8-.2 1 .6 2 1.7 2.1zm-31 8.5l42.5 5.3h.3c1.1 0 2-.9 2-2 0-1-.8-1.9-1.8-2l-42.5-5.3c-1.1-.1-2.1.7-2.2 1.8-.1 1.1.6 2 1.7 2.2zm-.8 9.1l42.5 5.2h.2c1.1 0 2-.9 2-2 0-1-.8-1.9-1.8-2l-42.5-5.2c-1.1-.1-2.1.6-2.2 1.7-.1 1.1.7 2.1 1.8 2.3zm43.8 12.4c.1-1.1-.6-2.1-1.7-2.2l-42.5-5.2c-1.1-.1-2.1.6-2.2 1.7s.6 2.1 1.7 2.2l42.5 5.2h.2c1.1.1 1.9-.7 2-1.7z" fill="#4d4d4d"/>
  <path d="M243 226.8c-.5-.4-1.1-.6-1.7-.7l-31.8 31.1c.4.3.8.6 1.2 1 .4.4.7.8 1 1.2l31.8-31.1c.1-.5-.1-1.1-.5-1.5zm3.7-1.6l3-2.9c.6-.6.6-1.6 0-2.2s-1.6-.6-2.2 0l-3 2.9c.5.3 1 .6 1.4 1 .3.3.6.7.8 1.2z" fill="#aed7f0"/>
  <path d="M208.6 262.4c.1-.4-.3-1-.7-1.4-.3-.4-.7-.6-1.1-.7-.1 0-.2 0-.3.1l-1.4 3.5 3.5-1.5z" fill="#cbcbcb"/>
  <path d="M210.6 265.9zm.4-.2c-.1.1-.2.1-.3.2.1-.1.2-.2.3-.2zm.3-.3s-.1.1-.2.1c.1 0 .1 0 .2-.1zm-8.2-7.5l.1-.1c0 .1-.1.1-.1.1zm-.2.4c0-.1.1-.2.1-.3 0 .1 0 .2-.1.3zm44.8-30.3c-.1 0-.2-.1-.2-.2v.4l.2-.2z" fill="#4d4d4d"/>
  <path d="M252.5 225.1c2.2-2.1 2.2-5.7.1-7.9s-5.7-2.2-7.9-.1l-14 13.7 13.4-31.1c.1-.3.2-.5.2-.8l-.2-43.4v-.1c-.3-4.1-4.3-5.3-6.9-5.2h-11.1c3.1-15 3.9-30.5 1.7-40.1l-.4-1.6-77.8 1.2.5 2.4c1.8 8.4 2 23.6-1.3 38.4-.3-.2-.7-.3-1.1-.3-1.8.1-3.6.5-5.3 1.3-.5.2-1 .5-1.5.8l-1.5-.9c-6.2-3.3-12-3.6-19.5-1.2-1.4.4-21.4 6.8-32.5 40.1-13 38.9-4.7 50.6-2 53.2-.3.2-.5.4-.7.7-.4.7-3.9 7.2-1.7 12.2 1.1 2.3 3.3 4 5.8 4.4 1.1.3 2.2.4 3.3.4 6.8 0 12.2-4.8 14-6.6 1.3 1.4 3.2 2.2 5.1 2.2H204l-.6.5-.2.2-.1.1v.1c-.1.1-.1.2-.1.3l-3.4 8.4c-.4 1 .1 2.2 1.1 2.6.2.1.5.1.8.1.3 0 .5 0 .8-.1l8.5-3.4c.1 0 .2-.1.3-.2.1 0 .1-.1.1-.1.1 0 .1-.1.2-.1L233 244c.6.4 1.3.7 2 .7.3 0 .6 0 .9-.1.3-.1.7-.3.9-.5l15.1-14.7c.2-.2.4-.5.5-.9.4-1 .2-2.2-.4-3.1l.5-.3zM154.7 139c1-8.4.9-16.9-.2-25.2l69.8-1.1c2 11 .6 31.3-5.4 49.8-.4 1.3-.8 2.5-1.3 3.8h-69.4c3.3-8.8 5.6-17.9 6.5-27.3zm-63.6 52.8c5.5-16.6 13.4-25.9 19-30.8 6-5.3 10.8-6.7 10.9-6.8h.1c6.6-2.2 11.3-1.9 16.7 1-.9 1.1-1.7 2.4-2.2 3.8l-3.2 7.8-2.6 6.5c-2.9-1.6-6.3-1.8-8.3-.8l-.1.1c-7 4.3-15.7 23.6-16.2 33.4-.3 1.9.3 3.8 1.6 5.2 1.2 1.1 2.8 1.6 4.4 1.3l2.7-.2-2 4.8L102 241c0 .1 0 .1-.1.2v1l.9 3.4c-5.8-.3-12-2.7-14.6-4.8-.4-.2-10.5-8.9 2.9-49zm23.3 16.3l-3.6.3c-.4.1-.9 0-1.3-.2-.4-.6-.5-1.3-.4-2.1.6-10.7 9.6-27.2 14.2-30.1 1.7-.3 3.4.1 4.8 1l-12.7 31.1c-.3-.1-.6-.1-1 0zm-10.6 43.4c-.1.1-6.5 7.4-14.1 5.6-1.3-.2-2.5-1-3.1-2.2-1.2-2.7.7-7.1 1.5-8.6.1-.2.2-.4.2-.7 4.8 2.5 10.2 3.9 15.6 4l.4 1.3c-.2.3-.4.5-.5.6zm7.4 1.6c-1.3 0-2.5-.9-2.9-2.2l-2.2-8.4-.1-.6 33.2-81.5c1.4-3.6 4.8-6 8.6-6.1-1.1 4.1-2.5 8.1-4.2 12h-2.2c-1.1 0-2 .9-2 2s.9 2 2 2h84.3c1.1 0 2-.9 2-2s-.9-2-2-2h-4.1c1.3-3.8 2.5-7.9 3.5-12 .2.1.4.1.6.1h11.5c.3 0 2.4-.1 2.7 1.3v.1l.2 42.9-17.2 39.7-14.9 14.7h-96.8zm93.8 10.7l1.4-3.5c.1 0 .2-.1.3-.1.4.1.9.3 1.1.7.4.4.8 1 .7 1.4l-3.5 1.5zm6.7-4.4c-.3-.4-.6-.8-1-1.2-.4-.4-.8-.7-1.2-1l31.8-31.1c.6 0 1.2.3 1.7.7.4.4.5 1 .5 1.5l-31.8 31.1zm35.8-31.2v-.4c.1.1.2.1.2.2l-.2.2zm2.2-5.9l-3 2.9c-.2-.4-.5-.8-.9-1.2-.4-.4-.9-.8-1.4-1l3-2.9c.6-.6 1.6-.6 2.2 0s.7 1.6.1 2.2z" fill="#4d4d4d"/>
</svg>
