<?xml version="1.0"?>
<svg xmlns="http://www.w3.org/2000/svg" viewBox="0 0 330 232">
  <path d="M177 77.9c.1-2.5-.2-7-2.7-9.9-1.6-1.8-3.9-2.7-6.9-2.7-2.2-.1-4.4.7-5.9 2.4-2.6 2.9-2.8 7.7-2.8 10.2H177zm-69 28.6l-6.7-37 6.7 37zm160.4 64.7zm-.1 51.2c-4.1-.5-7.9-1-11.4-1.8 3.8.8 7.6 1.4 11.4 1.8zm51.1-2.1c-4 1-8.1 1.8-12.2 2.2 4.1-.4 8.2-1.1 12.2-2.2z" fill="none"/>
  <path d="M82.1 188.4c-3.9 0-7-3.1-7.1-7 0-3.9 3.1-7 7-7.1s7 3.1 7.1 7c0 3.2-2.2 6-5.3 6.8l26.5-4.8c6.2-1.1 10.4-7.1 9.2-13.3L108 106.5l-6.7-37-2.1-11.4-2.6-14.3c-1-5.4-5.7-9.4-11.2-9.4-.7 0-1.4.1-2.1.2l-53.9 9.7c-6.2 1.1-10.4 7.1-9.2 13.3l15.6 86.3c.4-.1.8-.3 1.3-.4L22.8 64.1c-.4-2 1-4 3-4.3l66.4-12c2-.4 4 1 4.3 3l20.5 113c.4 2-1 4-3 4.3l-50.3 9.1c-1.2 3.9-2.9 7.5-4.7 9.1 0 4.7 1.9 5.3 3.6 5.8l20.2-3.7h-.7zM56.9 42.3c.4-.1.9.2.9.7s-.2.9-.7.9c-.4.1-.9-.2-.9-.7 0-.4.3-.8.7-.9zM45.5 52c-.7.1-1.3-.3-1.4-1s.3-1.3 1-1.4 1.3.3 1.4 1c.1.7-.4 1.3-1 1.4zm19.1-4l-12.8 2.3c-.3.1-.6-.2-.7-.5v-.1c-.1-.3.2-.6.5-.7l12.8-2.3c.3-.1.6.2.7.5v.1c0 .3-.2.6-.5.7z" fill="#cbcbcb"/>
  <path d="M85 180.9c-.3-1.4-1.5-2.4-2.9-2.4h-.5c-1.6.3-2.7 1.8-2.4 3.4.3 1.6 1.8 2.7 3.4 2.4 1.6-.2 2.7-1.8 2.4-3.4z" fill="#cbcbcb"/>
  <path d="M69 158l-3.7 5.9c0 1.2.1 2.4.1 3.6 0 .8-.1 1.6-.1 2.4l5.8-9.3c-.9-.7-1.6-1.6-2.1-2.6zm20.1-27.9c-.7-.5-1.3-1-1.8-1.7l-10.1 16.3c1.1 0 2.2.2 3.3.6l9.3-14.9c-.3-.1-.5-.2-.7-.3zm-21.6-38c-.5 0-.9 0-1.4.1-4.3.8-7.2 4.9-6.4 9.3.8 4.3 4.9 7.1 9.1 6.4.1 0 .2 0 .3-.1l6-9.9c-.9-3.4-4-5.7-7.6-5.8zm-3.7 6c-.1-.5.3-1 .8-1.1.5-.1 1 .3 1.1.8.1.5-.3 1-.8 1.1-.5.1-1-.3-1.1-.8zm1.2 1.3c.5-.1 1 .3 1.1.8s-.3 1-.8 1.1c-.5.1-1-.3-1.1-.8 0-.5.3-1 .8-1.1zm.7 4.3c-.5.1-1-.3-1.1-.8s.3-1 .8-1.1c.5-.1 1 .3 1.1.8.1.5-.2 1-.8 1.1zm.4-6c-.1-.5.3-1 .8-1.1.5-.1 1 .3 1.1.8.1.5-.3 1-.8 1.1-.5 0-1-.3-1.1-.8zm1.3 1.3c.5-.1 1 .3 1.1.8s-.3 1-.8 1.1c-.5.1-1-.3-1.1-.8-.1-.5.2-1 .8-1.1zm.7 4.3c-.5.1-1-.3-1.1-.8s.3-1 .8-1.1c.5-.1 1 .3 1.1.8.1.5-.3 1-.8 1.1zm.4-6c-.1-.5.3-1 .8-1.1.5-.1 1 .3 1.1.8.1.5-.3 1-.8 1.1-.5 0-1-.3-1.1-.8zm.4 2.4c-.1-.5.3-1 .8-1.1.5-.1 1 .3 1.1.8.1.5-.3 1-.8 1.1-.5 0-1-.3-1.1-.8zm1.5 3.2c-.5.1-1-.3-1.1-.8-.1-.5.3-1 .8-1.1.5-.1 1 .3 1.1.8.1.5-.2 1-.8 1.1zm-25-6.8c-4.4 0-7.9 3.6-8 7.9 0 4.4 3.6 7.9 7.9 8 4.4 0 7.9-3.6 8-7.9 0-.5 0-.9-.1-1.4-.7-3.9-4-6.6-7.8-6.6zm3.6 11.3c-.2.2-.5.2-.7-.1l-1.2-1.4c-.2.1-.4.3-.6.3l.1.5.7-.1c.3 0 .5.2.6.4 0 .3-.1.5-.4.6l-1.2.2-1.2.2H45c-.3 0-.5-.2-.5-.5 0-.2.2-.4.4-.5l.7-.1-.1-.5h-.1c-.5 0-1.1-.2-1.5-.5-.7-.8-1.1-1.9-1.1-3 0-.3.2-.5.5-.5s.5.2.5.5c0 .8.2 1.6.7 2.2.3.3.8.4 1.2.3.2 0 .4-.1.6-.2l-.3-.3c-.6.4-1.3.2-1.7-.4-.1-.1-.1-.3-.2-.5l-.3-1.7-1.6-1.9c-.2-.2-.1-.5.1-.7.2-.2.5-.1.7.1l.8.9c.2-.4.5-.6.9-.7.7-.1 1.3.3 1.4 1l.5 2.6v.3l.3.3c.1-.6 0-1.3-.2-1.9-.1-.3 0-.5.3-.6s.5 0 .6.3c.4 1 .4 2.1 0 3.1l1.3 1.5c.3.3.3.6.1.8zm41.3 22.2l2.1-3.3-.7.1c.3-.7.8-1.2 1.5-1.4l.5-.7c0-.1 0-.3-.1-.4-.2 0-.4-.3-.5-.8 0 0-.6-.6-.3-.9-.3-.4-.4-.9-.2-1.4.2-.4.4-.7.7-.7.5-.3 1.2-.3 1.7.1.4.2.4 1.4.4 1.4l3.3-5.3c-.9-.6-1.9-1-3-1.2l-7.8 12.6c.6.6 1.4 1.4 2.4 1.9zm-40.1-7c-.5 0-.9 0-1.4.1-4.3.8-7.2 4.9-6.4 9.2.7 4 4.3 6.8 8.3 6.6l6.8-11.2c-1.4-2.9-4.2-4.7-7.3-4.7zm2.9 7.9l-2.4.4.4 2.4c0 .3-.1.5-.4.6h-.1c-.2 0-.4-.2-.5-.4l-.4-2.4-2.3.4h-.1c-.3 0-.5-.2-.5-.5 0-.2.2-.4.4-.5l2.3-.4-.4-2.4c0-.3.1-.5.4-.6.3 0 .5.1.6.4l.4 2.4 2.4-.4c.3 0 .5.1.6.4.1.3-.1.6-.4.6z" fill="#4d4d4d"/>
  <path d="M117 163.7l-20.5-113c-.4-2-2.3-3.4-4.3-3l-66.4 12c-2 .4-3.4 2.3-3 4.3l14.4 79.5c.6-.2 1.3-.3 1.9-.5s1.3-.3 2-.4c2-.3 4-.4 6-.3.3 0 .7.1 1 .1l1.8-3c-4.9-.1-8.9-4.1-8.8-9.1s4.1-8.9 9.1-8.8c3.2.1 6.2 1.8 7.7 4.7L68.5 109c-.3 0-.7.1-1 .1-4.9 0-8.9-4-8.9-9s4-8.9 9-8.9c3.7 0 7 2.3 8.3 5.7l19.3-31.7 1.6-2.6 1.5-2.4 7 38.5-.2.4.1.7-1.3 2-1.6 2.5-6 9.7c1 .2 2 .7 2.9 1.3l3.9-6.3 1.6-2.5 1.5-2.4 1.9 10.7-.2.4.1.6-1.2 2-1.6 2.5-1.9 3.1c-.2 2.9-1.8 5.5-4.3 7l-12.9 20.9c1.4 4.8-1.3 9.9-6.1 11.3-.3.1-.7.2-1 .2l-5.2 8.4-1.4 2.3-1.1 1.8-7.1 1.3c-.1.2-.1.4-.2.5l50-9.1c2-.4 3.4-2.3 3-4.3zm-64.3-54.6c-1.4 1.9-3.4 3.3-5.8 3.7-4.9.9-9.5-2.4-10.4-7.3-.9-4.9 2.4-9.5 7.3-10.4 4.9-.9 9.5 2.4 10.4 7.3.4 2.4-.1 4.8-1.5 6.7zM140.6 97h.3c1.3-.2 2.6-.4 3.9-.5 1.1-.1 1.9-1.1 1.8-2.2s-1.1-1.9-2.2-1.8c-1.4.2-2.7.3-4 .5-1.1.2-1.9 1.2-1.7 2.3 0 1 .9 1.7 1.9 1.7zm-21.3 5.5c.3 0 .5-.1.8-.2 1.1-.5 2.3-.9 3.6-1.4 1-.4 1.6-1.5 1.2-2.6-.4-1-1.5-1.6-2.5-1.2-1.4.5-2.7 1-3.9 1.5-1 .4-1.5 1.6-1.1 2.6.4.8 1.1 1.3 1.9 1.3zm10.5-3.4c.2 0 .3 0 .5-.1 1.2-.3 2.5-.6 3.8-.9 1.1-.2 1.8-1.2 1.6-2.3-.2-1.1-1.2-1.8-2.3-1.6h-.1c-1.4.3-2.7.6-4 .9-1.1.3-1.7 1.3-1.5 2.4.3 1 1.1 1.6 2 1.6zm65.2-.9c1.3.2 2.6.5 3.9.8 1.1.2 2.1-.5 2.3-1.6.2-1-.4-2-1.5-2.3-1.3-.3-2.6-.6-4-.8-1.1-.2-2.1.6-2.3 1.6-.1 1 .5 2 1.6 2.3zm19.5 3.5c-.5 1 0 2.2 1 2.7 1.2.6 2.4 1.2 3.4 1.8 1 .5 2.2.2 2.7-.7s.2-2.2-.7-2.7c-1.2-.7-2.4-1.3-3.7-1.9-1-.6-2.2-.2-2.7.8zm-9-1c1.3.4 2.5.8 3.7 1.2 1 .4 2.2-.2 2.6-1.2s-.2-2.2-1.2-2.6h-.1c-1.3-.4-2.6-.9-3.9-1.2-1.1-.3-2.2.3-2.5 1.3-.3 1 .3 2.1 1.4 2.5z" fill="#4d4d4d"/>
  <path d="M15.4 64.5c.2 1.1 1.2 1.9 2.4 1.9l.7 3.9c-.5.2-.9.5-1.2.9-.3.5-.5 1.1-.4 1.7L19 84.5c.1.7.6 1.4 1.3 1.7l-.3.3c-.4.5-.5 1.1-.4 1.7l2.1 11.6c.2 1.1 1.2 1.9 2.3 1.9l8 44c.6-.3 1.2-.7 1.8-.9.6-.3 1.3-.5 1.9-.8L20.3 57.7c-1.1-6.2 3-12.2 9.2-13.3l53.9-9.7c.7-.1 1.4-.2 2.1-.2 5.5 0 10.3 4 11.2 9.4l2.6 14.3 2.1 11.4 6.7 37 11.5 63.5c1.1 6.2-3 12.2-9.2 13.3l-26.5 4.8c-.2 0-.3.1-.5.1s-.4.1-.5.1L62.7 192c.4.1.8.3 1.2.4.7.2 2.2.7 3.9 1.3.8.3 1.6.6 2.5.9l40.7-7.4c8.4-1.5 14-9.6 12.5-18l-11.3-62.4c.7-.6 1.3-1.1 2.1-1.6.9-.6 1.2-1.8.6-2.8-.6-.9-1.8-1.2-2.8-.6-.2.1-.4.3-.7.5l-5.7-31.4c.9-.5 1.3-1.5 1.1-2.5L104.7 57c-.2-1-1-1.8-2-2l-2.2-12.1c-1.5-8.4-9.6-14-18-12.5l-53.9 9.8c-7.5 1.3-12.9 7.9-12.7 15.5-.6.2-1 .5-1.4 1-.4.5-.5 1.1-.4 1.7l1.3 6.1z" fill="#4d4d4d"/>
  <path d="M51.5 49.1l12.8-2.3c.3-.1.6.2.7.5v.1c.1.3-.2.6-.5.7l-12.8 2.3c-.3.1-.6-.2-.7-.5v-.1c0-.4.2-.7.5-.7zm5.7-5.2c.4-.1.7-.5.7-.9-.1-.4-.5-.7-.9-.7-.4.1-.7.5-.7.9.1.5.5.8.9.7zM45 49.6c-.7.1-1.1.8-1 1.4s.8 1.1 1.4 1c.7-.1 1.1-.8 1-1.4-.1-.6-.7-1.1-1.4-1zm42.8 135.8c2.2-3.1 1.4-7.5-1.7-9.6-3.1-2.2-7.5-1.4-9.6 1.7-2.2 3.1-1.4 7.5 1.7 9.6 1.2.8 2.5 1.2 3.9 1.2h.7l1-.2c1.7-.3 3.1-1.3 4-2.7zm-3.3-2.3c-.9 1.3-2.7 1.7-4.1.7-1.3-.9-1.7-2.7-.7-4.1.4-.6 1.1-1.1 1.9-1.2h.5c1.4 0 2.6 1 2.9 2.4.2.8 0 1.6-.5 2.2zm-1.1 5.2c.2 0 .3-.1.5-.1l-1 .2c.1-.1.3-.1.5-.1z" fill="#4d4d4d"/>
  <path d="M46.2 108zm1.6-.8c0-.3-.3-.5-.6-.4l-.7.1-.1-.5.6-.3 1.2 1.4c.2.2.5.2.7 0 .2-.2.2-.5.1-.7l-1.3-1.5c.3-1 .3-2.1 0-3.1-.1-.3-.4-.4-.6-.3s-.4.4-.3.6c.2.6.3 1.2.2 1.9l-.3-.3v-.3l-.5-2.6c-.1-.7-.7-1.1-1.4-1-.4.1-.7.3-.9.7l-.8-.9c-.2-.2-.5-.2-.7 0-.2.2-.2.5-.1.7l1.6 1.9.3 1.7c.1.7.7 1.1 1.4 1 .2 0 .3-.1.5-.2l.3.3c-.2.1-.4.2-.6.2-.4.1-.9 0-1.2-.3-.5-.6-.8-1.4-.7-2.2 0-.3-.2-.5-.5-.5s-.5.2-.5.5c0 1.1.3 2.2 1.1 3 .4.4.9.5 1.5.5h.1l.1.5-.7.1c-.3 0-.5.3-.4.6 0 .2.2.4.5.4h.1l1.2-.2 1.2-.2c.1-.1.3-.3.2-.6zm5.2 22.3l-2.4.4-.4-2.4c0-.3-.3-.5-.6-.4-.3 0-.5.3-.4.6l.4 2.4-2.3.4c-.3 0-.5.3-.4.6 0 .2.2.4.5.4h.1l2.3-.4.4 2.4c0 .2.2.4.5.4h.1c.3 0 .5-.3.4-.6l-.4-2.4 2.4-.4c.3 0 .5-.3.4-.6-.1-.2-.4-.4-.6-.4zm14.8-28.1c-.5.1-.9.6-.8 1.1.1.5.6.9 1.1.8.5-.1.9-.6.8-1.1-.1-.5-.6-.9-1.1-.8zm2.3-.4c-.5.1-.9.6-.8 1.1.1.5.6.9 1.1.8.5-.1.9-.6.8-1.1-.1-.6-.6-.9-1.1-.8zm-4.7.8c-.5.1-.9.6-.8 1.1.1.5.6.9 1.1.8.5-.1.9-.6.8-1.1-.1-.5-.6-.9-1.1-.8zm2.6-4.5c-.1-.5-.6-.9-1.1-.8-.5.1-.9.6-.8 1.1.1.5.6.9 1.1.8.6 0 .9-.5.8-1.1zm2.4-.4c-.1-.5-.6-.9-1.1-.8-.5.1-.9.6-.8 1.1.1.5.6.9 1.1.8.5-.1.8-.5.8-1.1zm-4.7.9c-.1-.5-.6-.9-1.1-.8-.5.1-.9.6-.8 1.1.1.5.6.9 1.1.8.5-.1.9-.6.8-1.1zm2 3.1c.5-.1.9-.6.8-1.1-.1-.5-.6-.9-1.1-.8-.5.1-.9.6-.8 1.1.1.5.6.9 1.1.8zm2.3-.4c.5-.1.9-.6.8-1.1-.1-.5-.6-.9-1.1-.8-.5.1-.9.6-.8 1.1.1.5.6.8 1.1.8zm-4.6.8c.5-.1.9-.6.8-1.1-.1-.5-.6-.9-1.1-.8-.5.1-.9.6-.8 1.1 0 .5.5.9 1.1.8z" fill="#fff"/>
  <path d="M43.8 95.2c-4.9.9-8.1 5.5-7.3 10.4s5.5 8.1 10.4 7.3c4.9-.9 8.1-5.5 7.3-10.4-.9-4.9-5.5-8.2-10.4-7.3zm8.1 13.4c-2.5 3.6-7.5 4.5-11.1 2s-4.5-7.5-2-11.1c2.5-3.6 7.5-4.5 11.1-2 1.7 1.2 2.9 3.1 3.3 5.1.4 2.1-.1 4.2-1.3 6z" fill="#fff"/>
  <path d="M86.1 152.3c-.1-.3-.1-.7-.2-1l-7.2 11.6c5-.9 8.3-5.7 7.4-10.6zm-13.3 4.4c-.2.1-.4 0-.5-.1-.2-.1-.3-.2-.4-.4v-.1c-.1-.2-.6-1.6-.2-2.1.9-1.2 3-1.8 4.8-2.2l4.1-6.5c-1-.4-2.2-.6-3.3-.6L69 158c.5 1 1.2 1.9 2 2.6l2.7-4.3c-.4.2-.8.4-.9.4z" fill="#e28888"/>
  <path d="M71.7 154.1c-.3.5.2 1.9.2 2.1v.1c.1.2.2.3.4.4.2.1.3.1.5.1.1 0 .5-.2.9-.3l2.8-4.4c-1.8.1-3.9.8-4.8 2z" fill="#fff"/>
  <path d="M102.2 104.3l-.1-.7-6.4 10.3c.2 0 .4.1.5.1l6-9.7z" fill="#4d4d4d"/>
  <path d="M102.2 104.3l-.1-.7-6.4 10.3c.2 0 .4.1.5.1l6-9.7z" opacity=".1" fill="#eee9e0"/>
  <path d="M87.3 128.4c-.1-.1-.2-.3-.3-.4l-10.4 16.8h.7l10-16.4z" fill="#4d4d4d"/>
  <path d="M87.3 128.4c-.1-.1-.2-.3-.3-.4l-10.4 16.8h.7l10-16.4z" opacity=".1" fill="#eee9e0"/>
  <path d="M95.1 114.8L87.6 127c.1.2.2.3.3.5l7.8-12.6c-.2 0-.4 0-.6-.1z" fill="#4d4d4d"/>
  <path d="M95.1 114.8L87.6 127c.1.2.2.3.3.5l7.8-12.6c-.2 0-.4 0-.6-.1z" opacity=".1" fill="#eee9e0"/>
  <path d="M68.7 157.4l-3.4 5.5v1L69 158l-.3-.6z" fill="#4d4d4d"/>
  <path d="M68.7 157.4l-3.4 5.5v1L69 158l-.3-.6z" opacity=".1" fill="#eee9e0"/>
  <path d="M103.8 101.8l1.2-2.1-.1-.7-1.2 2.1z" fill="#4d4d4d"/>
  <path d="M103.8 101.8l1.2-2.1-.1-.7-1.2 2.1z" opacity=".1" fill="#eee9e0"/>
  <path d="M102.1 103.6l.1.7 1.6-2.5-.1-.7z" fill="#4d4d4d"/>
  <path d="M102.1 103.6l.1.7 1.6-2.5-.1-.7z" opacity=".1" fill="#eee9e0"/>
  <path d="M95.6 114.9l.6-.9c-.2 0-.3-.1-.5-.1l-.6.9c.2.1.4.1.5.1zm-7.7 12.6c-.1-.1-.2-.3-.3-.5l-.6.9c.1.2.2.3.3.4l.6-.8z" fill="#fff"/>
  <path d="M76.6 144.7l-7.8 12.6.3.6 8.2-13.3c-.3.1-.5.1-.7.1z" fill="#e28888"/>
  <path d="M76.6 144.7l-7.8 12.6.3.6 8.2-13.3c-.3.1-.5.1-.7.1z" opacity=".1" fill="#eee9e0"/>
  <path d="M100.8 127.3c.6-.9 1-1.8 1.3-2.9l-2.8 4.5c.5-.4 1-1 1.5-1.6z" fill="#4d4d4d"/>
  <path d="M100.8 127.3c.6-.9 1-1.8 1.3-2.9l-2.8 4.5c.5-.4 1-1 1.5-1.6z" opacity=".1" fill="#eee9e0"/>
  <path d="M78.1 162.9l-5.3 8.4.7-.1 5.2-8.4c-.2.1-.4.1-.6.1z" fill="#4d4d4d"/>
  <path d="M78.1 162.9l-5.3 8.4.7-.1 5.2-8.4c-.2.1-.4.1-.6.1z" opacity=".1" fill="#eee9e0"/>
  <path d="M103.2 122.6v.9l1.9-3.1-.1-.6-1.8 2.8z" fill="#4d4d4d"/>
  <path d="M103.2 122.6v.9l1.9-3.1-.1-.6-1.8 2.8z" opacity=".1" fill="#eee9e0"/>
  <path d="M85.7 150.7c.1.2.1.4.2.6l12.9-20.9c-.3.2-.5.3-.8.4l-12.3 19.9z" fill="#4d4d4d"/>
  <path d="M85.7 150.7c.1.2.1.4.2.6l12.9-20.9c-.3.2-.5.3-.8.4l-12.3 19.9z" opacity=".1" fill="#eee9e0"/>
  <path d="M106.7 117.8l1.2-2-.1-.7-1.2 2z" fill="#4d4d4d"/>
  <path d="M106.7 117.8l1.2-2-.1-.7-1.2 2z" opacity=".1" fill="#eee9e0"/>
  <path d="M72.1 173.6l-.7.1-.5.8-6.8 1.2-.3.9 7.1-1.3 1.2-1.7z" fill="#4d4d4d"/>
  <path d="M72.1 173.6l-.7.1-.5.8-6.8 1.2-.3.9 7.1-1.3 1.2-1.7z" opacity=".1" fill="#eee9e0"/>
  <path d="M105 119.7l.1.6 1.6-2.5-.1-.7z" fill="#4d4d4d"/>
  <path d="M105 119.7l.1.6 1.6-2.5-.1-.7z" opacity=".1" fill="#eee9e0"/>
  <path d="M71.4 173.7l.7-.1 1.4-2.3-.7.1z" fill="#4d4d4d"/>
  <path d="M71.4 173.7l.7-.1 1.4-2.3-.7.1z" opacity=".1" fill="#eee9e0"/>
  <path d="M102 124.4c-.4 1.8-1.4 3.4-2.8 4.5l-1.2 1.9c.3-.1.5-.3.8-.4l4.3-7v-.9l-1.1 1.9z" fill="#fff"/>
  <path d="M78.1 162.9c.2 0 .4 0 .6-.1l7.2-11.6c-.1-.2-.1-.4-.2-.6l-7.6 12.3z" fill="#e28888"/>
  <path d="M78.1 162.9c.2 0 .4 0 .6-.1l7.2-11.6c-.1-.2-.1-.4-.2-.6l-7.6 12.3z" opacity=".1" fill="#eee9e0"/>
  <path d="M50.2 139.5h-.1l-1.8 3c.3 0 .5 0 .8.1l1.9-3.1h-.8z" fill="#4d4d4d"/>
  <path d="M50.2 139.5h-.1l-1.8 3c.3 0 .5 0 .8.1l1.9-3.1h-.8z" opacity=".1" fill="#eee9e0"/>
  <path d="M75.4 98.7c0-.3-.1-.5-.2-.8l-6 9.9c.3-.1.6-.1.9-.2l5.3-8.8v-.1z" fill="#4d4d4d"/>
  <path d="M75.4 98.7c0-.3-.1-.5-.2-.8l-6 9.9c.3-.1.6-.1.9-.2l5.3-8.8v-.1z" opacity=".1" fill="#eee9e0"/>
  <path d="M95.3 65.9l-.1-.8-19.3 31.7c.1.2.2.5.3.8l19.1-31.7z" fill="#4d4d4d"/>
  <path d="M95.3 65.9l-.1-.8-19.3 31.7c.1.2.2.5.3.8l19.1-31.7z" opacity=".1" fill="#eee9e0"/>
  <path d="M57.4 127.3l-6.8 11.2c.3 0 .6 0 .9-.1l6.2-10.3c-.1-.3-.2-.6-.3-.8z" fill="#4d4d4d"/>
  <path d="M57.4 127.3l-6.8 11.2c.3 0 .6 0 .9-.1l6.2-10.3c-.1-.3-.2-.6-.3-.8z" opacity=".1" fill="#eee9e0"/>
  <path d="M69.3 108.8c-.1 0-.2 0-.2.1-.2 0-.4.1-.6.1L58 126.3c.1.2.2.5.3.7l11-18.2z" fill="#4d4d4d"/>
  <path d="M69.3 108.8c-.1 0-.2 0-.2.1-.2 0-.4.1-.6.1L58 126.3c.1.2.2.5.3.7l11-18.2z" opacity=".1" fill="#eee9e0"/>
  <path d="M98.1 61.3l6.8 37.7.3-.4-7.1-38.5-1.4 2.4.1.8z" fill="#4d4d4d"/>
  <path d="M98.1 61.3l6.8 37.7.3-.4-7.1-38.5-1.4 2.4.1.8z" opacity=".1" fill="#eee9e0"/>
  <path d="M96.8 63.3l-.1-.8-1.6 2.6.2.8z" fill="#4d4d4d"/>
  <path d="M96.8 63.3l-.1-.8-1.6 2.6.2.8z" opacity=".1" fill="#eee9e0"/>
  <path d="M57.7 128l.7-1.1c-.1-.2-.2-.5-.3-.7l-.6 1c0 .3.1.6.2.8zm-6.9 11.4l.7-1.1c-.3 0-.6.1-.9.1l-.6 1h.1c.3.1.5.1.7 0zm24.6-40.7v.1l.7-1.2c-.1-.3-.2-.5-.3-.8l-.6 1.2c0 .2.1.5.2.7zm-6.1 10.1l.7-1.2c-.3.1-.6.2-.9.2l-.7 1.1c.2 0 .4 0 .6-.1.2.1.2.1.3 0z" fill="#fff"/>
  <path d="M74 104.6c1.2-1.7 1.7-3.8 1.3-5.8l-5.3 8.8c1.7-.5 3.1-1.6 4-3z" fill="#4d4d4d"/>
  <path d="M74 104.6c1.2-1.7 1.7-3.8 1.3-5.8l-5.3 8.8c1.7-.5 3.1-1.6 4-3z" opacity=".1" fill="#eee9e0"/>
  <path d="M74 104.6c1.2-1.7 1.7-3.8 1.3-5.8l-5.3 8.8c1.7-.5 3.1-1.6 4-3z" opacity=".1" fill="#eee9e0"/>
  <path d="M68.1 155.4c-.9-5 2.4-9.7 7.4-10.6.3-.1.7-.1 1-.1L87 127.9c-2.9-4-2-9.6 2.1-12.5 1.9-1.4 4.3-1.9 6.6-1.6l6.4-10.3-6.8-37.7-19.2 31.8c.1.3.2.6.2.9.8 4.8-2.3 9.4-7 10.3L58.4 127c2 4.5-.1 9.8-4.6 11.7-.9.4-1.9.7-3 .7l-1.9 3.1c4.4.5 8.2 2 10.8 4.2 4.1 3.6 5.3 9.5 5.6 16.1l3.4-5.5c-.2-.5-.4-1.2-.6-1.9zm19.8-68c4.9-.9 9.5 2.4 10.4 7.3s-2.4 9.5-7.3 10.4c-4.9.9-9.5-2.4-10.4-7.3-.8-4.9 2.5-9.5 7.3-10.4zm-24.4 40.8c-.9-4.9 2.4-9.5 7.3-10.4s9.5 2.4 10.4 7.3-2.4 9.5-7.3 10.4c-2.3.4-4.7-.1-6.7-1.5s-3.3-3.5-3.7-5.8z" fill="#4d4d4d"/>
  <path d="M68.1 155.4c-.9-5 2.4-9.7 7.4-10.6.3-.1.7-.1 1-.1L87 127.9c-2.9-4-2-9.6 2.1-12.5 1.9-1.4 4.3-1.9 6.6-1.6l6.4-10.3-6.8-37.7-19.2 31.8c.1.3.2.6.2.9.8 4.8-2.3 9.4-7 10.3L58.4 127c2 4.5-.1 9.8-4.6 11.7-.9.4-1.9.7-3 .7l-1.9 3.1c4.4.5 8.2 2 10.8 4.2 4.1 3.6 5.3 9.5 5.6 16.1l3.4-5.5c-.2-.5-.4-1.2-.6-1.9zm19.8-68c4.9-.9 9.5 2.4 10.4 7.3s-2.4 9.5-7.3 10.4c-4.9.9-9.5-2.4-10.4-7.3-.8-4.9 2.5-9.5 7.3-10.4zm-24.4 40.8c-.9-4.9 2.4-9.5 7.3-10.4s9.5 2.4 10.4 7.3-2.4 9.5-7.3 10.4c-2.3.4-4.7-.1-6.7-1.5s-3.3-3.5-3.7-5.8z" opacity=".1" fill="#eee9e0"/>
  <path d="M68.1 155.4c-.9-5 2.4-9.7 7.4-10.6.3-.1.7-.1 1-.1L87 127.9c-2.9-4-2-9.6 2.1-12.5 1.9-1.4 4.3-1.9 6.6-1.6l6.4-10.3-6.8-37.7-19.2 31.8c.1.3.2.6.2.9.8 4.8-2.3 9.4-7 10.3L58.4 127c2 4.5-.1 9.8-4.6 11.7-.9.4-1.9.7-3 .7l-1.9 3.1c4.4.5 8.2 2 10.8 4.2 4.1 3.6 5.3 9.5 5.6 16.1l3.4-5.5c-.2-.5-.4-1.2-.6-1.9zm19.8-68c4.9-.9 9.5 2.4 10.4 7.3s-2.4 9.5-7.3 10.4c-4.9.9-9.5-2.4-10.4-7.3-.8-4.9 2.5-9.5 7.3-10.4zm-24.4 40.8c-.9-4.9 2.4-9.5 7.3-10.4s9.5 2.4 10.4 7.3-2.4 9.5-7.3 10.4c-2.3.4-4.7-.1-6.7-1.5s-3.3-3.5-3.7-5.8z" opacity=".1" fill="#eee9e0"/>
  <path d="M94.3 114.8c-4.4 0-7.9 3.6-7.9 7.9 0 .5 0 .9.1 1.4.2 1 .6 2 1.1 2.9l7.5-12.2h-.8z" fill="#4d4d4d"/>
  <path d="M94.3 114.8c-4.4 0-7.9 3.6-7.9 7.9 0 .5 0 .9.1 1.4.2 1 .6 2 1.1 2.9l7.5-12.2h-.8z" opacity=".1" fill="#eee9e0"/>
  <path d="M94.3 114.8c-4.4 0-7.9 3.6-7.9 7.9 0 .5 0 .9.1 1.4.2 1 .6 2 1.1 2.9l7.5-12.2h-.8z" opacity=".1" fill="#eee9e0"/>
  <path d="M78.8 131.2c2.5-3.6 1.6-8.6-2-11.1-1.3-.9-2.9-1.4-4.5-1.4-.5 0-.9 0-1.4.1-4.3.8-7.2 4.9-6.4 9.2s4.9 7.2 9.2 6.4c2.1-.3 3.9-1.5 5.1-3.2zm-6.1-2.6l-2.6.5c-.5.1-1-.2-1-.7l-.4-2.1c-.1-.5.2-1 .7-1l2.6-.5c.5-.1 1 .2 1 .7l.4 2.1c.1.4-.3.9-.7 1zm.8-2.7l1.8-1.4.6 3.3-2.2-.8-.2-1.1z" fill="#4d4d4d"/>
  <path d="M78.8 131.2c2.5-3.6 1.6-8.6-2-11.1-1.3-.9-2.9-1.4-4.5-1.4-.5 0-.9 0-1.4.1-4.3.8-7.2 4.9-6.4 9.2s4.9 7.2 9.2 6.4c2.1-.3 3.9-1.5 5.1-3.2zm-6.1-2.6l-2.6.5c-.5.1-1-.2-1-.7l-.4-2.1c-.1-.5.2-1 .7-1l2.6-.5c.5-.1 1 .2 1 .7l.4 2.1c.1.4-.3.9-.7 1zm.8-2.7l1.8-1.4.6 3.3-2.2-.8-.2-1.1z" opacity=".1" fill="#eee9e0"/>
  <path d="M78.8 131.2c2.5-3.6 1.6-8.6-2-11.1-1.3-.9-2.9-1.4-4.5-1.4-.5 0-.9 0-1.4.1-4.3.8-7.2 4.9-6.4 9.2s4.9 7.2 9.2 6.4c2.1-.3 3.9-1.5 5.1-3.2zm-6.1-2.6l-2.6.5c-.5.1-1-.2-1-.7l-.4-2.1c-.1-.5.2-1 .7-1l2.6-.5c.5-.1 1 .2 1 .7l.4 2.1c.1.4-.3.9-.7 1zm.8-2.7l1.8-1.4.6 3.3-2.2-.8-.2-1.1z" opacity=".1" fill="#eee9e0"/>
  <path d="M56.7 135.1c1.4-2 1.8-4.7 1-7l-6.2 10.3h.1c2-.4 3.9-1.6 5.1-3.3z" fill="#4d4d4d"/>
  <path d="M56.7 135.1c1.4-2 1.8-4.7 1-7l-6.2 10.3h.1c2-.4 3.9-1.6 5.1-3.3z" opacity=".1" fill="#eee9e0"/>
  <path d="M56.7 135.1c1.4-2 1.8-4.7 1-7l-6.2 10.3h.1c2-.4 3.9-1.6 5.1-3.3z" opacity=".1" fill="#eee9e0"/>
  <path d="M90.9 104c4.3-.8 7.2-4.9 6.4-9.2-.7-3.8-4-6.6-7.8-6.6-.5 0-.9 0-1.4.1-4.3.8-7.2 4.9-6.4 9.3.8 4.3 4.9 7.2 9.2 6.4zm.4-12c.2-.2.5-.2.7-.1 2 1.9 2.5 4.8 1.3 7.3-.1.2-.3.3-.5.3-.3 0-.5-.2-.5-.5v-.2c1.6-3.9-1-6.1-1-6.1-.2-.2-.2-.5 0-.7zm-1.1 1.1c.2-.2.5-.2.7-.1 1.6 1.4 2 3.7 1 5.7-.1.2-.3.3-.5.3h-.2c-.3-.1-.4-.4-.3-.7.8-1.5.5-3.3-.7-4.5-.1-.2-.2-.5 0-.7zm-1.1 1.1c.2-.2.5-.3.7-.1 1.3.9 1.6 2.7.8 4-.1.2-.4.3-.7.2-.2-.1-.3-.4-.2-.7.6-.9.4-2.1-.4-2.7-.3-.2-.4-.5-.2-.7zm-2.2 1.2l1.4-1.5.8 4.8-1.8-1-1.8.3-.4-2.3 1.8-.3z" fill="#4d4d4d"/>
  <path d="M90.9 104c4.3-.8 7.2-4.9 6.4-9.2-.7-3.8-4-6.6-7.8-6.6-.5 0-.9 0-1.4.1-4.3.8-7.2 4.9-6.4 9.3.8 4.3 4.9 7.2 9.2 6.4zm.4-12c.2-.2.5-.2.7-.1 2 1.9 2.5 4.8 1.3 7.3-.1.2-.3.3-.5.3-.3 0-.5-.2-.5-.5v-.2c1.6-3.9-1-6.1-1-6.1-.2-.2-.2-.5 0-.7zm-1.1 1.1c.2-.2.5-.2.7-.1 1.6 1.4 2 3.7 1 5.7-.1.2-.3.3-.5.3h-.2c-.3-.1-.4-.4-.3-.7.8-1.5.5-3.3-.7-4.5-.1-.2-.2-.5 0-.7zm-1.1 1.1c.2-.2.5-.3.7-.1 1.3.9 1.6 2.7.8 4-.1.2-.4.3-.7.2-.2-.1-.3-.4-.2-.7.6-.9.4-2.1-.4-2.7-.3-.2-.4-.5-.2-.7zm-2.2 1.2l1.4-1.5.8 4.8-1.8-1-1.8.3-.4-2.3 1.8-.3z" opacity=".1" fill="#eee9e0"/>
  <path d="M90.9 104c4.3-.8 7.2-4.9 6.4-9.2-.7-3.8-4-6.6-7.8-6.6-.5 0-.9 0-1.4.1-4.3.8-7.2 4.9-6.4 9.3.8 4.3 4.9 7.2 9.2 6.4zm.4-12c.2-.2.5-.2.7-.1 2 1.9 2.5 4.8 1.3 7.3-.1.2-.3.3-.5.3-.3 0-.5-.2-.5-.5v-.2c1.6-3.9-1-6.1-1-6.1-.2-.2-.2-.5 0-.7zm-1.1 1.1c.2-.2.5-.2.7-.1 1.6 1.4 2 3.7 1 5.7-.1.2-.3.3-.5.3h-.2c-.3-.1-.4-.4-.3-.7.8-1.5.5-3.3-.7-4.5-.1-.2-.2-.5 0-.7zm-1.1 1.1c.2-.2.5-.3.7-.1 1.3.9 1.6 2.7.8 4-.1.2-.4.3-.7.2-.2-.1-.3-.4-.2-.7.6-.9.4-2.1-.4-2.7-.3-.2-.4-.5-.2-.7zm-2.2 1.2l1.4-1.5.8 4.8-1.8-1-1.8.3-.4-2.3 1.8-.3z" opacity=".1" fill="#eee9e0"/>
  <path d="M96.8 63.3l6.9 37.8 1.2-2.1-6.8-37.7z" fill="#4d4d4d"/>
  <path d="M96.8 63.3l6.9 37.8 1.2-2.1-6.8-37.7z" opacity=".1" fill="#eee9e0"/>
  <path d="M96.8 63.3l6.9 37.8 1.2-2.1-6.8-37.7z" opacity=".1" fill="#eee9e0"/>
  <path d="M96.8 63.3l-1.5 2.6 6.8 37.7 1.6-2.5z" fill="#4d4d4d"/>
  <path d="M96.8 63.3l-1.5 2.6 6.8 37.7 1.6-2.5z" opacity=".1" fill="#eee9e0"/>
  <path d="M96.8 63.3l-1.5 2.6 6.8 37.7 1.6-2.5z" opacity=".1" fill="#eee9e0"/>
  <path d="M75.2 124.5l-1.7 1.4.2 1.1 2.1.8z" fill="#fff"/>
  <path d="M75.2 124.5l-1.7 1.4.2 1.1 2.1.8z" opacity=".1" fill="#eee9e0"/>
  <path d="M75.2 124.5l-1.7 1.4.2 1.1 2.1.8z" opacity=".1" fill="#eee9e0"/>
  <path d="M69.4 125.1l2.6-.5c.5-.1 1 .2 1 .7l.4 2.1c.1.5-.2 1-.7 1l-2.6.5c-.5.1-1-.2-1-.7l-.4-2.1c-.2-.4.2-.9.7-1z" fill="#fff"/>
  <path d="M69.4 125.1l2.6-.5c.5-.1 1 .2 1 .7l.4 2.1c.1.5-.2 1-.7 1l-2.6.5c-.5.1-1-.2-1-.7l-.4-2.1c-.2-.4.2-.9.7-1z" opacity=".1" fill="#eee9e0"/>
  <path d="M69.4 125.1l2.6-.5c.5-.1 1 .2 1 .7l.4 2.1c.1.5-.2 1-.7 1l-2.6.5c-.5.1-1-.2-1-.7l-.4-2.1c-.2-.4.2-.9.7-1z" opacity=".1" fill="#eee9e0"/>
  <path d="M92.4 98.8c-.1.3 0 .5.3.7.3.1.5 0 .7-.3 1.2-2.4.6-5.4-1.3-7.3-.2-.2-.5-.1-.7.1-.2.2-.1.5.1.7-.1 0 2.5 2.2.9 6.1z" fill="#fff"/>
  <path d="M92.4 98.8c-.1.3 0 .5.3.7.3.1.5 0 .7-.3 1.2-2.4.6-5.4-1.3-7.3-.2-.2-.5-.1-.7.1-.2.2-.1.5.1.7-.1 0 2.5 2.2.9 6.1z" opacity=".1" fill="#eee9e0"/>
  <path d="M92.4 98.8c-.1.3 0 .5.3.7.3.1.5 0 .7-.3 1.2-2.4.6-5.4-1.3-7.3-.2-.2-.5-.1-.7.1-.2.2-.1.5.1.7-.1 0 2.5 2.2.9 6.1z" opacity=".1" fill="#eee9e0"/>
  <path d="M91 98.3c-.1.3 0 .5.3.7h.2c.2 0 .4-.1.5-.3.9-1.9.5-4.2-1-5.7-.2-.2-.5-.1-.7.1-.2.2-.1.5.1.7 1.1 1.1 1.4 3 .6 4.5z" fill="#fff"/>
  <path d="M91 98.3c-.1.3 0 .5.3.7h.2c.2 0 .4-.1.5-.3.9-1.9.5-4.2-1-5.7-.2-.2-.5-.1-.7.1-.2.2-.1.5.1.7 1.1 1.1 1.4 3 .6 4.5z" opacity=".1" fill="#eee9e0"/>
  <path d="M91 98.3c-.1.3 0 .5.3.7h.2c.2 0 .4-.1.5-.3.9-1.9.5-4.2-1-5.7-.2-.2-.5-.1-.7.1-.2.2-.1.5.1.7 1.1 1.1 1.4 3 .6 4.5z" opacity=".1" fill="#eee9e0"/>
  <path d="M89.2 94.9c.9.6 1 1.8.4 2.7-.1.2 0 .5.2.7.2.1.5 0 .7-.2.8-1.3.5-3.1-.8-4-.2-.2-.5-.1-.7.1-.1.2 0 .5.2.7z" fill="#fff"/>
  <path d="M89.2 94.9c.9.6 1 1.8.4 2.7-.1.2 0 .5.2.7.2.1.5 0 .7-.2.8-1.3.5-3.1-.8-4-.2-.2-.5-.1-.7.1-.1.2 0 .5.2.7z" opacity=".1" fill="#eee9e0"/>
  <path d="M89.2 94.9c.9.6 1 1.8.4 2.7-.1.2 0 .5.2.7.2.1.5 0 .7-.2.8-1.3.5-3.1-.8-4-.2-.2-.5-.1-.7.1-.1.2 0 .5.2.7z" opacity=".1" fill="#eee9e0"/>
  <path d="M87.4 97.7l1.8 1-.9-4.8-1.4 1.5-1.8.4.5 2.2z" fill="#fff"/>
  <path d="M87.4 97.7l1.8 1-.9-4.8-1.4 1.5-1.8.4.5 2.2z" opacity=".1" fill="#eee9e0"/>
  <path d="M87.4 97.7l1.8 1-.9-4.8-1.4 1.5-1.8.4.5 2.2z" opacity=".1" fill="#eee9e0"/>
  <path d="M86.4 124.1c-.8-4.3 2.1-8.4 6.4-9.2.8-.1 1.5-.2 2.3-.1l.6-.9c-4.9-.8-9.5 2.5-10.3 7.4-.4 2.3.2 4.7 1.6 6.6l.6-.9c-.6-.9-1-1.9-1.2-2.9z" fill="#fff"/>
  <path d="M86.4 124.1c-.8-4.3 2.1-8.4 6.4-9.2.8-.1 1.5-.2 2.3-.1l.6-.9c-4.9-.8-9.5 2.5-10.3 7.4-.4 2.3.2 4.7 1.6 6.6l.6-.9c-.6-.9-1-1.9-1.2-2.9z" opacity=".1" fill="#eee9e0"/>
  <path d="M73.9 135.4c4.8-.9 8.1-5.5 7.2-10.3s-5.5-8.1-10.3-7.2c-4.8.9-8.1 5.5-7.2 10.3.8 4.2 4.4 7.3 8.7 7.3.5.1 1 0 1.6-.1zm-9.4-7.4c-.8-4.3 2.1-8.4 6.4-9.2.5-.1.9-.1 1.4-.1 4.4 0 7.9 3.6 7.9 8s-3.6 7.9-8 7.9c-3.8 0-7-2.8-7.7-6.6z" fill="#fff"/>
  <path d="M73.9 135.4c4.8-.9 8.1-5.5 7.2-10.3s-5.5-8.1-10.3-7.2c-4.8.9-8.1 5.5-7.2 10.3.8 4.2 4.4 7.3 8.7 7.3.5.1 1 0 1.6-.1zm-9.4-7.4c-.8-4.3 2.1-8.4 6.4-9.2.5-.1.9-.1 1.4-.1 4.4 0 7.9 3.6 7.9 8s-3.6 7.9-8 7.9c-3.8 0-7-2.8-7.7-6.6z" opacity=".1" fill="#eee9e0"/>
  <path d="M73.9 135.4c4.8-.9 8.1-5.5 7.2-10.3s-5.5-8.1-10.3-7.2c-4.8.9-8.1 5.5-7.2 10.3.8 4.2 4.4 7.3 8.7 7.3.5.1 1 0 1.6-.1zm-9.4-7.4c-.8-4.3 2.1-8.4 6.4-9.2.5-.1.9-.1 1.4-.1 4.4 0 7.9 3.6 7.9 8s-3.6 7.9-8 7.9c-3.8 0-7-2.8-7.7-6.6z" opacity=".1" fill="#eee9e0"/>
  <path d="M58 129.1c.8 4.3-2.1 8.4-6.4 9.2h-.1l-.7 1.1c4.9-.3 8.6-4.6 8.3-9.5-.1-1-.3-2-.7-3l-.7 1.1c.1.4.2.8.3 1.1z" fill="#fff"/>
  <path d="M58 129.1c.8 4.3-2.1 8.4-6.4 9.2h-.1l-.7 1.1c4.9-.3 8.6-4.6 8.3-9.5-.1-1-.3-2-.7-3l-.7 1.1c.1.4.2.8.3 1.1z" opacity=".1" fill="#eee9e0"/>
  <path d="M59 129c-.1-.7-.3-1.4-.6-2-.1-.2-.2-.5-.3-.7-2.4-4.3-7.8-6-12.1-3.6s-6 7.8-3.6 12.1c1.5 2.8 4.5 4.6 7.7 4.7h.8c4.9-.4 8.6-4.6 8.3-9.6-.1-.3-.2-.6-.2-.9zm-2.3 6.1c-1.2 1.7-3.1 2.9-5.1 3.3h-.1c-4.3.7-8.5-2.2-9.2-6.5s2.2-8.5 6.5-9.2c3.9-.7 7.7 1.6 8.9 5.4.8 2.3.4 4.9-1 7z" opacity=".1" fill="#eee9e0"/>
  <path d="M84.3 103.5c1.5 1.1 3.3 1.6 5.1 1.6.5 0 1.1 0 1.6-.1 4.9-.9 8.1-5.5 7.3-10.4s-5.5-8.1-10.4-7.3-8.1 5.5-7.3 10.4c.5 2.4 1.8 4.5 3.7 5.8zm3.8-15.1c.5-.1.9-.1 1.4-.1 4.4 0 7.9 3.6 7.9 7.9 0 4.4-3.6 7.9-7.9 7.9-4.4 0-7.9-3.6-7.9-7.9-.1-3.8 2.7-7.1 6.5-7.8z" fill="#fff"/>
  <path d="M84.3 103.5c1.5 1.1 3.3 1.6 5.1 1.6.5 0 1.1 0 1.6-.1 4.9-.9 8.1-5.5 7.3-10.4s-5.5-8.1-10.4-7.3-8.1 5.5-7.3 10.4c.5 2.4 1.8 4.5 3.7 5.8zm3.8-15.1c.5-.1.9-.1 1.4-.1 4.4 0 7.9 3.6 7.9 7.9 0 4.4-3.6 7.9-7.9 7.9-4.4 0-7.9-3.6-7.9-7.9-.1-3.8 2.7-7.1 6.5-7.8z" opacity=".1" fill="#eee9e0"/>
  <path d="M84.3 103.5c1.5 1.1 3.3 1.6 5.1 1.6.5 0 1.1 0 1.6-.1 4.9-.9 8.1-5.5 7.3-10.4s-5.5-8.1-10.4-7.3-8.1 5.5-7.3 10.4c.5 2.4 1.8 4.5 3.7 5.8zm3.8-15.1c.5-.1.9-.1 1.4-.1 4.4 0 7.9 3.6 7.9 7.9 0 4.4-3.6 7.9-7.9 7.9-4.4 0-7.9-3.6-7.9-7.9-.1-3.8 2.7-7.1 6.5-7.8z" opacity=".1" fill="#eee9e0"/>
  <path d="M74 104.6c-1 1.4-2.4 2.4-4 3l-.7 1.2c4.8-1 7.9-5.5 7-10.3-.1-.3-.1-.6-.2-.9l-.7 1.2c.3 2.1-.2 4.2-1.4 5.8z" fill="#fff"/>
  <path d="M74 104.6c-1 1.4-2.4 2.4-4 3l-.7 1.2c4.8-1 7.9-5.5 7-10.3-.1-.3-.1-.6-.2-.9l-.7 1.2c.3 2.1-.2 4.2-1.4 5.8z" opacity=".1" fill="#eee9e0"/>
  <path d="M76.3 98.5c-.1-.3-.1-.6-.2-.9-.1-.3-.2-.5-.3-.8-1.8-4.6-7-6.9-11.6-5.1-4.6 1.8-6.9 7-5.1 11.6a8.9 8.9 0 008.3 5.7c.3 0 .7 0 1-.1.2 0 .4 0 .6-.1.1 0 .2 0 .2-.1 4.9-.8 8-5.4 7.1-10.2zm-2.3 6.1c-1.2 1.6-2.9 2.8-4.9 3.2-.1 0-.2 0-.3.1-4.3.7-8.4-2.2-9.2-6.5-.7-4.3 2.1-8.3 6.4-9.1.5-.1.9-.1 1.4-.1 3.6 0 6.7 2.4 7.7 5.8.1.2.1.5.2.8v.1c.4 2-.1 4.1-1.3 5.7z" opacity=".1" fill="#eee9e0"/>
  <path d="M75.6 144.9c-5 .9-8.3 5.6-7.4 10.6.1.7.3 1.3.6 2l7.8-12.6c-.4-.1-.7-.1-1 0z" fill="#e28888"/>
  <path d="M75.6 144.9c-5 .9-8.3 5.6-7.4 10.6.1.7.3 1.3.6 2l7.8-12.6c-.4-.1-.7-.1-1 0z" opacity=".1" fill="#eee9e0"/>
  <path d="M89.7 130.4l-9.3 14.9c.2.1.3.1.5.2l9.2-14.9c-.1 0-.2-.1-.4-.2z" fill="#4d4d4d"/>
  <path d="M89.7 130.4l-9.3 14.9c.2.1.3.1.5.2l9.2-14.9c-.1 0-.2-.1-.4-.2z" opacity=".1" fill="#eee9e0"/>
  <path d="M99.4 115.4c.1 0 .1.1.2.1l3.6-5.9-.1-.7-3.9 6.3c0 .1.1.2.2.2z" fill="#4d4d4d"/>
  <path d="M99.4 115.4c.1 0 .1.1.2.1l3.6-5.9-.1-.7-3.9 6.3c0 .1.1.2.2.2z" opacity=".1" fill="#eee9e0"/>
  <path d="M71 160.6l-5.8 9.3c0 .4-.1.9-.2 1.4l6.4-10.3-.4-.4z" fill="#4d4d4d"/>
  <path d="M71 160.6l-5.8 9.3c0 .4-.1.9-.2 1.4l6.4-10.3-.4-.4z" opacity=".1" fill="#eee9e0"/>
  <path d="M93.6 124.2l-.5.7c.1 0 .2-.1.4-.1.1-.2.1-.4.1-.6z" fill="#4d4d4d"/>
  <path d="M93.6 124.2l-.5.7c.1 0 .2-.1.4-.1.1-.2.1-.4.1-.6z" opacity=".1" fill="#eee9e0"/>
  <path d="M95.3 121.4c.2.2.2.4.2.6l3.5-5.6c-.1-.1-.3-.2-.4-.3l-3.3 5.3z" fill="#4d4d4d"/>
  <path d="M95.3 121.4c.2.2.2.4.2.6l3.5-5.6c-.1-.1-.3-.2-.4-.3l-3.3 5.3z" opacity=".1" fill="#eee9e0"/>
  <path d="M90.3 129.6c.1.1.3.2.4.2l2.3-3.7-.7.1-2 3.4z" fill="#4d4d4d"/>
  <path d="M90.3 129.6c.1.1.3.2.4.2l2.3-3.7-.7.1-2 3.4z" opacity=".1" fill="#eee9e0"/>
  <path d="M106 105.1l1.8 10 .3-.4-2-10.7-1.5 2.4.2.7z" fill="#4d4d4d"/>
  <path d="M106 105.1l1.8 10 .3-.4-2-10.7-1.5 2.4.2.7z" opacity=".1" fill="#eee9e0"/>
  <path d="M103.2 109.6l1.6-2.5-.2-.7-1.5 2.6z" fill="#4d4d4d"/>
  <path d="M103.2 109.6l1.6-2.5-.2-.7-1.5 2.6z" opacity=".1" fill="#eee9e0"/>
  <path d="M93.6 124.2c0 .2 0 .4-.1.6-.1 0-.2.1-.4.1l-.8 1.3.7-.1 2.6-4.2c0-.2 0-.4-.2-.6l-1.8 2.9zm5.4-7.8l.5-.9c-.1 0-.1-.1-.2-.1-.1-.1-.2-.1-.2-.2l-.5.9c.2.1.3.2.4.3zm-9.3 14c.1.1.3.2.4.3l.5-.9c-.1-.1-.3-.1-.4-.2l-.5.8z" fill="#fff"/>
  <path d="M73.7 156.4l-2.7 4.3c.1.1.3.2.4.4l3.1-5c-.2 0-.5.1-.8.3z" fill="#e28888"/>
  <path d="M73.7 156.4l-2.7 4.3c.1.1.3.2.4.4l3.1-5c-.2 0-.5.1-.8.3z" opacity=".1" fill="#eee9e0"/>
  <path d="M76.4 151.9c.1 0 .2 0 .4-.1s.2 0 .4-.1l3.8-6.2c-.2-.1-.3-.1-.5-.2l-4.1 6.6z" fill="#e28888"/>
  <path d="M76.4 151.9c.1 0 .2 0 .4-.1s.2 0 .4-.1l3.8-6.2c-.2-.1-.3-.1-.5-.2l-4.1 6.6z" opacity=".1" fill="#eee9e0"/>
  <path d="M75.4 154.6l.2-.4c-.1 0-.2 0-.2.1v.3z" fill="#e49f87"/>
  <path d="M75.4 154.6l.2-.4c-.1 0-.2 0-.2.1v.3z" opacity=".1" fill="#eee9e0"/>
  <path d="M76.4 151.9l-2.8 4.4c.3-.1.6-.2.8-.3l.9-1.4v-.3c.1 0 .1 0 .2-.1l1.5-2.4c-.1 0-.2 0-.4.1s0 0-.2 0z" fill="#fff"/>
  <path d="M76.4 151.9l-2.8 4.4c.3-.1.6-.2.8-.3l.9-1.4v-.3c.1 0 .1 0 .2-.1l1.5-2.4c-.1 0-.2 0-.4.1s0 0-.2 0z" opacity=".1" fill="#eee9e0"/>
  <path d="M94.2 131.7c-1.4 0-2.8-.3-4.1-1L81 145.6c2.2 1 3.9 2.9 4.7 5.1L98 130.8c-.7.3-1.5.6-2.2.7-.5.1-1 .2-1.6.2z" fill="#4d4d4d"/>
  <path d="M94.2 131.7c-1.4 0-2.8-.3-4.1-1L81 145.6c2.2 1 3.9 2.9 4.7 5.1L98 130.8c-.7.3-1.5.6-2.2.7-.5.1-1 .2-1.6.2z" opacity=".1" fill="#eee9e0"/>
  <path d="M94.2 131.7c-1.4 0-2.8-.3-4.1-1L81 145.6c2.2 1 3.9 2.9 4.7 5.1L98 130.8c-.7.3-1.5.6-2.2.7-.5.1-1 .2-1.6.2z" opacity=".1" fill="#eee9e0"/>
  <path d="M103.1 121.2c.1.5.1.9.1 1.4l1.8-2.9-1.8-10-3.6 5.9c1.8 1.3 3.1 3.3 3.5 5.6z" fill="#4d4d4d"/>
  <path d="M103.1 121.2c.1.5.1.9.1 1.4l1.8-2.9-1.8-10-3.6 5.9c1.8 1.3 3.1 3.3 3.5 5.6z" opacity=".1" fill="#eee9e0"/>
  <path d="M103.1 121.2c.1.5.1.9.1 1.4l1.8-2.9-1.8-10-3.6 5.9c1.8 1.3 3.1 3.3 3.5 5.6z" opacity=".1" fill="#eee9e0"/>
  <path d="M102.1 121.4c-.4-2-1.5-3.8-3.1-5l-3.5 5.6c0 .1-.1.2-.1.3.1.8-.2 1.4-.3 1.3 0 0 .2.9.5.9s1.9-.1 2.2.8l-4.8.8-2.3 3.7c2.8 1.4 6.1 1.1 8.5-.9l2.8-4.5c.2-1 .3-2 .1-3z" fill="#4d4d4d"/>
  <path d="M102.1 121.4c-.4-2-1.5-3.8-3.1-5l-3.5 5.6c0 .1-.1.2-.1.3.1.8-.2 1.4-.3 1.3 0 0 .2.9.5.9s1.9-.1 2.2.8l-4.8.8-2.3 3.7c2.8 1.4 6.1 1.1 8.5-.9l2.8-4.5c.2-1 .3-2 .1-3z" opacity=".1" fill="#eee9e0"/>
  <path d="M102.1 121.4c-.4-2-1.5-3.8-3.1-5l-3.5 5.6c0 .1-.1.2-.1.3.1.8-.2 1.4-.3 1.3 0 0 .2.9.5.9s1.9-.1 2.2.8l-4.8.8-2.3 3.7c2.8 1.4 6.1 1.1 8.5-.9l2.8-4.5c.2-1 .3-2 .1-3z" opacity=".1" fill="#eee9e0"/>
  <path d="M78.1 162.9c-2.4.2-4.8-.4-6.6-1.9l-6.4 10.3-.3 1.5 8-1.5 5.3-8.4z" fill="#4d4d4d"/>
  <path d="M78.1 162.9c-2.4.2-4.8-.4-6.6-1.9l-6.4 10.3-.3 1.5 8-1.5 5.3-8.4z" opacity=".1" fill="#eee9e0"/>
  <path d="M78.1 162.9c-2.4.2-4.8-.4-6.6-1.9l-6.4 10.3-.3 1.5 8-1.5 5.3-8.4z" opacity=".1" fill="#eee9e0"/>
  <path d="M104.8 107.1l1.8 10 1.2-2-1.8-10z" fill="#4d4d4d"/>
  <path d="M104.8 107.1l1.8 10 1.2-2-1.8-10z" opacity=".1" fill="#eee9e0"/>
  <path d="M104.8 107.1l1.8 10 1.2-2-1.8-10z" opacity=".1" fill="#eee9e0"/>
  <path d="M71.4 173.7l-7.1 1.3c-.1.2-.1.4-.2.7l6.8-1.2.5-.8z" fill="#4d4d4d"/>
  <path d="M71.4 173.7l-7.1 1.3c-.1.2-.1.4-.2.7l6.8-1.2.5-.8z" opacity=".1" fill="#eee9e0"/>
  <path d="M71.4 173.7l-7.1 1.3c-.1.2-.1.4-.2.7l6.8-1.2.5-.8z" opacity=".1" fill="#eee9e0"/>
  <path d="M106.6 117.1l-1.8-10-1.6 2.5 1.8 10.1z" fill="#4d4d4d"/>
  <path d="M106.6 117.1l-1.8-10-1.6 2.5 1.8 10.1z" opacity=".1" fill="#eee9e0"/>
  <path d="M106.6 117.1l-1.8-10-1.6 2.5 1.8 10.1z" opacity=".1" fill="#eee9e0"/>
  <path d="M72.8 171.4l-8 1.5c-.1.7-.3 1.4-.5 2.1l7.1-1.3 1.4-2.3z" fill="#4d4d4d"/>
  <path d="M72.8 171.4l-8 1.5c-.1.7-.3 1.4-.5 2.1l7.1-1.3 1.4-2.3z" opacity=".1" fill="#eee9e0"/>
  <path d="M72.8 171.4l-8 1.5c-.1.7-.3 1.4-.5 2.1l7.1-1.3 1.4-2.3z" opacity=".1" fill="#eee9e0"/>
  <path d="M97.8 125.3c-.2-.9-1.8-.8-2.2-.8s-.5-.9-.5-.9c.1.1.4-.5.3-1.3.1-.1.1-.2.1-.3l-2.6 4.2 4.9-.9z" fill="#fff"/>
  <path d="M97.8 125.3c-.2-.9-1.8-.8-2.2-.8s-.5-.9-.5-.9c.1.1.4-.5.3-1.3.1-.1.1-.2.1-.3l-2.6 4.2 4.9-.9z" opacity=".1" fill="#eee9e0"/>
  <path d="M95.6 124.5c-.4 0-.5-.9-.5-.9.1.1.4-.5.3-1.3.2-.3.2-.6-.1-.9 0 0 0-1.2-.4-1.4-.5-.3-1.2-.3-1.7-.1-.4.1-.5.3-.7.7-.1.5 0 1 .2 1.4-.3.3.3.9.3.9.1.5.3.8.5.8 0 .1.1.3.1.4 0 .2 0 .4-.1.6-.1 0-.2.1-.4.1-.7.3-1.2.8-1.5 1.4l.7-.1.7-.1 4.8-.8c-.3-.8-1.8-.7-2.2-.7z" opacity=".1" fill="#eee9e0"/>
  <path d="M99.5 115.5l-.5.9c2.5 1.9 3.7 5 3 8.1l1.2-1.9c0-.5 0-.9-.1-1.4-.4-2.3-1.7-4.3-3.6-5.7z" fill="#fff"/>
  <path d="M99.5 115.5l-.5.9c2.5 1.9 3.7 5 3 8.1l1.2-1.9c0-.5 0-.9-.1-1.4-.4-2.3-1.7-4.3-3.6-5.7z" opacity=".1" fill="#eee9e0"/>
  <path d="M90.7 129.8l-.5.9c1.3.7 2.6 1 4.1 1 .5 0 1.1 0 1.6-.1.8-.1 1.5-.4 2.2-.7l1.2-1.9c-2.5 1.9-5.8 2.2-8.6.8z" fill="#fff"/>
  <path d="M90.7 129.8l-.5.9c1.3.7 2.6 1 4.1 1 .5 0 1.1 0 1.6-.1.8-.1 1.5-.4 2.2-.7l1.2-1.9c-2.5 1.9-5.8 2.2-8.6.8z" opacity=".1" fill="#eee9e0"/>
  <path d="M103.1 121.2c-.4-2.3-1.7-4.3-3.5-5.7-.1 0-.1-.1-.2-.1-.1-.1-.2-.1-.2-.2-.9-.6-1.9-1-2.9-1.3-.2 0-.3-.1-.5-.1-4.9-.8-9.5 2.5-10.3 7.4-.4 2.3.2 4.7 1.6 6.6.1.2.2.3.3.4.5.6 1.1 1.2 1.8 1.7.2.1.4.2.6.4.1.1.3.2.4.3 1.3.7 2.6 1 4.1 1 .5 0 1.1 0 1.6-.1.8-.1 1.5-.4 2.2-.7.3-.1.5-.3.8-.4 2.5-1.5 4.1-4.1 4.3-7v-.9c0-.4-.1-.9-.1-1.3zm-7.5 9.4c-1.7.3-3.4 0-4.9-.7-.1-.1-.3-.1-.4-.2-.9-.5-1.7-1.3-2.4-2.1-.1-.1-.2-.3-.3-.5-.6-.9-.9-1.9-1.1-2.9-.8-4.3 2.1-8.4 6.4-9.2.8-.1 1.5-.2 2.3-.1.2 0 .4 0 .5.1 1.1.2 2.1.6 3 1.2.1.1.3.2.4.3 3.4 2.6 4.2 7.4 1.8 10.9-.4.6-1 1.2-1.5 1.6-1.2.8-2.5 1.3-3.8 1.6z" opacity=".1" fill="#eee9e0"/>
  <path d="M81 145.6l-3.8 6.2c1.8-.3 3.9-.4 5.2.4.4.2.5 1.2.5 2 0 .4-.3.7-.6.8H80c-.3 0-.5-.2-.6-.5-.1-.1-.3-.6-.4-.8-.6 0-1.2.1-1.8.2l-1.5.3-.2.4v.6c0 .3-.2.5-.4.7-.1 0-.2.1-.4.2l-3.1 5c1.9 1.5 4.3 2.2 6.6 1.9l7.6-12.3c-.9-2.3-2.6-4.1-4.8-5.1z" fill="#e28888"/>
  <path d="M81 145.6l-3.8 6.2c1.8-.3 3.9-.4 5.2.4.4.2.5 1.2.5 2 0 .4-.3.7-.6.8H80c-.3 0-.5-.2-.6-.5-.1-.1-.3-.6-.4-.8-.6 0-1.2.1-1.8.2l-1.5.3-.2.4v.6c0 .3-.2.5-.4.7-.1 0-.2.1-.4.2l-3.1 5c1.9 1.5 4.3 2.2 6.6 1.9l7.6-12.3c-.9-2.3-2.6-4.1-4.8-5.1z" opacity=".1" fill="#eee9e0"/>
  <path d="M77.2 153.9c.6-.1 1.2-.2 1.8-.2.1.2.3.7.4.8.1.3.3.5.6.5h.3c.6 0 1.8.1 2 0 .4-.1.7-.4.6-.8 0-.8-.1-1.8-.5-2-1.3-.8-3.5-.7-5.2-.4l-1.5 2.4c.4-.1.9-.3 1.5-.3z" fill="#fff"/>
  <path d="M77.2 153.9c.6-.1 1.2-.2 1.8-.2.1.2.3.7.4.8.1.3.3.5.6.5h.3c.6 0 1.8.1 2 0 .4-.1.7-.4.6-.8 0-.8-.1-1.8-.5-2-1.3-.8-3.5-.7-5.2-.4l-1.5 2.4c.4-.1.9-.3 1.5-.3z" opacity=".1" fill="#eee9e0"/>
  <path d="M77.2 153.9c.6-.1 1.2-.2 1.8-.2.1.2.3.7.4.8.1.3.3.5.6.5h.3c.6 0 1.8.1 2 0 .4-.1.7-.4.6-.8 0-.8-.1-1.8-.5-2-1.3-.8-3.5-.7-5.2-.4l-1.5 2.4c.4-.1.9-.3 1.5-.3z" opacity=".1" fill="#eee9e0"/>
  <path d="M74.9 155.9c.2-.1.4-.4.4-.7v-.6l-.9 1.4c.3-.1.5-.1.5-.1z" fill="#fff"/>
  <path d="M74.9 155.9c.2-.1.4-.4.4-.7v-.6l-.9 1.4c.3-.1.5-.1.5-.1z" opacity=".1" fill="#eee9e0"/>
  <path d="M74.9 155.9c.2-.1.4-.4.4-.7v-.6l-.9 1.4c.3-.1.5-.1.5-.1z" opacity=".1" fill="#eee9e0"/>
  <path d="M66 222.8h.2-.2zm-4.1-.2l2-8.7-4-2.4c-1-.6-1.3-1.8-.7-2.7.2-.3.4-.6.7-.7l4.6-2.6-1.1-5.2c-1.6-.6-3-1.2-4.3-1.6l-1.6 23.8-.1 1c1.5-.1 2.9-.1 4.3-.2l.2-.7zm6.3-9.2l-2.2 9.4h.2c5-.4 10-1.3 14.8-2.9.4-4.6-1.1-10.8-3.8-13-1.8-1.4-5.4-3.2-9.3-4.8l.8 3.9c.2.8-.2 1.7-1 2.2l-2.9 1.7 2.3 1.4c.9.3 1.3 1.2 1.1 2.1zm-43.9-1.5l2.4-1.5-3-1.3c-.9-.4-1.4-1.4-1.1-2.4l1.5-5.2c-3.3 1.3-6.5 2.9-9.6 4.7-4.2 2.5-4.3 5.9-4.3 12.6v.6c1.2.4 2.5.8 3.9 1.1 3.9.9 7.8 1.5 11.8 2l-.4-1.5-2.1-6.8c-.2-.9.1-1.9.9-2.3zm8.1-10.1l-.4-3.3c-.1.1-.3.1-.4.2-1 .3-1.9.7-2.9 1l-1.9 6.4 4.9 2.1c1 .4 1.5 1.6 1.1 2.6-.2.4-.4.7-.8.9l-4.3 2.7 2 6.7.5 1.7c1.6.1 3.1.2 4.8.3l-.2-1.8-2.4-19.5z" fill="#fff"/>
  <path d="M53.6 222.2l1-14.7-8.7 10.3-8.7-10 1.7 13.7.2 1.9c4.8.2 9.7.2 14.4.1l.1-1.3z" fill="#aed7f0"/>
  <path d="M34.8 170.7c.1.3.1.5 0 .8.2.8.9 1.3 1.6 1.3h.6l-.6-3.4c-.7 0-1.4.5-1.6 1.3zm10.8 23.9c-1.2-.8-2.2-1.8-3.2-2.9-1.7-.6-3.2-1.5-4.6-2.6-.2 2.3-.9 4.5-2.1 6.5l.6 5.3 9.5 10.9L55 201l.2-3.5h-.9c-3.1-.2-6.1-1.1-8.7-2.9zm-9.7-28.2l-1.1-6.1c-1 2.1-2.1 4.2-3.1 5.8v3.5h.4c.5-1.7 2-3 3.8-3.2zm4.6 3l.6 3.1c.3-.2.5-.4.6-.7-.3-.5-.3-1.1 0-1.6-.2-.4-.7-.7-1.2-.8zm-.3-3c.4 0 .8.1 1.1.2l-1.1-6.2c-.6-.5-1.1-.9-1.6-1.4l1.3 7.4h.3zm11.5 23c-1.1.8-2.3 1.5-3.6 2 1.4 1 3.1 1.6 4.8 1.8-.5-1.2-.9-2.5-1.2-3.8z" fill="#d7c8b7"/>
  <path d="M42 166.8l-1-5.8c-.3-.2-.5-.4-.8-.6l1.1 6.2c.3 0 .5.1.7.2zm-5.5-.4h1.4l-1.7-9.4c-.4 1.1-.9 2.2-1.4 3.3l1.1 6.1h.6zm0 3l.6 3.4h2l-.6-3.4h-2zm8.4 22.6h-.3c-.8 0-1.5-.2-2.2-.4 2.9 3.6 7.3 5.7 11.9 5.7h.9v-.6l-.7-.7c-3.5 0-7-1.4-9.6-4z" fill="#d7c8b7"/>
  <path d="M52.9 193.2c-1.7-.2-3.4-.8-4.8-1.8-1 .4-2.1.6-3.2.6 2.6 2.6 6.1 4 9.7 3.9-.7-.8-1.3-1.7-1.7-2.7zm-12.7-23.8h-1.8l.6 3.4h1.2c.3 0 .6-.1.9-.2l-.6-3.1c-.1-.1-.2-.1-.3-.1zm-.2-3l-1.3-7.4c-.8-.8-1.5-1.6-2.2-2.5-.1.2-.1.4-.2.6l1.7 9.4h2zm4 10.7l-.5-2.8-.1.1.4 2.1c0 .2.1.4.2.6zm-1.9-10.3l-1-5.7-.1-.1 1 5.8h.1zm7.2-.4H53c2 0 3.8 1.3 4.4 3.2h.2v-.3c0-1.5 0-2.9-.1-4.3-3 2.1-8.1 1-12.7-1.5l.8 4.6c1-1.1 2.3-1.7 3.7-1.7zm8 6.4c-.2.6-.6 1.1-1 1.6l.7-.1.3-1.5zm-4.3-3.4h-3.7c-.6 0-1.2.3-1.5.9.3.5.3 1.1 0 1.6.3.6.9.9 1.5.9H53c.7 0 1.4-.5 1.6-1.2-.1-.3-.1-.7 0-1-.2-.7-.9-1.2-1.6-1.2zm-9.4-1.5l-1-5.8c-.5-.3-1-.7-1.5-1l1 5.7c.6.3 1.1.6 1.5 1.1z" fill="#d7c8b7"/>
  <path d="M44.6 169.6h.2c.2-.5.5-1.1.8-1.5l-.8-4.6c-.8-.4-1.5-.9-2.3-1.4l1 5.8c.6.4.9 1 1.1 1.7zM39.3 185c.8.7 1.6 1.3 2.5 1.9.9.6 1.9 1 2.9 1.2h.1c3.3-.1 8-3.9 10.7-9.4.1-.1.1-.2.2-.3.2-.3.3-.6.4-1l.3-.9c.3-.7.5-1.4.7-2.2l-.7.1c-.9.9-2.1 1.4-3.3 1.4H49c-.7-.1-1.3-.3-1.9-.6-1-.6-1.7-1.5-2.1-2.6h-.2c0 .1-.1.2-.1.3-.2.6-.6 1.1-1 1.5l.5 2.8c-.1-.2-.2-.4-.2-.6l-.4-2.1c-.5.5-1.1.9-1.8 1.1-.5.1-.9.2-1.4.2h-3.7c-2 0-3.8-1.3-4.4-3.2H32c1 4.8 3.6 9.1 7.3 12.4z" fill="#d7c8b7"/>
  <path d="M82.8 223.5c.3-.1.6-.2.8-.3l1-.4.2-1.1c.9-5.9-.9-14.5-5.1-17.8-3.3-2.6-11-5.8-16.4-7.9-.9-.3-1.7-.7-2.4-.9-1.2-.5-2.2-.8-2.7-1-.4-.3-.7-.7-1-1.1-1.3-2.1-2-4.5-1.9-7 2.1-2.4 3.7-5.2 4.7-8.3.2-.7.5-1.4.7-2.1.2-.7.3-1.4.5-2.1.2-1.2.3-2.4.4-3.6v-1.1c0-7.8-.5-15-4.9-19.1-2.1-2-6-3.5-9.7-4-.3 0-.5-.1-.8-.1-.5-.1-1.1-.1-1.6-.1h-.1c-1 0-2 .1-3 .3-.7.1-1.3.3-2 .4-.7.2-1.3.4-1.9.6-.4.2-.9.3-1.3.5-.7.3-1.4.6-1.9.9-2.9 1.5-5 4.2-5.8 7.3-1.1 3.6-1.1 7.9-1.1 12.4v1.5c.2 5.9 2.4 11.6 6.4 16.1-.1.2-.1.5-.1.7 0 .1.3 7.5-3.6 8.8-6.3 2.2-11.9 4.2-17.9 7.8-6.3 3.8-6.3 9.5-6.2 16.1v3.4l1.3.5c8.1 3.1 25 5 41.3 5 13.7-.2 26.8-1.5 34.1-4.3zm-15-15.3c.8-.4 1.1-1.3 1-2.2l-.8-3.9c3.9 1.6 7.5 3.4 9.3 4.8 2.7 2.1 4.1 8.4 3.8 13-4.8 1.5-9.8 2.5-14.8 2.9h-.2l2.2-9.4c.2-.9-.2-1.7-.9-2.2l-2.3-1.4 2.7-1.6zm-10.2 14.2l1.6-23.8c1.3.5 2.7 1 4.3 1.6l1.1 5.2L60 208c-1 .6-1.3 1.8-.7 2.7.2.3.4.6.7.7l4 2.4-2 8.7-.1.6c-1.4.1-2.8.2-4.3.2v-.9zm-2.4-25.1l-.2 3.5-9.2 10.9-9.5-10.9-.6-5.3c1.2-2 1.9-4.2 2.1-6.5 1.4 1.1 2.9 2 4.6 2.6.7.3 1.5.4 2.2.4h.3c1.1 0 2.2-.3 3.2-.6 1.3-.5 2.5-1.2 3.6-2 .2 1.3.6 2.6 1.2 3.8.4 1 1 1.9 1.7 2.8.2.3.5.5.7.7l-.1.6zm-23.5-28v-3.2c1-1.6 2.1-3.7 3.1-5.8.5-1.1 1-2.2 1.4-3.3.1-.2.1-.4.2-.6.7.9 1.4 1.7 2.2 2.5.5.5 1 1 1.6 1.4.3.2.5.4.8.6l.1.1c.5.4 1 .7 1.5 1 .7.5 1.5.9 2.3 1.4 4.6 2.5 9.7 3.6 12.7 1.5 0 1.4.1 2.8.1 4.3v.3h-.2c-.6-1.9-2.4-3.2-4.4-3.2h-3.7c-1.4 0-2.7.6-3.6 1.7-.4.4-.6 1-.8 1.5h-.2c-.2-.6-.6-1.2-1-1.7-.4-.4-.9-.8-1.5-1.1h-.1c-.2-.1-.5-.2-.7-.2-.4-.1-.7-.1-1.1-.2h-4.3c-1.8.2-3.3 1.5-3.8 3.2h-.4c-.2 0-.2-.1-.2-.2zm22.9 2.3c-.2.7-.9 1.2-1.6 1.2h-3.7c-.6 0-1.2-.3-1.5-.9.3-.5.3-1.1 0-1.6.3-.6.9-.9 1.5-.9H53c.7 0 1.4.5 1.6 1.2-.1.3-.1.7 0 1zm-12.9.3c-.3.5-.9.9-1.5.9h-3.7c-.8 0-1.5-.5-1.6-1.3.1-.3.1-.5 0-.8.2-.7.8-1.3 1.6-1.3h4c.5.1.9.4 1.2.9-.3.5-.3 1.1 0 1.6zm-9.7.7c.7 1.9 2.5 3.2 4.5 3.2h3.7c.9 0 1.9-.3 2.6-.8.2-.1.4-.3.6-.5l.1-.1c.4-.4.8-.9 1-1.5 0-.1.1-.2.1-.3h.2c.4 1.1 1.1 2 2.1 2.6.6.3 1.2.5 1.9.6H53c1.2 0 2.4-.5 3.3-1.4.4-.4.8-1 1-1.6-.1.5-.2 1-.3 1.4-.2.7-.4 1.5-.7 2.2l-.3.9c-.1.3-.3.7-.4 1-.1.1-.1.2-.2.3-2.7 5.6-7.3 9.4-10.7 9.4h-.1c-1-.1-2-.5-2.9-1.2-.9-.6-1.7-1.2-2.5-1.9-3.6-3.2-6.2-7.5-7.2-12.3zm-8.6 41.5l2.1 6.8.4 1.5c-4-.4-7.9-1.1-11.8-2-1.4-.3-2.8-.7-3.9-1.1v-.6c-.1-6.7.1-10.1 4.3-12.6 3-1.8 6.2-3.4 9.6-4.7l-1.6 5.2c-.3 1 .2 2 1.1 2.4l3 1.3-2.4 1.5c-.7.5-1 1.5-.8 2.3zm6.9 8.8l-.5-1.7-2-6.7 4.3-2.7c.9-.6 1.2-1.8.6-2.8-.2-.3-.5-.6-.9-.8l-4.9-2.1 1.9-6.4c.9-.3 1.9-.7 2.9-1 .1 0 .3-.1.4-.2l.4 3.3 2.4 19.5.2 1.8c-1.7 0-3.3-.1-4.8-.2zm8.8.5l-.2-1.9-1.7-13.7 8.7 10 8.7-10.3-1 14.7-.1 1.3c-4.7.1-9.6.1-14.4-.1z" fill="#4d4d4d"/>
  <path d="M309.9 83.5l.1-.3 4.4-25.6c1.1-6.1-3.1-12-9.2-13l-54.3-9.3c-6.1-1.1-12 3.1-13 9.2L216 171.2c-1 6.1 3.1 12 9.2 13l26.7 4.6c-3.7-.9-6-4.7-5.1-8.4.9-3.7 4.7-6 8.4-5.1 3.5.9 5.8 4.3 5.2 7.9-.6 3.3-3.4 5.7-6.8 5.8-.3 0-.6 0-.9-.1l10.2 1.8c.2-1.5.4-3.3.5-5.3.2-3.5.5-6.5.8-9.2l-42.6-7.3c-2-.4-3.4-2.3-3-4.3L238 51.5c.3-2 2.3-3.4 4.3-3l66.6 11.4c2 .3 3.4 2.3 3 4.3l-14 81.7c.4.2.8.5 1.2.8l10.8-63.2zm-32.4-40.7c.4.1.7.5.7.9-.1.4-.5.7-.9.7-.4-.1-.7-.5-.7-.9 0-.5.4-.8.9-.7zM263.3 48c-.7-.1-1.1-.7-1-1.4.1-.7.7-1.1 1.4-1 .7.1 1.1.7 1 1.4-.1.6-.7 1.1-1.4 1zm20.1 2.2c-.1.3-.4.5-.7.5l-12.9-2.2c-.3-.1-.5-.4-.5-.7v-.1c.1-.3.4-.5.7-.5l12.9 2.2c.4.1.6.4.5.8z" fill="#cbcbcb"/>
  <path d="M255.2 184.5c.6-.4 1.1-1.1 1.2-1.9.3-1.6-.8-3.1-2.4-3.4h-.5c-1.6 0-2.9 1.3-2.9 2.9s1.3 2.9 2.9 2.9c.7.1 1.3-.1 1.7-.5z" fill="#cbcbcb"/>
  <path d="M231.5 72.1zm45.9 9.8c-.2.2-.5.4-.6.7-.2.3-.3.6-.3.9-.1.3-.1.7 0 1l.3.9c.2.3.4.5.6.6.6.4 1.3.5 1.9.3.3-.1.6-.2.8-.4.2-.2.5-.4.6-.7.2-.3.3-.6.3-1 .1-.3.1-.7 0-1l-.3-.9c-.2-.3-.4-.5-.6-.6-.3-.2-.6-.3-.9-.4h-.5c-.2 0-.3 0-.5.1-.2.2-.5.3-.8.5zm10.9 2.5c.2-.1.3-.3.3-.4v-.3c0-.1-.1-.1-.1-.2-.1-.1-.2-.2-.3-.2-.2-.1-.4-.1-.6-.2l-.7-.1-.2 1.3.8.1c.2.2.5.1.8 0zm-7.2 11.7c-.1-.1-.2-.2-.3-.2-.1-.1-.2-.1-.4-.2-.1 0-.3-.1-.4-.1-.3-.1-.7-.1-1 0-.3.1-.6.2-.8.4-.2.2-.5.4-.6.7-.2.3-.3.6-.3 1-.1.3-.1.7 0 1l.3.9c.1.1.2.3.3.4l3.9-3.2c-.2 0-.4-.2-.5-.3 0-.3-.1-.3-.2-.4zm-27.9-18.5c-.3.2-.5.4-.6.7-.2.3-.3.6-.3.9-.1.3-.1.7 0 1l.3.9c.2.3.4.5.6.6.3.2.6.3.9.4.3.1.7.1 1 0 .3-.1.6-.2.8-.4.2-.2.5-.4.6-.7.2-.3.3-.6.3-1 .1-.3.1-.7 0-1l-.3-.9c-.2-.3-.4-.5-.6-.6-.3-.2-.6-.3-.9-.4h-.5c-.2 0-.3 0-.5.1-.3.1-.6.2-.8.4zM251 91.2c-.2.2-.5.4-.6.7-.2.3-.3.6-.3.9-.1.3-.1.7 0 1l.3.9c.2.3.4.5.6.6.3.2.6.3.9.4.3.1.7.1 1 0 .3-.1.6-.2.8-.4.2-.2.5-.4.6-.7.2-.3.3-.6.3-1 .1-.3.1-.7 0-1l-.3-.9c-.2-.3-.4-.5-.6-.6-.3-.2-.6-.3-.9-.4h-.5c-.2 0-.4 0-.5.1-.3 0-.6.2-.8.4z" fill="#4d4d4d"/>
  <path d="M311.2 61.4c-.6-.8-1.4-1.4-2.4-1.5l-66.6-11.4c-2-.3-4 1-4.3 3l-19.4 113.1c-.3 2 1 4 3 4.3l42.6 7.3c.1-.7.1-1.3.2-2s.1-1.3.2-2c.2-2.4.5-4.7.6-7.2.1-3.1.4-6.2 1-9.2l-17.4 13.7-2.1 1.7-1.6 1.2-9.5-1.7 1.5-1.2 2.1-1.7 58.8-46.3 2.3-1.8 1.9-1.5-1.8 10.7-1.9 1.5-2.3 1.8-12.9 10.1c.2 0 .4 0 .7-.1 3.5-.1 6.9.4 10.2 1.6.6.2 1.3.5 1.9.8.6.3 1.3.6 1.9 1l14-81.7c.1-.7-.1-1.7-.7-2.5zm-19.4 23.5l.9-2c.1-.3.5-.5.8-.4h.2c.4.1.7.5.6.9 0 .1 0 .1-.1.2l-.9 2c-.1.3-.4.4-.7.4h-.3c-.4-.1-.7-.5-.6-.9.1-.1.1-.2.1-.2zm-6.5-3.1c0-.2.1-.4.3-.5.2-.1.4-.2.6-.1l1.8.3c.3 0 .6.1.8.2.3.1.6.3.8.5.3.2.5.5.6.9.1.4.2.8.1 1.2-.1.7-.6 1.4-1.3 1.7-.2.1-.3.1-.5.2l1 2.6c.1.4 0 .8-.4 1h-.6c-.3 0-.5-.2-.6-.5l-1.2-3.2-.3-.1-.4 2.5c-.1.4-.5.7-.9.6h-.2c-.4-.1-.7-.5-.6-.9l1-6.4zm-10.5 1.4c.1-.6.3-1.1.6-1.6s.6-.8 1.1-1.2c.4-.3.9-.5 1.4-.6 1.1-.2 2.2 0 3.2.6.4.3.8.7 1.1 1.1.3.4.5.9.6 1.5.2 1.1 0 2.3-.6 3.3-.3.5-.6.8-1.1 1.2-.4.3-.9.5-1.4.6-.3.1-.6.1-.9.1-.3 0-.5 0-.8-.1-.5-.1-1.1-.3-1.5-.6-.4-.3-.8-.7-1.1-1.1-.3-.4-.5-.9-.6-1.5-.1-.6-.1-1.1 0-1.7zm-6.3-4.4c.1-.4.5-.7.9-.6l4.5.8c.4.1.7.5.6.9v.2c-.1.4-.5.7-.9.6l-1.4-.3-1 5.5c-.1.4-.4.6-.7.6h-.3c-.4-.1-.7-.5-.6-.9l1-5.5-1.4-.3c-.4-.1-.7-.5-.6-.9l-.1-.1zm5.7 15l-1.1 6.4c-.1.4-.4.6-.7.6h-.3c-.4-.1-.7-.5-.6-.9l1.1-6.4c.1-.4.5-.7.9-.6h.2c.3.1.6.5.5.9zm-4.8 1.4c.2 0 .4.1.5.3.1.2.2.4.1.6v.2c-.1.4-.5.7-.9.6l-2.5-.4-.4 2.5c-.1.4-.4.6-.7.6h-.3c-.4-.1-.7-.5-.6-.9l1.1-6.4c0-.2.1-.4.3-.5.2-.1.4-.2.6-.1l3.6.6c.4.1.7.5.6.9v.2c0 .2-.1.4-.3.5-.2.1-.4.2-.6.1l-2.7-.5-.2 1.3 2.4.4zm-9.2-14.5c.1-.6.3-1.1.6-1.6.5-.9 1.4-1.6 2.5-1.8 1-.2 2.1-.1 3 .5.4.2.8.6 1.1 1 .2.3.1.8-.2 1l-.2.1c-.3.3-.8.2-1.1-.1v-.1c-.1-.1-.2-.2-.2-.3-.1-.1-.2-.2-.3-.2-.1-.1-.2-.1-.4-.2-.1 0-.3-.1-.4-.1-.3-.1-.7-.1-1 0-.3.1-.6.2-.8.4-.2.2-.5.4-.6.7-.2.3-.3.6-.3 1-.1.3-.1.7 0 1l.3.9c.2.3.4.5.6.6.3.2.6.3.9.4.3.1.6 0 .9 0 .3-.1.5-.2.7-.4.2-.1.4-.2.6-.2.2 0 .4.1.5.3l.1.2c.2.3.2.8-.1 1-.4.4-.9.6-1.5.7-.3.1-.6.1-.8.1-.8 0-1.6-.2-2.3-.7-.9-.6-1.5-1.5-1.7-2.6 0-.5 0-1.1.1-1.6zm-1 9.9c.2-.1.4-.2.6-.1l3.6.6c.4.1.7.5.6.9v.2c-.1.4-.5.7-.9.6l-2.7-.5-.2 1.3 2.5.4c.4.1.7.5.6.9v.2c-.1.4-.5.7-.9.6l-2.5-.4-.4 2.5c-.1.4-.4.6-.7.6h-.3c-.4-.1-.7-.5-.6-.9l1.1-6.4c-.1-.2 0-.4.2-.5zM250.5 79c.1-.6.3-1.1.6-1.6s.6-.8 1.1-1.2c.4-.3.9-.5 1.4-.6 1.1-.2 2.2 0 3.2.6.4.3.8.7 1.1 1.1.3.4.5.9.6 1.5.2 1.1 0 2.3-.6 3.3-.3.5-.6.8-1.1 1.2-.4.3-.9.5-1.4.6-.3.1-.6.1-.9.1-.3 0-.5 0-.8-.1-.5-.1-1.1-.3-1.5-.6-.4-.3-.8-.7-1.1-1.1-.3-.4-.5-.9-.6-1.5-.1-.6-.1-1.2 0-1.7zm-.5 10.8c.4-.3.9-.5 1.4-.6 1.1-.2 2.2 0 3.2.6.4.3.8.7 1.1 1.1.3.4.5.9.6 1.5.2 1.1 0 2.3-.6 3.3-.3.5-.6.8-1.1 1.2-.4.3-.9.5-1.4.6-.3.1-.6.1-.9.1-.3 0-.5 0-.8-.1-.5-.1-1.1-.3-1.5-.6-.4-.3-.8-.7-1.1-1.1-.3-.4-.5-.9-.6-1.5-.2-1.1 0-2.3.6-3.3.3-.5.6-.9 1.1-1.2zm-7.4-15.5c.1-.4.5-.7.9-.6l1.8.3c.5.1 1.1.3 1.5.5.5.2.9.6 1.3 1s.6.9.7 1.4c.1.6.1 1.2 0 1.8-.1.6-.3 1.2-.6 1.7-.3.4-.7.8-1.2 1.1-.5.3-1 .4-1.5.5h-.6c-.3 0-.7 0-1-.1l-1.8-.3c-.4-.1-.7-.5-.6-.9l1.1-6.4zm60.5 38.7l-1.9 1.5-2.3 1.8-64.6 50.8-2.1 1.7-1.7 1.4-9-1.6c-1.6-.2-2.8-1.7-2.6-3.4l3.6-20.7 1.9-1.5 2.4-1.9 50-40.1c-.1-.2-.3-.3-.4-.5-.3-.4-.5-.9-.6-1.5-.2-1.1 0-2.3.6-3.2.3-.5.6-.9 1.1-1.2.4-.3.9-.5 1.4-.6 1-.2 2.1-.1 3 .5.4.2.8.6 1.1 1 .1.1.1.3.1.5L296 85.7v-.4c.1-.7.6-1.3 1.2-1.7.3-.2.6-.3.9-.3h.7l6.8-5.5 2.4-1.9 1.9-1.5-6.8 38.6z" fill="#4d4d4d"/>
  <path d="M244.2 80.2c.4.1.8.1 1.1.1.3 0 .6-.1.9-.3.3-.1.5-.3.6-.6.4-.6.5-1.4.4-2.1-.1-.3-.2-.5-.4-.8-.2-.2-.5-.4-.7-.5-.3-.2-.7-.3-1.1-.3l-.8-.1-.8 4.5.8.1zm65.7 3.3v-.3.3z" fill="#4d4d4d"/>
  <path d="M234.4 41.6c-.6 0-1.1.1-1.6.4-.5.3-.8.9-.9 1.5l-1 5.9c-.2 1.1.5 2.2 1.6 2.6l-.7 3.9c-.5 0-1 .2-1.4.5-.5.3-.8.9-.9 1.5l-2 11.6c-.1.7.1 1.5.7 2-.1.1-.2.1-.4.2-.5.3-.8.9-.9 1.5l-2 11.6c-.2 1.1.5 2.2 1.5 2.6l-14.3 83.2c-1.4 8.3 4.2 16.2 12.5 17.7l37.7 6.5c.1-.7.2-1.6.4-2.6.1-.4.1-.9.2-1.3l-10.2-1.8h-.3c-.2 0-.3-.1-.5-.1l-26.7-4.6c-6.1-1.1-10.3-6.9-9.2-13l21.8-126.7c1-6.1 6.9-10.3 13-9.2l54.3 9.3c6.1 1.1 10.3 6.9 9.2 13l-4.4 25.6-.1.3-10.8 63c.6.4 1.1.9 1.7 1.3.7.6 1.3 1.3 1.8 2.1l10.9-63.6c1-.2 1.8-1 1.9-2l2-11.4c.2-1-.3-2-1.2-2.5l2.1-12.2c1.4-8.3-4.2-16.2-12.5-17.7l-54.3-9.3c-7.3-1.3-14.6 3-17 10.2zm-2.9 30.5z" fill="#4d4d4d"/>
  <path d="M269.4 47.8c.1-.4.4-.6.7-.5l12.9 2.2c.3.1.5.4.5.7v.1c-.1.3-.4.5-.7.5l-12.9-2.2c-.4-.2-.6-.5-.5-.8zm7.8-3.4c.4.1.9-.2.9-.7s-.2-.9-.7-.9c-.4-.1-.9.2-.9.7 0 .4.3.8.7.9zm-13.4 1.2c-.7-.1-1.3.3-1.4 1-.1.7.3 1.3 1 1.4.7.1 1.3-.3 1.4-1 .1-.7-.4-1.3-1-1.4z" fill="#4d4d4d"/>
  <path d="M257.5 187.8c1.5-1.1 2.5-2.7 2.8-4.5.7-3.8-1.9-7.4-5.6-8-3.8-.7-7.4 1.9-8 5.6-.6 3.6 1.7 7.1 5.2 7.9l.7.1c.3 0 .6.1.9.1 1.5.1 2.9-.4 4-1.2zm-6.3-4c-.9-1.3-.6-3.1.7-4.1.5-.3 1.1-.5 1.7-.5h.5c1.6.3 2.7 1.8 2.4 3.4-.3 1.6-1.8 2.7-3.4 2.4-.8-.1-1.5-.5-1.9-1.2zm1.2 5.2h.3l-.7-.1c.1 0 .2 0 .4.1z" fill="#424343"/>
  <path d="M220.5 165l3.8-22.1-1.9 1.5-3.6 20.7c-.2 1.6.9 3.1 2.6 3.4l9 1.6 1.7-1.4-10.2-1.8c-1-.1-1.6-1-1.4-1.9z" fill="#4d4d4d"/>
  <path d="M305.5 77.7l-6.8 5.5h.3c.4.1.8.2 1.2.5.4.2.7.5.9.9.2.4.1.8-.3 1l-.2.1c-.4.2-.8.1-1-.2-.1-.1-.2-.3-.3-.3-.2-.1-.3-.2-.5-.2h-.4c-.1 0-.2 0-.4.1-.1 0-.2.1-.2.2-.1.2-.2.4-.1.6 0 .1.1.2.1.2.1.1.2.2.3.2.2.1.3.2.5.3.3.1.5.3.7.4.3.2.5.4.7.6.2.2.4.5.5.8.1.3.1.7.1 1.1-.1.4-.2.7-.4 1-.2.3-.4.5-.7.7-.3.2-.6.3-1 .3h-.4c-.2 0-.4 0-.6-.1-.5-.1-.9-.3-1.3-.5s-.7-.6-.9-.9c-.2-.4-.1-.8.2-1l.2-.1c.3-.2.8-.1 1 .2.1.2.3.3.5.5.2.1.4.2.6.2h.4c.1 0 .2-.1.4-.1.1 0 .2-.1.2-.2.1-.1.1-.2.1-.3V89c0-.1-.1-.2-.2-.3l-.3-.3c-.2-.1-.4-.2-.5-.3-.3-.1-.5-.3-.7-.4-.3-.2-.5-.4-.7-.6-.2-.2-.4-.5-.4-.8-.1-.2-.1-.4-.1-.7l-12.9 10.3c0 .2-.1.4-.3.5l-.2.1c-.2.1-.4.2-.6.2l-3.9 3.2c.1.1.2.2.3.2.3.2.6.3.9.4.3.1.6 0 .9 0 .3-.1.5-.2.7-.4.3-.3.8-.2 1.1.1l.1.2c.2.3.2.8-.1 1-.4.4-.9.6-1.5.7-.3.1-.6.1-.8.1-.8 0-1.6-.2-2.3-.7-.3-.2-.5-.4-.7-.6l-50 40.1-4.1 24.1 11.7 2 64.6-50.8 2.3-1.8 1.9-1.5 6.6-38.6-1.9 1.5-2.3 1.8zm-58.9 74c-.9 5-5.6 8.3-10.6 7.4-5-.9-8.3-5.6-7.4-10.6.9-5 5.6-8.3 10.6-7.4 5 .9 8.3 5.6 7.4 10.6zm43.3-55c-.1.4-.5.7-.9.6l-2.8-.5-.2 1.3 2.6.5c.4.1.7.5.6.9v.2c-.1.4-.5.7-.9.6l-2.6-.5-.3 1.6 2.9.5c.4.1.7.5.6.9v.2c-.1.4-.4.6-.7.6h-.1l-3.9-.7c-.4-.1-.7-.5-.6-.9l1.1-6.4c.1-.4.5-.7.9-.6l3.7.7c.4.1.7.5.6.9v.1z" fill="#4d4d4d"/>
  <path d="M226.6 141l-2.4 1.9-3.8 22.1c-.2.9.5 1.8 1.4 2l10.2 1.8 2.1-1.7-11.7-2 4.2-24.1z" fill="#4d4d4d"/>
  <path d="M307.8 75.8l-2.4 1.9-6.8 5.5h.3c.4.1.8.2 1.2.5.4.2.7.5.9.9.2.4.1.8-.3 1l-.2.1c-.4.2-.8.1-1-.2-.1-.1-.2-.3-.3-.3-.2-.1-.3-.2-.5-.2h-.4c-.1 0-.2 0-.4.1-.1 0-.2.1-.2.2-.1.2-.2.4-.1.6 0 .1.1.2.1.2.1.1.2.2.3.2.2.1.3.2.5.3.3.1.5.3.7.4.3.2.5.4.7.6.2.2.4.5.5.8.1.3.1.7.1 1.1-.1.4-.2.7-.4 1-.2.3-.4.5-.7.7-.3.2-.6.3-1 .3h-.4c-.2 0-.4 0-.6-.1-.5-.1-.9-.3-1.3-.5s-.7-.6-.9-.9c-.2-.4-.1-.8.2-1l.2-.1c.3-.2.8-.1 1 .2.1.2.3.3.5.5.2.1.4.2.6.2h.4c.1 0 .2-.1.4-.1.1 0 .2-.1.2-.2.1-.1.1-.2.1-.3V89c0-.1-.1-.2-.2-.3l-.3-.3c-.2-.1-.4-.2-.5-.3-.3-.1-.5-.3-.7-.4-.3-.2-.5-.4-.7-.6-.2-.2-.4-.5-.4-.8-.1-.2-.1-.4-.1-.7L283 95.9c0 .2-.1.4-.3.5l-.2.1c-.2.1-.4.2-.6.2l-3.9 3.2c.1.1.2.2.3.2.3.2.6.3.9.4.3.1.6 0 .9 0 .3-.1.5-.2.7-.4.3-.3.8-.2 1.1.1l.1.2c.2.3.2.8-.1 1-.4.4-.9.6-1.5.7-.3.1-.6.1-.8.1-.8 0-1.6-.2-2.3-.7-.3-.2-.5-.4-.7-.6l-50 40.1-2.4 1.9-1.9 1.5-3.6 20.7c-.2 1.6.9 3.1 2.6 3.4l9 1.6 1.7-1.4 2.1-1.7 64.6-50.8 2.3-1.8 1.9-1.5 6.6-38.6-1.7 1.5zm-61.2 75.9c-.9 5-5.6 8.3-10.6 7.4-5-.9-8.3-5.6-7.4-10.6.9-5 5.6-8.3 10.6-7.4 5 .9 8.3 5.6 7.4 10.6zm43.3-55c-.1.4-.5.7-.9.6l-2.8-.5-.2 1.3 2.6.5c.4.1.7.5.6.9v.2c-.1.4-.5.7-.9.6l-2.6-.5-.3 1.6 2.9.5c.4.1.7.5.6.9v.2c-.1.4-.4.6-.7.6h-.1l-3.9-.7c-.4-.1-.7-.5-.6-.9l1.1-6.4c.1-.4.5-.7.9-.6l3.7.7c.4.1.7.5.6.9v.1z" opacity=".1" fill="#eee9e0"/>
  <path d="M239.2 141.1c-5-.9-9.7 2.4-10.6 7.4-.9 5 2.4 9.7 7.4 10.6 5 .9 9.7-2.4 10.6-7.4.9-5-2.4-9.7-7.4-10.6zm3.7 11.3c-.2.4-.5.6-.9.5-.1 0-1.3-.5-1.8-.7l-.3-.1c-.3-.1-.4-.4-.4-.7 0-.2-.1-.7-.1-.9-.6-.2-1.1-.3-1.7-.4-.6-.1-1.2-.2-1.8-.2 0 .1-.1.3-.2.5-.1.1-.1.3-.2.3-.1.3-.3.4-.6.5-.2 0-2.1.1-2.3.1-.2 0-.4-.1-.5-.2-.1-.2-.2-.3-.2-.5v-.1c0-.2 0-1.7.5-2 1.4-.9 3.8-.7 5.6-.4 1.8.3 4.1 1 5.1 2.3.3.3 0 1.3-.2 2z" fill="#e28888"/>
  <path d="M238 148.1c-1.8-.3-4.2-.5-5.6.4-.5.3-.5 1.8-.5 2v.1c0 .2.1.4.2.5.1.1.3.2.5.2s2.1 0 2.3-.1c.3-.1.5-.2.6-.5 0-.1.1-.2.2-.3.1-.2.2-.3.2-.5.6 0 1.2.1 1.8.2.6.1 1.2.2 1.7.4 0 .3.1.8.1.9 0 .3.2.5.4.7l.3.1c.5.2 1.7.7 1.8.7.4.1.8-.1.9-.5.2-.8.5-1.7.2-2.1-1-1.2-3.3-1.9-5.1-2.2z" fill="#fff"/>
  <path d="M238 148.1c-1.8-.3-4.2-.5-5.6.4-.5.3-.5 1.8-.5 2v.1c0 .2.1.4.2.5.1.1.3.2.5.2s2.1 0 2.3-.1c.3-.1.5-.2.6-.5 0-.1.1-.2.2-.3.1-.2.2-.3.2-.5.6 0 1.2.1 1.8.2.6.1 1.2.2 1.7.4 0 .3.1.8.1.9 0 .3.2.5.4.7l.3.1c.5.2 1.7.7 1.8.7.4.1.8-.1.9-.5.2-.8.5-1.7.2-2.1-1-1.2-3.3-1.9-5.1-2.2z" opacity=".1" fill="#eee9e0"/>
  <path d="M235.5 170.8l9.5 1.7 1.6-1.3-9.6-1.6z" fill="#4d4d4d"/>
  <path d="M235.5 170.8l9.5 1.7 1.6-1.3-9.6-1.6z" opacity=".1" fill="#eee9e0"/>
  <path d="M237 169.6l9.6 1.6 2.1-1.6-9.6-1.7z" fill="#4d4d4d"/>
  <path d="M237 169.6l9.6 1.6 2.1-1.6-9.6-1.7z" opacity=".1" fill="#eee9e0"/>
  <path d="M298.4 130.6l1.9-1.5 1.8-10.7-1.9 1.5-2.3 1.8-58.8 46.3 9.6 1.6 17.4-13.7c.6-3.6 2.5-6.8 5.2-9.1 2.8-2.4 7.1-3.9 11.9-4.3l12.9-10.1 2.3-1.8z" fill="#4d4d4d"/>
  <path d="M298.4 130.6l1.9-1.5 1.8-10.7-1.9 1.5-2.3 1.8-58.8 46.3 9.6 1.6 17.4-13.7c.6-3.6 2.5-6.8 5.2-9.1 2.8-2.4 7.1-3.9 11.9-4.3l12.9-10.1 2.3-1.8z" opacity=".1" fill="#eee9e0"/>
  <path d="M285.6 205.5c7.1 0 10.1-3.4 11.3-5.5-2.4-1.5-4.1-3.9-4.9-6.6-.3-.9-.5-1.8-.6-2.7-.1-.4-.1-.9-.1-1.3-.6.4-1.2.7-1.8.9-1.3.6-2.7.9-4.2 1-2-.2-4-.9-5.7-2.1 0 1.5 0 2.9-.3 4.4l-.3 1.5c-.2.8-.5 1.6-.9 2.4-.1.2-.2.4-.3.5l-.1.1c-.5.8-1.3 1.5-2.1 1.9.5 2 2.5 5.5 10 5.5zm3.2-29.1zm-10.7-9.9c-2.3.9-4.4 1.9-5.3 3.1-.2.3-.4.7-.4 1 .1 1 .3 2.1.6 3.1.2.7.5 1.5.7 2.2.3.8.7 1.5 1.1 2.2 1 1.8 2.3 3.6 3.8 5.1 2.5 2.6 5.2 4.1 6.7 4.1 2.2 0 5.1-1.7 7.5-4.4 2.6-2.9 4.3-6.4 5.1-10.2 0-1.3-.3-2.5-1.1-3.5-.4-.5-.9-1-1.4-1.4-.4-.3-.8-.6-1.2-.8-.6-.3-1.2-.6-1.9-.9-.6-.3-1.2-.5-1.9-.7-.7-.2-1.4-.5-2.2-.7-.9-.3-1.6-.5-2.3-.8-.2-.1-.4-.2-.6-.2-1.4.6-3 1.2-4.5 1.8-.9.3-1.8.7-2.7 1z" fill="#d6b999"/>
  <path d="M284.7 149.9c-.1 0-.1 0 0 0zm13.4 12.6c-.1-1.7-.4-3.5-.9-5.2-.2-.8-.5-1.6-.9-2.4-.4-.8-.9-1.5-1.6-2l-.1-.1c-.6-.5-1.2-.8-1.8-1.2-2.1-1-4.3-1.6-6.7-1.8.8.3 1.3 1 1.3 1.9v8.4c.2.1.5.2.8.3.4.1.9.3 1.3.4.5.2 1.1.3 1.7.5.6.2 1.3.4 1.9.7.6.2 1.3.5 1.9.8l1.2.6c.5.3 1.1.6 1.6 1 .2.1.3.3.5.4-.1-.7-.2-1.5-.2-2.3zm-13.5-12.6c-2.6.2-5.2.9-7.6 2.1-3.6 1.8-4.5 5.5-4.7 11.2v1.6c.3-.2.7-.4 1-.6 2-1 4-1.8 6-2.5l.3-.1c1.2-.5 2.4-.9 3.5-1.4 0 0 .1 0 .1-.1v-8.4c.2-.7.7-1.5 1.4-1.8zm-9.5 44.4c.1-.5.2-.9.3-1.4.3-2.5.2-5-.1-7.4-1.6-1.7-2.9-3.6-4.1-5.6l-.9 12.1-.1 1.4-.2 1.6h4.9c.1-.3.2-.5.2-.7zm21.4-9.5c-.4.5-.8.9-1.2 1.3-.1 1-.2 2-.1 2.9 0 2.1.7 4.1 1.8 5.8h4.7l-1.8-15.3c-.9 1.8-2 3.6-3.4 5.3.1-.1.1-.1 0 0z" fill="#fad5a8"/>
  <path d="M272.3 169.6c0 .3 0 .7.1 1 0-.4.2-.7.4-1h-.5zm10.2-7.3l-.6.3.6-.3z" fill="#4d4d4d"/>
  <path d="M285.6 209.5c-9.7 0-12.8-5.1-13.7-8.3-1.2.3-2.4.7-3.6 1-4.2 1.1-8.5 2.2-12 4.3-4 2.4-4.2 5.7-4.1 12.2v.5c1.6.5 3.3 1 4.9 1.3 3.4.7 7.3 1.3 11.4 1.8 12.9 1.3 26 1.4 38.9.1 4.1-.4 8.2-1.2 12.2-2.2.5-.1.9-.3 1.4-.5.3-4.4-1-10.5-3.6-12.5-3.1-2.5-11.8-4.8-16.4-5.8-1.8 2.9-5.8 8.1-15.4 8.1z" fill="#e28888"/>
  <path d="M278 197.4c0 .2-.1.4-.2.6.1-.2.2-.4.2-.6zm13.1-9.1l.1-.1v-.1c0 .1-.1.1-.1.2zm3.5-4.5c.1 0 .1 0 0 0l.3-.3-.3.3zm-16.8 2.8s-.1-.1 0 0c-.1-.1 0 0 0 0z" fill="#4d4d4d"/>
  <path d="M302.2 165.4v-.2c0-1.4-.1-2.7-.3-4-.1-1.4-.4-2.7-.7-4-.3-1.4-.8-2.8-1.5-4.1-.4-.8-.9-1.5-1.5-2.2-.3-.3-.6-.7-.9-1-.1-.1-.2-.1-.2-.2-.6-.5-1.2-.9-1.8-1.3-.6-.3-1.2-.7-1.9-.9-2.6-1.1-5.4-1.7-8.2-1.7-3.1 0-6.2.7-9 2-.4.2-.7.3-1 .5-1.7.8-3.2 2.1-4.2 3.6-2.4 3.5-2.7 8.3-2.7 13.5l-.6 7.3-.2 2-.2 2-1.1 14.5-.1 1.4-.2 2.6-.3 3.4c-4.1.9-8 2.4-11.6 4.4-6.2 3.7-6.1 9.3-6.1 15.7v3.3l1.3.5c7.9 3.1 24.3 4.8 40.2 4.8 13.7 0 27-1.3 33.9-4.3l1-.4.2-1.1c.9-5.8-.9-14.1-5-17.4-2.9-2.3-8.8-4.2-13.3-5.5l-4-33.2zm-2.3 14l1.8 15.3H297c-1.1-1.7-1.8-3.7-1.8-5.8 0-1 0-2 .1-2.9.4-.4.8-.9 1.2-1.3l.1-.1c1.3-1.5 2.4-3.3 3.3-5.2zm-22.2 18.7l.1-.1c.1-.2.2-.4.2-.6h.1c.4-.8.7-1.6.9-2.4l.3-1.5c.2-1.4.3-2.9.3-4.4 1.7 1.2 3.6 2 5.7 2.1 1.4 0 2.9-.4 4.2-1l1.8-.9c0 .4.1.9.1 1.3.1.9.3 1.8.6 2.7.8 2.7 2.5 5 4.9 6.6-1.2 2-4.3 5.5-11.3 5.5-7.4 0-9.4-3.5-10-5.5.8-.4 1.6-1 2.1-1.8zm15.1-46.4c.7.3 1.3.7 1.8 1.2l.1.1c.6.6 1.2 1.3 1.6 2 .4.7.7 1.5.9 2.4.5 1.7.8 3.4.9 5.2.1.8.1 1.6.1 2.4-.2-.1-.3-.3-.5-.4-.5-.4-1-.7-1.6-1l-1.2-.6c-.6-.3-1.3-.6-1.9-.8-.7-.3-1.3-.5-1.9-.7-.6-.2-1.2-.4-1.7-.5-.4-.1-.9-.3-1.3-.4-.3-.1-.5-.2-.8-.3v-8.4c0-.8-.5-1.6-1.3-1.9 2.4.1 4.7.7 6.8 1.7zm-7.5 12c.2.1.4.2.6.2.7.2 1.4.5 2.3.8.8.2 1.5.5 2.2.7.7.2 1.3.5 1.9.7.6.3 1.3.6 1.9.9.4.2.8.5 1.2.8.5.4 1 .9 1.4 1.4.7 1 1.1 2.3 1.1 3.5-.8 3.8-2.5 7.3-5.1 10.2-2.4 2.7-5.3 4.4-7.5 4.4-1.5 0-4.2-1.6-6.7-4.1-1.5-1.5-2.7-3.2-3.8-5.1-.4-.7-.8-1.5-1.1-2.2-.3-.7-.5-1.4-.7-2.2-.3-1-.5-2-.6-3.1 0-.3 0-.7-.1-1h.5c.9-1.2 2.9-2.2 5.3-3.1.9-.4 1.8-.7 2.7-1 1.5-.6 3.1-1.1 4.5-1.8zm-12.9-.5c.2-5.7 1-9.4 4.7-11.2 2.4-1.2 4.9-1.9 7.6-2.1h.1c-.7.3-1.2 1-1.2 1.8v8.4s-.1 0-.1.1c-1.1.5-2.3.9-3.5 1.4l-.3.1c-2.1.7-4.1 1.6-6 2.5-.4.2-.7.4-1 .6-.4-.5-.4-1-.3-1.6zm-2.2 30.2l.1-1.4.9-12.1c1.1 2 2.5 3.9 4.1 5.6.4 2.4.4 4.9.1 7.4-.1.5-.2 1-.3 1.4-.1.2-.1.4-.2.6H270l.2-1.5zm-1.8-22.2zm52.3 48.6c-.4.2-.9.3-1.4.5-4 1.1-8 1.8-12.2 2.2-12.9 1.2-26 1.2-38.9-.1-3.8-.4-7.6-1-11.4-1.8-1.7-.4-3.3-.8-4.9-1.3v-.5c-.1-6.5.1-9.8 4.1-12.2 3.5-2.1 7.9-3.2 12-4.3 1.2-.3 2.4-.6 3.6-1 1 3.2 4.1 8.3 13.7 8.3s13.7-5.2 15.1-8.1c4.6 1 13.3 3.3 16.4 5.8 2.9 2 4.3 8.1 3.9 12.5z" fill="#4d4d4d"/>
  <path d="M242.1 81.5l1.8.3c.3.1.7.1 1 .1h.6c.5-.1 1-.2 1.5-.5s.9-.6 1.2-1.1c.3-.5.5-1.1.6-1.7.1-.6.1-1.2 0-1.8-.1-.5-.4-1-.7-1.4-.3-.4-.8-.7-1.3-1-.5-.2-1-.4-1.5-.5l-1.8-.3c-.4-.1-.8.2-.9.6l-1.1 6.4c0 .5.2.9.6.9zm2.9-5.9c.4.1.8.2 1.1.3.3.1.5.3.7.5.2.2.3.5.4.8.1.7 0 1.5-.4 2.1l-.6.6-.9.3c-.4 0-.8 0-1.1-.1l-.8-.1.8-4.5.8.1zm6.1 6.5c.3.4.7.8 1.1 1.1.5.3 1 .5 1.5.6.3 0 .5.1.8.1.3 0 .6 0 .9-.1.5-.1 1-.3 1.4-.6.4-.3.8-.7 1.1-1.2.6-1 .8-2.1.6-3.3-.1-.5-.3-1-.6-1.5-.3-.4-.7-.8-1.1-1.1-1-.6-2.1-.8-3.2-.6-.5.1-1 .3-1.4.6-.4.3-.8.7-1.1 1.2-.6 1-.8 2.1-.6 3.3.1.6.3 1.1.6 1.5zm3.9-4.9c.3.1.6.2.9.4.3.2.5.4.6.6.2.3.3.6.3.9.1.3.1.7 0 1-.1.3-.2.7-.3 1-.2.3-.4.5-.6.7-.2.2-.5.3-.8.4-.3.1-.7.1-1 0-.3-.1-.7-.2-.9-.4-.3-.2-.5-.4-.6-.6-.2-.3-.3-.6-.3-.9-.1-.3-.1-.7 0-1 .1-.3.2-.7.3-.9.2-.3.4-.5.6-.7.2-.2.5-.3.8-.4.2 0 .3-.1.5-.1h.5zm5.8 6.6c.3.4.7.8 1.1 1.1.7.4 1.5.7 2.3.7.3 0 .6 0 .8-.1.5-.1 1.1-.3 1.5-.7.3-.3.4-.7.1-1l-.1-.2c-.1-.2-.3-.3-.5-.3s-.4 0-.6.2c-.2.2-.5.3-.7.4-.3.1-.6.1-.9 0-.3-.1-.6-.2-.9-.4-.3-.2-.5-.4-.6-.6-.2-.3-.3-.5-.3-.9-.1-.3-.1-.7 0-1 .1-.3.2-.7.3-1 .2-.3.4-.5.6-.7.2-.2.5-.3.8-.4.3-.1.7-.1 1 0 .1 0 .3.1.4.1.1 0 .3.1.4.2.1.1.2.2.3.2.1.1.2.2.2.3.2.3.7.4 1 .2h.1l.2-.1c.3-.2.4-.7.2-1-.3-.4-.7-.8-1.1-1-.9-.5-2-.7-3-.5-1 .2-1.9.9-2.5 1.8-.6 1-.8 2.1-.6 3.2 0 .5.2 1 .5 1.5zm8.3-3.9l1.4.3-1 5.5c-.1.4.2.8.6.9h.3c.4 0 .7-.3.7-.6l1-5.5 1.4.3c.4.1.8-.2.9-.6V80c.1-.4-.2-.8-.6-.9l-4.5-.8c-.4-.1-.8.2-.9.6v.2c0 .3.3.7.7.8zm6.3 6.5c.3.4.7.8 1.1 1.1.5.3 1 .5 1.5.6.3 0 .5.1.8.1.3 0 .6 0 .9-.1.5-.1 1-.3 1.4-.6.4-.3.8-.7 1.1-1.2.6-1 .8-2.1.6-3.3-.1-.5-.3-1-.6-1.5-.3-.4-.7-.8-1.1-1.1-1-.6-2.1-.8-3.2-.6-.5.1-1 .3-1.4.6-.4.3-.8.7-1.1 1.2-.6 1-.8 2.1-.6 3.3.1.5.3 1 .6 1.5zm3.8-4.9c.3.1.6.2.9.4.3.2.5.4.6.6.2.3.3.6.3.9.1.3.1.7 0 1-.1.3-.2.7-.3 1-.2.3-.4.5-.6.7-.2.2-.5.3-.8.4-.7.1-1.4 0-1.9-.3-.3-.2-.5-.4-.6-.6-.2-.3-.3-.6-.3-.9-.1-.3-.1-.7 0-1 .1-.3.2-.7.3-.9.2-.3.4-.5.6-.7.2-.2.5-.3.8-.4.2 0 .3-.1.5-.1.2-.2.4-.2.5-.1zm5.6 7.5h.2c.4.1.8-.2.9-.6l.4-2.5.3.1 1.2 3.2c.1.2.3.4.6.5h.3c.4 0 .7-.3.7-.8v-.3l-1-2.6c.2 0 .4-.1.5-.2.7-.3 1.2-.9 1.3-1.7.1-.4.1-.8-.1-1.2-.1-.3-.3-.6-.6-.9-.2-.2-.5-.4-.8-.5-.3-.1-.5-.2-.8-.2l-1.8-.3c-.2 0-.4 0-.6.1-.2.1-.3.3-.3.5l-1.1 6.4c0 .6.3 1 .7 1zm2-6l.7.1c.2 0 .4.1.6.2.1 0 .2.1.3.2.1.1.1.1.1.2v.3c0 .2-.1.3-.3.4-.3.1-.6.1-.9.1l-.8-.1.3-1.4zm5.6 2.9h.3c.3 0 .6-.2.7-.4l.9-2c.2-.4 0-.8-.4-1-.1 0-.1 0-.2-.1h-.2c-.3-.1-.7.1-.8.4l-.9 2c-.2.4 0 .8.4 1 .1.1.1.1.2.1zm3.4.3c.1.3.2.6.4.8.2.2.4.4.7.6.2.1.5.3.7.4.2.1.4.2.5.3l.3.3c.1.1.1.2.2.3v.2c0 .1-.1.2-.1.3l-.2.2c-.1.1-.2.1-.4.1h-.4c-.2 0-.4-.1-.6-.2-.2-.1-.3-.3-.5-.5-.2-.3-.7-.4-1-.2l-.2.1c-.4.2-.5.7-.2 1 .2.4.6.7.9.9.4.3.9.4 1.3.5.2 0 .4 0 .6.1h.4c.3 0 .7-.2 1-.3.3-.2.5-.4.7-.7.2-.3.4-.6.4-1 .1-.4.1-.7-.1-1.1-.1-.3-.3-.6-.5-.8-.2-.2-.4-.4-.7-.6-.2-.1-.5-.3-.7-.4-.2-.1-.3-.2-.5-.3-.1-.1-.2-.2-.3-.2-.1-.1-.1-.1-.1-.2 0-.2 0-.4.1-.6l.2-.2c.1-.1.2-.1.4-.1h.4c.2 0 .4.1.5.2l.3.3c.2.4.7.5 1 .3l.2-.1c.3-.2.5-.7.3-1-.2-.4-.5-.7-.9-.9-.4-.2-.8-.4-1.2-.5h-1c-.3 0-.6.1-.9.3-.6.3-1.1 1-1.2 1.7v.4c.1.1.2.4.2.6zm-47.5 6.3c-.1.6-.1 1.1 0 1.7.1.5.3 1 .6 1.5.3.4.7.8 1.1 1.1.5.3 1 .5 1.5.6.3 0 .5.1.8.1.3 0 .6 0 .9-.1.5-.1 1-.3 1.4-.6.4-.3.8-.7 1.1-1.2.6-1 .8-2.1.6-3.3-.1-.5-.3-1-.6-1.5-.3-.4-.7-.8-1.1-1.1-1-.6-2.1-.8-3.2-.6-.5.1-1 .3-1.4.6-.4.3-.8.7-1.1 1.2-.3.5-.5 1-.6 1.6zm4.5-1.7c.3.1.6.2.9.4.3.2.5.4.6.6.2.3.3.6.3.9.1.3.1.7 0 1-.1.3-.2.7-.3 1-.2.3-.4.5-.6.7-.2.2-.5.3-.8.4-.3.1-.7.1-1 0-.3-.1-.6-.2-.9-.4-.3-.2-.5-.4-.6-.6-.2-.3-.3-.6-.3-.9-.1-.3-.1-.7 0-1 .1-.3.2-.7.3-.9.2-.3.4-.5.6-.7.2-.2.5-.3.8-.4.2 0 .3-.1.5-.1.2-.1.3-.1.5 0zm5.1 7.2c.1.2.3.3.5.3h.3c.4 0 .7-.3.7-.6l.4-2.5 2.5.4c.4.1.8-.2.9-.6v-.2c.1-.4-.2-.8-.6-.9l-2.5-.4.2-1.3 2.7.5c.4.1.8-.2.9-.6v-.2c.1-.4-.2-.8-.6-.9l-3.6-.6c-.4-.1-.8.2-.9.6l-1.1 6.4c0 .2 0 .4.2.6zm12-4c.2 0 .4 0 .6-.1.2-.1.3-.3.3-.5v-.2c.1-.4-.2-.8-.6-.9l-3.6-.6c-.2 0-.4 0-.6.1-.2.1-.3.3-.3.5l-1.1 6.4c-.1.4.2.8.6.9h.3c.4 0 .7-.3.7-.6l.4-2.5 2.5.4c.4.1.8-.2.9-.6v-.2c0-.2 0-.4-.1-.6-.1-.2-.3-.3-.5-.3l-2.5-.4.2-1.3 2.8.5zm3.7-1.1h-.2c-.4-.1-.8.2-.9.6l-1.1 6.4c-.1.4.2.8.6.9h.3c.4 0 .7-.3.7-.6l1.1-6.4c.2-.4-.1-.8-.5-.9zm3.7 8.6c.7.4 1.5.7 2.3.7.3 0 .6 0 .8-.1.5-.1 1.1-.3 1.5-.7.3-.3.4-.7.1-1l-.1-.2c-.2-.3-.7-.4-1.1-.1-.2.2-.5.3-.7.4-.3.1-.6.1-.9 0-.3-.1-.6-.2-.9-.4-.1-.1-.2-.2-.3-.2-.1-.1-.2-.2-.3-.4-.2-.3-.3-.5-.3-.9-.1-.3-.1-.7 0-1 .1-.3.2-.7.3-1 .2-.3.4-.5.6-.7.2-.2.5-.3.8-.4.3-.1.7-.1 1 0 .1 0 .3.1.4.1.1 0 .3.1.4.2.1.1.2.2.3.2.1.1.2.2.2.3.1.2.3.3.5.3s.4 0 .6-.2l.2-.1c.2-.1.3-.3.3-.5s0-.3-.1-.5c-.3-.4-.7-.8-1.1-1-.9-.5-2-.7-3-.5-.5.1-1 .3-1.4.6-.4.3-.8.7-1.1 1.2-.6 1-.8 2.1-.6 3.2.1.5.3 1 .6 1.5.1.2.3.3.4.5.1.3.3.5.6.7zm12.1-5.8l-3.7-.7c-.4-.1-.8.2-.9.6l-1.1 6.4c-.1.4.2.8.6.9l3.9.7h.1c.4 0 .7-.3.7-.6v-.2c.1-.4-.2-.8-.6-.9l-2.9-.5.3-1.6 2.6.5c.4.1.8-.2.9-.6v-.2c.1-.4-.2-.8-.6-.9l-2.6-.5.2-1.3 2.8.5c.4.1.8-.2.9-.6v-.2c0-.4-.2-.8-.6-.8z" fill="#fff"/>
  <path d="M222.1 37.9h.3c1 0 1.8-.7 2-1.7.9-5.8 3.5-10.5 7.5-13.2 3.8-2.6 8.4-3.3 13.6-2.1 1.1.2 2.1-.4 2.4-1.5.2-1.1-.4-2.1-1.5-2.4-6.2-1.4-12-.5-16.7 2.7-4.9 3.3-8.2 9-9.2 15.9-.2 1.1.6 2.1 1.6 2.3z" fill="#aed7f0"/>
  <path d="M212.6 34.1c1.1.2 2.1-.6 2.3-1.7 1.3-8.4 5.2-15.3 11-19.2 5.5-3.8 12.4-4.9 19.9-3.1 1.1.2 2.1-.4 2.4-1.5.2-1.1-.4-2.1-1.5-2.4-8.6-2-16.6-.7-23 3.7-6.7 4.6-11.2 12.4-12.7 21.9-.3 1.1.5 2.1 1.6 2.3z" fill="#aed7f0"/>
  <path d="M152.2 104.3c0 1 .8 1.9 1.9 1.9h27.5c1 0 1.9-.8 1.9-1.9V83.8c0-1-.8-1.9-1.9-1.9H154c-1 0-1.9.8-1.9 1.9v20.5zm13.7-14c1.2-.9 2.8-.9 3.9 0l.1.1c.8.7 1.1 1.8.8 2.9-.2.6-.5 1.1-1 1.4l.5 3.4c0 .3-.2.6-.4.6h-3.5c-.3 0-.6-.2-.6-.6V98l.4-3.3c-.5-.4-.8-.9-1-1.5-.3-1.1 0-2.2.8-2.9z" fill="#fad5a8"/>
  <path d="M154 110.2h27.5c3.2 0 5.9-2.6 5.9-5.9v-7.4c.2 0 .5.1.7.1h.3c1.1 0 2-.9 2-2 0-1-.7-1.8-1.7-2-.4-.1-.9-.1-1.3-.2v-9.1c0-3.2-2.6-5.9-5.9-5.9h-.5c.1-3.1-.3-8.6-3.7-12.5-2.4-2.7-5.7-4.1-9.9-4.1-3.4-.1-6.7 1.2-8.9 3.7-3.4 3.9-3.8 9.7-3.8 12.9h-.7c-3.2 0-5.9 2.6-5.9 5.9v20.6c.1 3.3 2.7 5.9 5.9 5.9zm7.5-42.5a7.7 7.7 0 015.9-2.4c3.1 0 5.3.9 6.9 2.7 2.5 2.9 2.8 7.4 2.7 9.9h-18.3c-.1-2.6.2-7.4 2.8-10.2zM154 81.9h27.5c1 0 1.9.8 1.9 1.9v20.6c0 1-.8 1.9-1.9 1.9H154c-1 0-1.9-.8-1.9-1.9V83.8c.1-1.1.9-1.9 1.9-1.9z" fill="#4d4d4d"/>
  <path d="M165.1 93.1c.1.6.5 1.1 1 1.5l-.4 3.3c0 .3.2.6.5.6h3.5c.3 0 .5-.2.5-.5v-.1l-.5-3.4c.5-.3.8-.8 1-1.4.4-1 .1-2.1-.8-2.9l-.1-.1c-1.1-.9-2.7-.9-3.8 0l-.1.1c-.8.8-1.1 1.9-.8 2.9z" fill="#4d4d4d"/>
</svg>
