<?xml version="1.0"?>
<svg xmlns="http://www.w3.org/2000/svg" viewBox="0 0 277 221">
  <path d="M210.1 87.6h-26.4c.3.7.4 1.4.1 2.1 0 .1.1.2.1.3.4.8.6 1.7.7 2.7l.6.3c.1.1.2.2.4.3h18.8c.4 0 .8 0 1.2-.1.7 0 1.4-.1 2-.2.6-.2 1.1-.5 1.5-.8-.1-.5-.1-1.1.1-1.6.2-1.1.5-2.1.9-3zm-46.3-7.9zm2.7 99.6c0 .2 0 .5-.1.7.3-.3.6-.6.9-.8-.3 0-.5 0-.8.1z" fill="none"/>
  <path d="M137.9 181.4c-.6-.2-1.2-.1-1.7.3l.5.3 1.2-.6zm41.8-92c-.4-.1-.7-.2-1-.3l-.3-.1c-.8-.2-1.6-.5-2.4-.9 0 .1-.1.2-.1.3-.2.5-.4.9-.8 1.3l-.2.2c-.1.7-.7 1.3-1.4 1.5-.1 0-.2.1-.4.1-.3.7-.6 1.3-.8 2 1-.2 2-.3 3-.3h4.9c.1-.1.1-.2.2-.3.1-.4 0-.9-.3-1.3-.2-.4-.3-.8-.5-1.2.1-.3 0-.6.1-1zm-18.5 88.8l-.4 1c.2-.1.3-.2.4-.3 0-.2-.1-.3-.1-.5.1-.1.1-.2.1-.2zm72.2-89.8c0-.1 0-.2.2-.8h-19.1c-.6 1.2-1.1 2.5-1.4 3.8v.1c.1.6.1 1.2 0 1.7h20.3c0-.1 0-.2.1-.2-.3-.5-.5-1-.5-1.6 0-.8.1-1.6.3-2.4 0-.3.1-.5.1-.6zm-73.5 87.9l-.1.1 1.4 1.3c0-.1.1-.3.2-.4-.1-.1-.1-.2-.2-.3-.3-.4-.8-.7-1.3-.7z" fill="#bcd7aa"/>
  <path d="M51.5 109C37.1 103.8 25.7 92.7 20 78.5c-.1.1-.2.3-.2.4-.6 1-1.1 2.1-1.5 3.2-.5 1.4-1.1 2.6-1.6 3.8-1.3 2.3-2.1 4.9-2.3 7.5-.2 2.2-.7 4.3-1.5 6.3-.2.6-.4 1.2-.7 1.9-.4 1.5-.4 3.1-.2 4.6.1 1.4.1 2.8 0 4.3-.2 1.8.2 2.8 1.1 4.7.2.4.4.8.5 1.2.2.5.3 1 .3 1.5.7.1 1.4.6 1.6 1.3.7.7 1.1 1.8.9 2.8-.1.8-.7 1.4-1.4 1.6h-.1l.1.1.2.2c.4.1.7.4 1 .6.6.7.8 1.7.5 2.6-.1.3-.2.6-.4.8v.7c0 .6.1 1.1.3 1.7.3.7.6 1.5.9 2.2.5 1 .9 2 1.2 3 .2.9.2 1.8.1 2.7 0 .2-.1.5-.1.6.4 1.3 2.5 2.4 4.3 3.3 1.2.6 2.3 1.3 3.3 2 2.1 1.7 3.6 3.9 4.6 6.4.2.6.4 1.2.5 1.9.1.7.3 1.3.6 1.9.8.8 2.8.7 4.7.6 2-.1 4.1-.2 5.7.8.9.6 1.6 1.3 2.3 2 .5.5 1 1 1.6 1.5 2.2 1.4 4.5 2.7 6.8 3.9 4.1 2.2 15.7 5.7 17.7 4.4v-.1c-.1-1.1.6-2.1 1.7-2.2h.5c.7.1 1.5.1 2.2.1 2.1-.2 4.3.2 6.2 1.1 3.4 1.9 6.7 6.2 8.4 9.6.3.7.6 1.3.9 1.9.9 2 1.4 3.1 3.3 4.4.3.2.7.5 1 .7.1-.1.1-.2.2-.3.5-.7 1-1.4 1.7-2 1.2-1.2 2.9-1.9 4.6-2 .3 0 .6 0 .9.1 3.2.5 6 3.4 7.4 5.9.4.7.7 1.4 1.1 2.1l.9 1.8c.4.6.8 1.1 1.3 1.6.9.9 1.6 1.8 2.2 2.9.4 1 .8 2.1 1 3.1.5 1.9.7 2.7 2.6 3.8 1.5.8 3 1.4 4.6 1.9-.1-.3-.2-.6-.2-.7-.1-.3-.2-.7-.3-1.1-.1-.4-.1-.7-.2-.9-.2-.9-.2-1.8-.1-2.6.1-.6.2-1.2.5-1.8.1-.3.2-.6.3-.8-.7-.9-.6-2.1.3-2.8.2-.2.5-.3.7-.4.4-.1.8-.1 1.2 0 .9-.8 1.7-1.8 2.4-2.8.1-.2.3-.4.5-.6.6-.5 1.4-.8 2.3-.8.4 0 .9-.1 1.3-.3.8-.4 1.4-1 1.9-1.8.3-.4.6-.8 1-1.2-.2-.6-.3-1.2 0-1.8.4-.9 1.3-1.5 2.2-1.5.7 0 1.3.2 1.7.8 1.6-.6 3.3-1 5-1.3 1.1-.1 2.3.1 3.4.4.7.2 1.5.4 2.3.3.3-.1.5-.2.8-.4 1.9-1.4 3.4-.5 5.1.8.3.2.6.5.9.7.4.4.9.7 1.4.8.3-.1.6-.2 1-.3.3-.1.7-.1 1-.2 1-.4 1.9-1 2.5-1.9-.1 0-.1-.1-.2-.1-1 .6-2.2.7-3.3.1-1-.7-1.3-2.1-.7-3.1.3-.6.8-1.1 1.5-1.3.9-.2 1.8-.1 2.5.4l.1.1c.2.1.4.2.6.4.1 0 .3-.1.4-.1 1.1-.5 2.3-.8 3.5-1 .7-.1 1.4-.3 2-.6v-.1c0-1.1.9-2 2-2 .2 0 .3 0 .5.1.9.2 1.6 1 1.7 1.9.6-.1 1.1-.2 1.7-.2 1.7-.3 3.3-.5 5-.5 1.3.2 2.5.6 3.6 1.3h4.7c1-1.1 2.5-1.5 3.9-1 .6.2 1.2.5 1.7 1h9.3c-1.2-2.3-1.9-4.9-1.9-7.5h-22.6c-9.1 0-16.5-7.4-16.5-16.5s7.4-16.5 16.5-16.5H219c.4-.7 1-1.2 1.7-1.3-.4-.7-1-1.7-1.9-2.9-.3-.4-.6-.8-.8-1.2-.3-.6-.4-1.2-.4-1.8h-42.1c-9.4 0-17-7.6-17-17 0-4.4 1.7-8.7 4.8-11.9.1-.5.3-1.1.4-1.6l.3-1.2c-1.1.2-2.1-.5-2.3-1.6-.1-.4 0-.8.2-1.2.3-.7.7-1.4 1.3-1.9.1-.2.1-.4.2-.5.5-1.7 1.5-3.3 2.8-4.5.4-.3 1-.4 1.5-.4.1-.4.4-.8.8-1-.2-.1-.4-.3-.5-.4-.7.2-1.3.3-2 .2-1-.1-2-.3-3-.8-.6-.3-1.3-.5-2-.5-1 .1-1.9-.5-2.2-1.4-.6.5-1.2 1-1.8 1.3-.2.1-.5.3-.8.5-.8.6-1.7 1.1-2.6 1.4-.4.1-.9.1-1.3.1h-.8c-.6.1-1.2-.1-1.7-.6-.1-.1-.2-.3-.3-.4-.4.1-.7.3-1 .4l-1.5.6c-1.1.2-2.1-.5-2.4-1.5-.2-.7.1-1.4.6-1.9.6-.5 1.2-1.2 1.8-1.8.9-1 1.9-2 3-2.8h-.5c-1 .1-2 0-3-.1-1.1-.2-2.1-.6-3.1-1.1-.6-.3-1.2-.6-1.8-.7-.6-.1-1.2-.1-1.8-.1-1.7.2-3.4-.2-4.9-1.1-.4-.3-.8-.8-1-1.3-.5.2-1.1.3-1.6.2-1.9.4-3.8.4-5.6.1-.8-.1-1.5-.1-2-.1h-.5l4.4 66L51.5 109z" fill="#bcd7aa"/>
  <path d="M187.8 175h5.7c-.5-.4-1.1-.7-1.7-1-1.4-.5-3-.1-4 1z" fill="#4d4d4d"/>
  <path d="M183.4 149c-.3-.2-.7-.4-1.1-.5-.5-.1-1-.2-1.5-.2h-1.1v6h1.1c.5 0 1-.1 1.5-.2.4-.1.8-.3 1.1-.5.3-.2.5-.5.7-.9.2-.4.3-.9.3-1.4 0-.5-.1-1-.3-1.4-.2-.4-.4-.7-.7-.9zm31.6-.5c-.1-.1-.3-.1-.5-.2-.3 0-.5-.1-.8-.1h-.9v1.8h1.1c.4 0 .8-.1 1.2-.3.2-.1.3-.4.2-.6 0-.1 0-.3-.1-.4 0-.1-.1-.2-.2-.2z" fill="#fff"/>
  <path d="M247 151c0-7.5-6-13.5-13.5-13.5h-55.2c-7.5 0-13.5 6-13.5 13.5s6 13.5 13.5 13.5h55.2c7.4 0 13.5-6.1 13.5-13.5zm-60.9 2.6c-.3.7-.7 1.2-1.3 1.7-.5.4-1.2.8-1.8 1-.7.2-1.4.3-2.1.3h-2.4c-.6 0-1-.4-1-1V147c0-.6.4-1 1-1h2.4c.7 0 1.4.1 2.1.3.7.2 1.3.5 1.9 1 .5.5 1 1 1.3 1.7.5 1.4.5 3.1-.1 4.6zm10.2 1.9c0 .6-.4 1-1 1h-5.1c-.6 0-1-.4-1-1V147c0-.6.4-1 1-1h5c.6 0 1 .4 1 1v.2c0 .6-.4 1-1 1h-3.7v1.7h3.4c.6 0 1 .4 1 1v.2c0 .6-.4 1-1 1h-3.4v2h3.9c.6 0 1 .4 1 1l-.1.4zm11.5-.5c0 .4-.2.7-.5.9l-1.5.6c-.7.2-1.4.3-2.1.3-.8 0-1.5-.1-2.2-.4-1.3-.5-2.4-1.6-2.9-2.9-.3-.7-.4-1.4-.4-2.1 0-.7.1-1.5.4-2.1.5-1.3 1.5-2.4 2.9-2.9 1.3-.5 2.8-.5 4.1-.1.6.2 1.1.5 1.6.9.4.4.5 1 .1 1.4l-.1.1-.2.2c-.4.4-1 .4-1.4 0-.1-.1-.2-.2-.3-.2-.2-.1-.3-.2-.5-.2-.2-.1-.4-.1-.6-.1-.6-.1-1.3 0-1.9.2-.4.2-.7.4-1 .7-.3.3-.5.6-.6 1-.2.4-.2.8-.2 1.3 0 .4.1.9.2 1.3s.3.7.6 1c.3.3.6.5 1 .7.9.3 1.8.3 2.7.1.2 0 .3-.1.5-.2v-1.7h-1.2c-.6 0-1-.4-1-1v-.2c0-.6.4-1 1-1h2.5c.6 0 1 .4 1 1v3.4zm9.8 1c-.2.3-.5.5-.9.5h-.3c-.4 0-.7-.2-.9-.5l-2.3-3.8h-.4v3.3c0 .6-.4 1-1 1h-.3c-.6 0-1-.4-1-1V147c0-.6.4-1 1-1h2.4c.4 0 .7 0 1.1.1.4.1.8.2 1.2.5.4.2.7.6 1 1 .3.5.4 1 .4 1.6 0 .5-.1 1-.4 1.5-.2.4-.5.7-.9 1l-.6.3 1.8 3.1c.2.2.2.6.1.9zm9.6-.5c0 .6-.4 1-1 1h-5.1c-.6 0-1-.4-1-1V147c0-.6.4-1 1-1h5c.6 0 1 .4 1 1v.2c0 .6-.4 1-1 1h-3.7v1.7h3.4c.6 0 1 .4 1 1v.2c0 .6-.4 1-1 1h-3.4v2h3.9c.6 0 1 .4 1 1v.4zm2.4 0V147c0-.6.4-1 1-1h5c.6 0 1 .4 1 1v.2c0 .6-.4 1-1 1h-3.7v1.7h3.4c.6 0 1 .4 1 1v.2c0 .6-.4 1-1 1h-3.4v2h3.9c.6 0 1 .4 1 1v.2c0 .6-.4 1-1 1h-5.1c-.7.2-1.1-.2-1.1-.8zm-17.1-85.6l-.9 2.1h1.8zm-24.8 3.8c.3.3.6.5 1 .7.8.3 1.7.3 2.6 0 .4-.2.7-.4 1-.7.3-.3.5-.6.6-1 .2-.4.2-.9.2-1.3s-.1-.9-.2-1.3-.4-.7-.6-1c-.3-.3-.6-.5-1-.7-.8-.3-1.7-.3-2.5 0-.4.2-.7.4-1 .7-.3.3-.5.6-.6 1-.2.4-.2.9-.2 1.3s.1.9.2 1.3c0 .4.2.7.5 1z" fill="#fff"/>
  <path d="M252.8 84.6c7.5 0 13.5-6 13.5-13.5s-6-13.5-13.5-13.5h-75c-7.5 0-13.5 6-13.5 13.5s6 13.5 13.5 13.5h75zm-7.4-17.5c0-.6.4-1 1-1h.4c.3 0 .6.1.8.4l4.3 5.8v-5.2c0-.6.4-1 1-1h.3c.6 0 1 .4 1 1v8.5c0 .6-.4 1-1 1h-.4c-.3 0-.6-.1-.8-.4l-4.3-5.8v5.2c0 .6-.4 1-1 1h-.3c-.6 0-1-.4-1-1v-8.5zm-12.9 2.1c.3-.7.6-1.2 1.1-1.7.5-.5 1.1-.9 1.7-1.2 1.4-.5 2.9-.5 4.3 0 1.3.5 2.3 1.6 2.8 2.9.5 1.4.5 3 0 4.4-.3.6-.6 1.2-1.1 1.7-.5.5-1.1.9-1.7 1.2-1.4.6-2.9.6-4.3 0-.6-.3-1.2-.7-1.7-1.2s-.9-1.1-1.1-1.7c-.5-1.4-.5-3 0-4.4zm-5.2-2.1c0-.6.4-1 1-1h.3c.6 0 1 .4 1 1v8.5c0 .6-.4 1-1 1h-.3c-.6 0-1-.4-1-1v-8.5zm-9.9 0c0-.6.4-1 1-1h6c.6 0 1 .4 1 1v.2c0 .6-.4 1-1 1h-1.9v7.3c0 .6-.4 1-1 1h-.3c-.6 0-1-.4-1-1v-7.3h-1.9c-.6 0-1-.4-1-1v-.2zm-9.6 8.1l3.7-8.5c.2-.4.5-.6.9-.6h.3c.4 0 .8.2.9.6l3.5 8.5c.2.5 0 1.1-.5 1.3-.1.1-.3.1-.4.1h-.2c-.4 0-.8-.2-.9-.6l-.8-1.8h-3.6l-.8 1.8c-.2.4-.5.6-.9.6h-.3c-.6 0-1-.4-1-1 0-.1 0-.2.1-.4zm-10-6c.5-1.3 1.5-2.4 2.8-2.9 1.3-.5 2.7-.6 4-.1.6.2 1.2.6 1.7 1.1.4.4.4 1 0 1.4l-.2.2c-.2.2-.5.3-.7.3-.3 0-.6-.1-.7-.3-.1-.1-.2-.2-.4-.3-.2-.1-.3-.2-.5-.2-.2-.1-.3-.1-.5-.1-.6-.1-1.2 0-1.8.2-.4.2-.7.4-1 .7-.3.3-.5.6-.6 1-.2.4-.2.9-.2 1.3s.1.9.2 1.3.3.7.6 1c.3.3.6.5 1 .7.8.3 1.7.3 2.5 0 .3-.1.6-.3.9-.6.2-.2.4-.3.7-.4.3 0 .5.1.7.3l.2.2c.4.4.4 1 .1 1.4-.5.6-1.1 1-1.8 1.3-.6.3-1.3.4-2 .4s-1.5-.1-2.1-.4c-1.3-.5-2.3-1.6-2.8-2.9-.6-1.6-.6-3.2-.1-4.6zm-12.9 0c.3-.6.6-1.2 1.1-1.7.5-.5 1.1-.9 1.7-1.2 1.4-.6 2.9-.6 4.3 0 1.3.5 2.3 1.6 2.8 2.9.5 1.4.5 3 0 4.4-.3.6-.6 1.2-1.1 1.7-.5.5-1.1.9-1.7 1.2-1.4.6-2.9.6-4.3 0-.6-.3-1.2-.7-1.7-1.2s-.9-1.1-1.1-1.7c-.5-1.4-.5-3 0-4.4zm-7.8 6.4v-8.5c0-.6.4-1 1-1h.3c.6 0 1 .4 1 1v7.3h3.2c.6 0 1 .4 1 1v.2c0 .6-.4 1-1 1h-4.5c-.6 0-1-.4-1-1z" fill="#fff"/>
  <path d="M235.2 73.7c.3.3.6.5 1 .7.8.3 1.7.3 2.6 0 .4-.2.7-.4 1-.7.3-.3.5-.6.6-1 .2-.4.2-.9.2-1.3s-.1-.9-.2-1.3-.4-.7-.6-1c-.3-.3-.6-.5-1-.7-.8-.3-1.7-.3-2.5 0-.4.2-.7.4-1 .7-.3.3-.5.6-.6 1-.2.4-.2.9-.2 1.3s.1.9.2 1.3c0 .4.2.7.5 1z" fill="#fff"/>
  <path d="M184.9 147.3c-.5-.4-1.2-.8-1.9-1-.7-.2-1.4-.3-2.1-.3h-2.4c-.6 0-1 .4-1 1v8.5c0 .6.4 1 1 1h2.4c.7 0 1.4-.1 2.1-.3.7-.2 1.3-.5 1.8-1s1-1 1.3-1.7c.6-1.5.6-3.1 0-4.6-.2-.6-.7-1.2-1.2-1.6zm-.8 5.4c-.2.3-.4.6-.7.9-.3.2-.7.4-1.1.5-.5.1-1 .2-1.5.2h-1.1v-6h1.1c.5 0 1 .1 1.5.2.4.1.7.3 1.1.5.3.2.5.5.7.9.2.4.3.9.3 1.4-.1.5-.1.9-.3 1.4zm11.2 1.6h-3.9v-2h3.4c.6 0 1-.4 1-1v-.3c0-.6-.4-1-1-1h-3.4v-1.7h3.7c.6 0 1-.4 1-1v-.3c0-.6-.4-1-1-1h-5c-.6 0-1 .4-1 1v8.5c0 .6.4 1 1 1h5.1c.6 0 1-.4 1-1v-.2c.1-.6-.3-1-.9-1zm11.5-4h-2.5c-.6 0-1 .4-1 1v.2c0 .6.4 1 1 1h1.2v1.7c-.2.1-.3.1-.5.2-.9.2-1.8.2-2.7-.1-.4-.2-.7-.4-1-.7-.3-.3-.5-.6-.6-1-.2-.4-.2-.9-.2-1.3s.1-.9.2-1.3.4-.7.6-1c.3-.3.6-.5 1-.7.6-.2 1.2-.3 1.9-.2.2 0 .4.1.6.1.2.1.3.1.5.2.1.1.2.2.3.2.4.4 1 .4 1.4 0l.2-.2c.4-.4.4-1 0-1.4l-.1-.1c-.5-.4-1-.7-1.6-.9-1.3-.5-2.8-.4-4.1.1-1.3.5-2.3 1.6-2.9 2.9-.3.7-.4 1.4-.4 2.1 0 .7.1 1.5.4 2.1.5 1.3 1.5 2.4 2.9 2.9.7.3 1.5.4 2.2.4.7 0 1.4-.1 2.1-.3.5-.1 1-.3 1.5-.6.3-.2.5-.5.5-.9V151c.1-.2-.4-.7-.9-.7zm8.9 1.6l.6-.3c.4-.3.7-.6.9-1 .3-.5.4-1 .4-1.5s-.1-1.1-.4-1.6c-.2-.4-.6-.7-1-1-.4-.2-.8-.4-1.2-.5-.4-.1-.7-.1-1.1-.1h-2.4c-.6 0-1 .4-1 1v8.5c0 .6.4 1 1 1h.3c.6 0 1-.4 1-1v-3.3h.4l2.3 3.8c.2.3.5.5.9.5h.3c.6 0 1-.4 1-1 0-.2 0-.4-.1-.5l-1.9-3zm-.6-2.2c-.4.2-.8.3-1.2.3h-1.1v-1.8h.9c.3 0 .5 0 .8.1.2 0 .3.1.5.2.1.1.2.1.2.2.1.1.1.3.1.4 0 .3 0 .5-.2.6zm11.1 4.6h-3.9v-2h3.4c.6 0 1-.4 1-1v-.3c0-.6-.4-1-1-1h-3.4v-1.7h3.7c.6 0 1-.4 1-1v-.3c0-.6-.4-1-1-1h-5c-.6 0-1 .4-1 1v8.5c0 .6.4 1 1 1h5.1c.6 0 1-.4 1-1v-.2c.1-.6-.3-1-.9-1zm10.5 1.2v-.2c0-.6-.4-1-1-1h-3.9v-2h3.4c.6 0 1-.4 1-1v-.3c0-.6-.4-1-1-1h-3.4v-1.7h3.7c.6 0 1-.4 1-1v-.3c0-.6-.4-1-1-1h-5c-.6 0-1 .4-1 1v8.5c0 .6.4 1 1 1h5.1c.7 0 1.1-.4 1.1-1zm-54.1-78.9c.6 0 1-.4 1-1v-.2c0-.6-.4-1-1-1h-3.2v-7.3c0-.6-.4-1-1-1h-.3c-.6 0-1 .4-1 1v8.5c0 .6.4 1 1 1h4.5zm3.5-1.3c.5.5 1.1.9 1.7 1.2 1.4.6 2.9.6 4.3 0 .6-.3 1.2-.7 1.7-1.2s.9-1.1 1.1-1.7c.5-1.4.5-3 0-4.4-.5-1.3-1.5-2.4-2.8-2.9-1.4-.6-2.9-.6-4.3 0-.6.3-1.2.7-1.7 1.2s-.9 1.1-1.1 1.7c-.5 1.4-.5 3 0 4.4.2.6.6 1.2 1.1 1.7zm.9-5.2c.1-.4.4-.7.6-1 .3-.3.6-.5 1-.7.8-.3 1.7-.3 2.5 0 .4.2.7.4 1 .7.3.3.5.6.6 1 .2.4.2.9.2 1.3s-.1.9-.2 1.3-.4.7-.6 1c-.3.3-.6.5-1 .7-.8.3-1.7.3-2.6 0-.4-.2-.7-.4-1-.7-.3-.3-.5-.6-.6-1-.2-.4-.2-.9-.2-1.3.1-.5.2-.9.3-1.3zm11.9 5.2c.5.5 1.1.9 1.7 1.2.7.3 1.4.4 2.1.4.7 0 1.4-.1 2-.4.7-.3 1.3-.7 1.8-1.3.3-.4.3-1-.1-1.4l-.2-.2c-.2-.2-.5-.3-.7-.3-.3 0-.5.1-.7.4-.2.3-.5.5-.9.6-.8.3-1.7.3-2.5 0-.4-.2-.7-.4-1-.7-.3-.3-.5-.6-.6-1-.2-.4-.2-.9-.2-1.3s.1-.9.2-1.3.4-.7.6-1c.3-.3.6-.5 1-.7.6-.2 1.2-.3 1.8-.2.2 0 .4.1.5.1.2.1.3.1.5.2.1.1.3.2.4.3.2.2.5.3.7.3.3 0 .5-.1.7-.3l.2-.2c.3-.4.3-1 0-1.4-.5-.5-1-.8-1.7-1.1-1.3-.5-2.7-.4-4 .1-1.3.5-2.3 1.6-2.8 2.9-.5 1.4-.5 2.9 0 4.3.3.9.7 1.5 1.2 2zm9.8 1.3h.3c.4 0 .8-.2.9-.6l.8-1.8h3.6l.7 1.8c.2.4.5.6.9.6h.3c.6 0 1-.4 1-1 0-.1 0-.3-.1-.4l-3.5-8.5c-.2-.4-.5-.6-.9-.6h-.3c-.4 0-.8.2-.9.6l-3.7 8.5c-.2.5 0 1.1.5 1.3.1.1.3.1.4.1zm3.8-6.7l.9 2.1h-1.7l.8-2.1zm5.9-1.5h1.9v7.3c0 .6.4 1 1 1h.3c.6 0 1-.4 1-1v-7.3h1.9c.6 0 1-.4 1-1v-.2c0-.6-.4-1-1-1h-6c-.6 0-1 .4-1 1v.2c-.1.5.3 1 .9 1zm9.9-2.3h.3c.6 0 1 .4 1 1v8.5c0 .6-.4 1-1 1h-.3c-.6 0-1-.4-1-1v-8.5c0-.5.4-1 1-1zm5.3 9.2c.5.5 1.1.9 1.7 1.2 1.4.6 2.9.6 4.3 0 .6-.3 1.2-.7 1.7-1.2s.9-1.1 1.1-1.7c.5-1.4.5-3 0-4.4-.5-1.3-1.5-2.4-2.8-2.9-1.4-.5-2.9-.5-4.3 0-.6.3-1.2.7-1.7 1.2s-.9 1.1-1.1 1.7c-.5 1.4-.5 3 0 4.4.3.6.6 1.2 1.1 1.7zm1-5.2c.1-.4.4-.7.6-1 .3-.3.6-.5 1-.7.8-.3 1.7-.3 2.5 0 .4.2.7.4 1 .7.3.3.5.6.6 1 .2.4.2.9.2 1.3s-.1.9-.2 1.3-.4.7-.6 1c-.3.3-.6.5-1 .7-.8.3-1.7.3-2.6 0-.4-.2-.7-.4-1-.7-.3-.3-.5-.6-.6-1-.2-.4-.2-.9-.2-1.3.1-.5.1-.9.3-1.3zm11.8 6.5h.3c.6 0 1-.4 1-1v-5.2l4.3 5.8c.2.3.5.4.8.4h.4c.6 0 1-.4 1-1v-8.5c0-.6-.4-1-1-1h-.3c-.6 0-1 .4-1 1v5.2l-4.3-5.8c-.2-.3-.5-.4-.8-.4h-.4c-.6 0-1 .4-1 1v8.5c0 .6.4 1 1 1z" fill="#4d4d4d"/>
  <path d="M236.2 111.1h1.8l-.9-2.1zm-40.4-2.9c-.3-.3-.6-.5-1-.7-.8-.3-1.7-.3-2.5 0-.4.2-.7.4-1 .7-.3.3-.5.6-.6 1-.2.4-.2.9-.2 1.3s.1.9.2 1.3.4.7.6 1c.3.3.6.5 1 .7.8.3 1.7.3 2.6 0 .4-.2.7-.4 1-.7.3-.3.5-.6.6-1 .2-.4.2-.9.2-1.3s-.1-.9-.2-1.3c-.2-.4-.4-.7-.7-1zm19.3-.5c-.1-.1-.3-.1-.4-.2-.2 0-.4-.1-.6-.1H213v1.9h1.2c.2 0 .4 0 .5-.1.1 0 .3-.1.4-.2.1-.1.2-.2.2-.3.1-.1.1-.3.1-.5 0-.1 0-.3-.1-.4 0 .1-.1 0-.2-.1z" fill="#aed7f0"/>
  <path d="M265.8 110.2c0-7.2-5.8-13-13-13h-77.4c-7.2 0-13 5.8-13 13s5.8 13 13 13h77.4c7.2 0 13-5.8 13-13zm-80.1 4.5c0 .6-.4 1-1 1h-.3c-.6 0-1-.4-1-1v-3.3h-3.7v3.3c0 .6-.4 1-1 1h-.3c-.6 0-1-.4-1-1v-8.5c0-.6.4-1 1-1h.3c.6 0 1 .4 1 1v3h3.7v-3c0-.6.4-1 1-1h.3c.6 0 1 .4 1 1v8.5zm12.8-2c-.3.6-.6 1.2-1.1 1.7-.5.5-1.1.9-1.7 1.2-1.4.6-2.9.6-4.3 0-.6-.3-1.2-.7-1.7-1.2s-.9-1.1-1.1-1.7c-.5-1.4-.5-3 0-4.4.3-.6.6-1.2 1.1-1.7.5-.5 1.1-.9 1.7-1.2 1.4-.5 2.9-.5 4.3 0 1.3.5 2.3 1.6 2.8 2.9.6 1.4.6 3 0 4.4zm9.4 1.4c-.2.4-.5.8-.8 1-.3.3-.7.5-1.2.6-.4.1-.9.2-1.3.2-.6 0-1.3-.1-1.8-.4-.5-.2-1-.6-1.4-1-.4-.4-.3-1 .1-1.4l.2-.2c.4-.4 1-.3 1.4.1.2.2.4.4.7.5.5.2 1 .2 1.5.1.2 0 .3-.1.4-.2.1-.1.2-.2.2-.3.1-.1.1-.3.1-.4 0-.1 0-.2-.1-.3l-.3-.3c-.2-.1-.3-.2-.5-.3-.3-.1-.5-.2-.8-.3-.4-.1-.7-.3-1.1-.4-.4-.2-.7-.4-1-.6-.3-.3-.6-.6-.8-1a2.982 2.982 0 01.9-3.7c.3-.3.7-.5 1.2-.6 1-.3 2-.3 2.9.1.5.2 1 .6 1.3 1 .3.4.3 1-.1 1.4l-.2.2c-.2.2-.5.3-.7.2-.3 0-.5-.2-.7-.4-.1-.2-.3-.3-.5-.4-.4-.2-.9-.2-1.3-.1-.2 0-.3.1-.4.2l-.3.3c-.2.3-.1.8.2 1 .1.1.3.2.4.3.2.1.5.2.7.3.4.1.7.3 1.1.4.4.1.7.3 1.1.6.4.3.6.6.8 1 .2.4.3.9.3 1.4.1.5 0 1-.2 1.4zm9.5-4.4c-.2.4-.5.8-.8 1-.3.3-.7.5-1.1.6-.4.1-.8.2-1.3.2H213v3.2c0 .6-.4 1-1 1h-.3c-.6 0-1-.4-1-1v-8.5c0-.6.4-1 1-1h2.3c.4 0 .8 0 1.1.1.4.1.8.2 1.2.5.4.2.7.6.9 1 .3.5.4 1 .4 1.5.1.5 0 1-.2 1.4zm4.8 5c0 .6-.4 1-1 1h-.2c-.6 0-1-.4-1-1v-8.5c0-.6.4-1 1-1h.3c.6 0 1 .4 1 1v8.5zm10-8.2c0 .6-.4 1-1 1h-1.9v7.3c0 .6-.4 1-1 1h-.3c-.6 0-1-.4-1-1v-7.3h-1.9c-.6 0-1-.4-1-1v-.2c0-.6.4-1 1-1h6c.6 0 1 .4 1 1v.2zm9.5 8.8c-.2.3-.5.4-.8.4h-.3c-.4 0-.8-.2-.9-.6l-.8-1.8h-3.6l-.8 1.8c-.2.4-.5.6-.9.6h-.3c-.6 0-1-.4-1-1 0-.1 0-.3.1-.4l3.7-8.5c.2-.4.5-.6.9-.6h.3c.4 0 .8.2.9.6l3.5 8.5c.2.4.2.7 0 1zm8.5-.6c0 .6-.4 1-1 1h-4.5c-.6 0-1-.4-1-1v-8.5c0-.6.4-1 1-1h.3c.6 0 1 .4 1 1v7.3h3.2c.6 0 1 .4 1 1v.2z" fill="#aed7f0"/>
  <path d="M190.3 190.5c.1 0 .3-.1.4-.2.1-.1.2-.2.2-.3.1-.1.1-.3.1-.5 0-.1 0-.3-.1-.4-.1-.1-.1-.2-.2-.2-.1-.1-.3-.1-.4-.2-.2 0-.4-.1-.6-.1h-1.1v1.9h1.2c.2.1.4.1.5 0z" fill="#fff"/>
  <path d="M178.2 205h77.7c7.5 0 13.5-6 13.5-13.5s-6-13.5-13.5-13.5h-77.7c-7.5 0-13.5 6-13.5 13.5s6.1 13.5 13.5 13.5zm68.6-18c.2-.3.5-.5.9-.5h.3c.3 0 .7.2.9.5l1.9 3.1 1.9-3.1c.2-.3.5-.5.9-.5h.3c.6 0 1 .4 1 1 0 .2-.1.4-.1.5l-2.8 4.5v3.4c0 .6-.4 1-1 1h-.3c-.6 0-1-.4-1-1v-3.4l-2.8-4.5c-.3-.3-.3-.7-.1-1zm-8.9.5c0-.6.4-1 1-1h6c.6 0 1 .4 1 1v.2c0 .6-.4 1-1 1H243v7.3c0 .6-.4 1-1 1h-.3c-.6 0-1-.4-1-1v-7.3h-1.9c-.6 0-1-.4-1-1v-.2zm-6.1 0c0-.6.4-1 1-1h.3c.6 0 1 .4 1 1v7.3h3.2c.6 0 1 .4 1 1v.2c0 .6-.4 1-1 1h-4.5c-.6 0-1-.4-1-1v-8.5zm-11.4 8.1l3.7-8.5c.2-.4.5-.6.9-.6h.3c.4 0 .8.2.9.6l3.5 8.5c.2.5 0 1.1-.5 1.3-.1.1-.3.1-.4.1h-.3c-.4 0-.8-.2-.9-.6l-.8-1.8h-3.6l-.8 1.8c-.2.4-.5.6-.9.6h-.3c-.6 0-1-.4-1-1 .1-.1.1-.3.2-.4zm-4.2-8.1c0-.6.4-1 1-1h.3c.6 0 1 .4 1 1v8.5c0 .6-.4 1-1 1h-.3c-.6 0-1-.4-1-1v-8.5zm-11.2 2.1c.5-1.3 1.5-2.4 2.8-2.9 1.3-.5 2.7-.6 4-.1.6.2 1.2.6 1.7 1.1.4.4.4 1 0 1.4l-.2.2c-.4.4-1 .5-1.4.1l-.1-.1c-.1-.1-.2-.2-.4-.3-.3-.2-.7-.3-1-.4-.6-.1-1.2 0-1.8.2-.4.2-.7.4-1 .7-.3.3-.5.6-.6 1-.2.4-.2.9-.2 1.3s.1.9.2 1.3.3.7.6 1c.3.3.6.5 1 .7.8.3 1.7.3 2.5 0 .3-.1.6-.3.9-.6.2-.2.4-.3.7-.4.3 0 .5.1.7.3l.2.2c.4.4.4 1 .1 1.4-.5.6-1.1 1-1.8 1.3-.6.3-1.3.4-2 .4s-1.5-.1-2.1-.4c-1.3-.5-2.3-1.6-2.8-2.9-.5-1.6-.5-3.1 0-4.5zm-9.4-2.1c0-.6.4-1 1-1h5c.6 0 1 .4 1 1v.2c0 .6-.4 1-1 1h-3.7v1.7h3.4c.6 0 1 .4 1 1v.2c0 .6-.4 1-1 1h-3.4v2h3.9c.6 0 1 .4 1 1v.2c0 .6-.4 1-1 1h-5.1c-.6 0-1-.4-1-1v-8.3zm-9.3 0c0-.6.4-1 1-1h2.3c.4 0 .8 0 1.1.1.4.1.8.2 1.2.5.4.2.7.6.9 1 .3.5.4 1 .4 1.5s-.1 1-.3 1.4c-.2.4-.5.8-.8 1-.3.3-.7.5-1.1.6-.4.1-.8.2-1.3.2h-1.2v3.2c0 .6-.4 1-1 1h-.3c-.6 0-1-.4-1-1l.1-8.5zm-4.8 6.2l-.3-.3c-.2-.1-.3-.2-.5-.3-.3-.1-.5-.2-.8-.3-.4-.1-.7-.3-1.1-.4-.4-.2-.7-.4-1-.6-.3-.3-.6-.6-.8-1a2.982 2.982 0 01.9-3.7c.3-.3.7-.5 1.1-.6 1-.3 2-.3 2.9.1.5.2 1 .6 1.3 1 .3.4.3 1-.1 1.4l-.2.2c-.2.2-.5.3-.7.2-.3 0-.5-.2-.7-.4-.1-.2-.3-.3-.5-.4-.4-.2-.9-.2-1.3-.1-.2 0-.3.1-.4.2l-.3.3c-.1.1-.1.3-.1.4 0 .1 0 .3.1.4.1.1.1.2.2.3.1.1.3.2.4.3.2.1.5.2.7.3.4.1.7.3 1.1.4.4.1.7.3 1.1.6.4.3.6.6.8 1 .2.4.3.9.3 1.4 0 .5-.1 1-.3 1.4-.2.4-.5.8-.8 1-.3.3-.7.5-1.2.6-.4.1-.9.2-1.3.2-.6 0-1.3-.1-1.8-.4-.5-.2-1-.6-1.4-1-.4-.4-.3-1 .1-1.4l.2-.2c.4-.4 1-.3 1.4.1.2.2.4.4.7.5.5.2 1 .2 1.5.1.2 0 .3-.1.4-.2.1-.1.2-.2.2-.3.1-.1.1-.3.1-.4.1-.2.1-.4.1-.4z" fill="#fff"/>
  <path d="M225.1 190.3l-.9 2h1.8z" fill="#fff"/>
  <path d="M181.2 194.7c-.1.1-.3.2-.4.2-.5.1-1 .1-1.5-.1-.3-.1-.5-.3-.7-.5-.4-.4-1-.4-1.4-.1l-.2.2c-.4.4-.5 1-.1 1.4.4.4.9.8 1.4 1 .6.2 1.2.4 1.8.4.4 0 .9-.1 1.3-.2s.8-.3 1.2-.6c.3-.3.6-.6.8-1 .2-.4.3-.9.3-1.4 0-.5-.1-1-.3-1.4-.2-.4-.5-.7-.8-1-.3-.2-.7-.4-1.1-.6-.3-.1-.7-.3-1.1-.4-.2-.1-.5-.2-.7-.3-.2-.1-.3-.1-.4-.3-.1-.1-.2-.2-.2-.3-.1-.1-.1-.2-.1-.4 0-.1 0-.3.1-.4.1-.1.1-.2.3-.3.1-.1.3-.2.4-.2.4-.1.9-.1 1.3.1.2.1.4.2.5.4.2.2.4.3.7.4.3 0 .5-.1.7-.2l.2-.2c.4-.4.5-1 .1-1.4-.4-.4-.8-.8-1.3-1-.9-.4-2-.4-2.9-.1-.4.1-.8.3-1.1.6-.7.6-1.2 1.5-1.2 2.4 0 .5.1.9.3 1.3.2.4.4.7.8 1 .3.3.6.5 1 .6.3.1.7.3 1.1.4.3.1.5.2.8.3.2.1.3.2.5.3l.3.3c0 .1.1.2.1.3 0 .1 0 .3-.1.4l-.4.4zm6.1 2.3h.3c.6 0 1-.4 1-1v-3.2h1.2c.4 0 .8-.1 1.3-.2.4-.1.8-.3 1.1-.6.3-.3.6-.6.8-1 .2-.4.3-.9.3-1.4 0-.5-.1-1.1-.4-1.5-.2-.4-.6-.7-.9-1-.4-.2-.8-.4-1.2-.5-.4-.1-.8-.1-1.1-.1h-2.3c-.6 0-1 .4-1 1v8.5c-.1.5.4 1 .9 1zm1.3-8.3h1.1c.2 0 .4 0 .6.1.1 0 .3.1.4.2.1.1.2.1.2.2.1.1.1.3.1.4 0 .2 0 .3-.1.5-.1.1-.1.2-.2.3-.1.1-.2.1-.4.2-.2 0-.4.1-.5.1h-1.2v-2zm8 8.3h5.1c.6 0 1-.4 1-1v-.2c0-.6-.4-1-1-1h-3.9v-2h3.4c.6 0 1-.4 1-1v-.2c0-.6-.4-1-1-1h-3.4v-1.7h3.7c.6 0 1-.4 1-1v-.2c0-.6-.4-1-1-1h-5c-.6 0-1 .4-1 1v8.5c.1.4.5.8 1.1.8zm9.6-1.3c.5.5 1.1.9 1.7 1.2.7.3 1.4.4 2.1.4.7 0 1.4-.1 2-.4.7-.3 1.3-.7 1.8-1.3.3-.4.3-1-.1-1.4l-.2-.2c-.2-.2-.5-.3-.7-.3-.3 0-.5.1-.7.4-.2.3-.5.5-.9.6-.8.3-1.7.3-2.5 0-.4-.2-.7-.4-1-.7-.3-.3-.5-.6-.6-1-.2-.4-.2-.9-.2-1.3s.1-.9.2-1.3.4-.7.6-1c.3-.3.6-.5 1-.7.6-.2 1.2-.3 1.8-.2.4.1.7.2 1 .4.1.1.3.2.4.3.4.4 1 .4 1.4 0l.1-.1.2-.2c.3-.4.3-1 0-1.4-.5-.5-1-.8-1.7-1.1-1.3-.5-2.7-.4-4 .1-1.3.5-2.3 1.6-2.8 2.9-.5 1.4-.5 2.9 0 4.3.2.9.6 1.5 1.1 2zm11-9.2h.3c.6 0 1 .4 1 1v8.5c0 .6-.4 1-1 1h-.3c-.6 0-1-.4-1-1v-8.5c0-.5.4-1 1-1zm4.1 10.5h.3c.4 0 .8-.2.9-.6l.8-1.8h3.6l.8 1.8c.2.4.5.6.9.6h.3c.6 0 1-.4 1-1 0-.1 0-.3-.1-.4l-3.5-8.5c-.2-.4-.5-.6-.9-.6h-.4c-.4 0-.8.2-.9.6l-3.7 8.5c-.2.5 0 1.1.5 1.3.1.1.3.1.4.1zm3.8-6.7l.9 2.1h-1.7l.8-2.1zm7.7 6.7h4.5c.6 0 1-.4 1-1v-.2c0-.6-.4-1-1-1H234v-7.3c0-.6-.4-1-1-1h-.3c-.6 0-1 .4-1 1v8.5c.1.6.5 1 1.1 1zm6.1-8.3h1.9v7.3c0 .6.4 1 1 1h.3c.6 0 1-.4 1-1v-7.3h1.9c.6 0 1-.4 1-1v-.2c0-.6-.4-1-1-1h-6c-.6 0-1 .4-1 1v.2c-.1.6.4 1 .9 1zm10.6 3.9v3.4c0 .6.4 1 1 1h.3c.6 0 1-.4 1-1v-3.4l2.8-4.5c.3-.5.1-1.1-.3-1.4-.2-.1-.3-.1-.5-.1h-.3c-.4 0-.7.2-.9.5l-1.9 3.1-1.9-3.1c-.2-.3-.5-.5-.9-.5h-.3c-.6 0-1 .4-1 1 0 .2.1.4.1.5l2.8 4.5z" fill="#4d4d4d"/>
  <path d="M69.6 112.2c-6.2 0-12.3-1.1-18.1-3.1l76.9 29.7-4.4-66-.3-4-.9-13.2h-.1c.1 1.1.1 2.2.1 3.3.1 29.4-23.8 53.2-53.2 53.3z" fill="#a0bc8a"/>
  <path d="M47 74.6c.8-.2 1.6-.4 2.3-.6 1.6-1.8 4-2.9 6.4-2.9 1.1-1.5 1.4-3.7 1.1-6.7-1 .2-2.1.4-3.1.4-3.8.1-7.4-1.8-9.6-4.9l-1-1.6 1.5-1.1c2.4-2.1 4.2-4.8 5.1-7.9.5-1.7.4-2.3.2-5.2-.1-1.1-.2-2.4-.3-4.2-.5-6.8.8-11.9 4.1-16.2 3.5-4.6 7.9-6.5 15.1-6.6h.3c6.8 0 13 4.1 15.7 10.4 1.6 3.7 1.5 9.2 1.1 13.2-.2 1.8-.1 3.6.3 5.4 1.2 5.4 3 9.4 5.1 11.1l1.8 1.5-1.8 1.5c-5.1 4.4-9.9 4.6-12.6 4.3.2 2.3 1 4.6 2.5 6.4 1.9 0 3.8.7 5.3 1.9.3.2.5.5.8.7 14.1 2.6 20 9 22.5 13.6 15.8-22.2 10.6-53-11.6-68.9s-53-10.6-68.9 11.6c-11.6 16.3-12.2 38-1.6 54.9 3.5-6.4 12.2-8.5 19.3-10.1z" fill="#aed7f0"/>
  <path d="M30.7 88.2l-.3.6c1.9 2.5 4 4.8 6.3 6.8.2-2.1.9-5.8 3.4-7.9 1.3-1.1 2.9-1.7 4.6-1.6.3-2.5.9-5 1.8-7.3-6.8 1.6-14 3.6-15.8 9.4zm14.2 2c-.8-.2-1.6 0-2.2.5-1.7 1.5-2.1 5.2-2.1 6.4 0 .5-.2 1-.5 1.3 2 1.5 4.1 2.8 6.3 4v-.5c1.1-8.3-.3-11.6-1.5-11.7zm45.2-11.7c1.1 3.4 1.6 7 1.5 10.7 4.2 1.1 6.7 5.4 5.6 9.6-.1.4-.3.8-.4 1.2 3.8-2.5 7.3-5.6 10.2-9.1 0-.1-.1-.1-.1-.2-2.8-7-10.5-10.5-16.8-12.2zm-8.3 18.2c0-3.6 2.4-6.7 5.9-7.6 0-6.5-1.3-9.9-2.5-11.7h-.3c-1.9 3.9-7 9.2-16.9 9.2-5.5 0-9.7-1.4-12.5-4.2-1.4-1.4-2.4-3.2-2.9-5.1-.3.1-.7.2-1 .3-2.3 3.2-2.9 8.5-3 10.3 1.7 2 3 6.1 1.8 14.5-.1.6-.4 1.1-1 1.5 12.3 5.5 26.4 5.8 38.9.6-3.8-.7-6.5-3.9-6.5-7.8z" fill="#98d0c0"/>
  <path d="M69.2 21.2H69c-6 .1-9.4 1.5-12 5-1.6 2.1-2.6 4.5-3 7.1.5-.7 1-1.3 1.5-2 2.2-2.5 6.7-3.7 10.2-3.7h1.2l.5 1.1c1.8 2.4 3.9 4.6 6.2 6.6 2.4 2.1 5.3 3.6 8.4 4.4.4-4.6.1-8.4-.8-10.6-2-4.7-6.8-7.8-12-7.9zM48.6 59c1.3 1.2 3.9 2.6 7.9 1.4-1.7-2.1-3.1-4.4-4.1-6.9-.9 2-2.2 3.9-3.8 5.5zm30.1 1.6c2.9.4 5.9-.3 8.4-2-1.8-2.5-3.1-5.3-3.8-8.2-.9 3.2-2.4 6.3-4.4 9-.1.3-.1.7-.2 1.2z" fill="#736357"/>
  <path d="M67.9 82.6c8.3 0 11.8-4.2 13.1-6.5-3.3-2-5.4-5.5-6.1-10.2-.1-.7-.2-1.3-.2-1.9-2 1.9-4.6 3-7.4 3.2-1.8 0-4.1-1-6.5-2.7.7 6.8-1.9 9.9-4.5 11.4.3 1.8 2 6.7 11.6 6.7zm-.6-19.4c4.5 0 11.1-7.4 12.7-16.5l.1-.6c.2-.8.3-1.6.3-2.4-3.5-1-6.7-2.8-9.5-5.1-2.3-2.1-4.5-4.3-6.4-6.7-2.6.2-5.2 1.1-6.2 2.3-3.1 3.5-3.1 5.7-3.1 13 .1 8.7 8.8 16 12.1 16z" fill="#d6b999"/>
  <path d="M89.6 92.9c-2.1 0-3.9 1.7-3.9 3.9 0 2.1 1.7 3.9 3.9 3.9 2.1 0 3.9-1.7 3.9-3.9s-1.7-3.9-3.9-3.9zm.1 5.5c-.9 0-1.7-.7-1.7-1.7s.7-1.7 1.7-1.7 1.7.7 1.7 1.7c-.1 1-.8 1.7-1.7 1.7z" fill="#cbcbcb"/>
  <circle cx="89.7" cy="96.7" r="1.7" fill="#4d4d4d"/>
  <path d="M27.7 85c.8 1.3 1.7 2.6 2.6 3.8l.3-.6c1.8-5.8 9-7.8 15.7-9.4.7-1.8 1.6-3.4 2.9-4.8-.8.2-1.5.4-2.3.6-7 1.6-15.7 3.7-19.2 10.4z" fill="#4d4d4d"/>
  <path d="M36.8 159c1.3-.1 2.9-.1 3.5.2.5.4 1 .9 1.5 1.4.7.7 1.4 1.4 2.2 2 2.3 1.5 4.7 2.9 7.2 4.1.2.1 16.8 7.7 21.9 4.1.6-.4 1-.9 1.3-1.5h.7c1.4-.1 2.9.1 4.3.6 2.5 1.4 5.3 5 6.8 7.9.3.6.6 1.2.8 1.8.9 2.4 2.5 4.5 4.6 6 1.3.9 2.7 1.7 4.2 1.5 1.1-.3 2.1-1 2.6-2.1.3-.5.7-1 1.2-1.4.5-.6 1.4-.9 2.2-.8 1.7.2 3.5 2.2 4.5 3.9.3.5.6 1.1.9 1.8.3.7.6 1.4 1.1 2.1.5.9 1.2 1.7 1.9 2.4.6.5 1 1.1 1.4 1.8.3.8.6 1.7.8 2.5.6 2.1 1.1 4.4 4.5 6.3 2.3 1.2 4.8 2.2 7.4 2.7h.5c.9 0 1.7-.4 2.3-1 1.3-1.5.5-3.9-.1-5.4-.1-.2-.1-.4-.2-.5-.1-.5-.2-.8-.2-1.1-.1-.5-.1-.9 0-1.4.1-.3.1-.5.2-.8.2-.5.4-1.1.5-1.7 1.4-1.1 2.7-2.4 3.7-3.8.8 0 1.6-.2 2.4-.5 1.5-.6 2.7-1.7 3.6-3 .4-.5.8-.9 1.2-1.4 1.8-1.1 3.9-1.8 6-2.1.7 0 1.3.1 2 .3 1.4.4 2.8.5 4.2.3.6-.2 1.3-.4 1.8-.8.2.1.4.3.7.5.3.2.5.4.7.5 1.3 1.2 2.9 1.8 4.7 1.8h.1c.7-.2 1.5-.3 2.2-.3h.2c.6-.1 1.2-.3 1.8-.6.1.1.2.1.2.2-3.3 8.5 1 18 9.5 21.3 1.9.7 3.9 1.1 5.9 1.1h77.7c9.1 0 16.5-7.4 16.5-16.5s-7.4-16.5-16.5-16.5h-48.8c0-.1-.1-.1-.1-.2-1.5-2.9-2.3-5.3-2.3-7.3h28.7c9.1 0 16.5-7.4 16.5-16.5s-7.4-16.5-16.5-16.5h-7.9c-.1-.1-.2-.3-.3-.4-.1-.1-.1-.2-.2-.2-.3-1.7-1.1-3.2-2.1-4.5.5-.7.8-1.4 1-2.1h28.8c9.4 0 17-7.6 17-17s-7.6-17-17-17h-11.6c-.7-.6-1.6-.8-2.5-.8h-.3c.1-1-.4-2-1.3-2.6.1-.3.1-.6.2-.7 0-.2.2-.8.4-1.5.1 0 .2 0 .4-.1h14.7c9.1 0 16.5-7.4 16.5-16.5s-7.4-16.5-16.5-16.5h-75c-9.1 0-16.5 7.3-16.5 16.4 0 1.5.2 3.1.6 4.5-1 .2-2 .5-2.9 1-.9.5-1.8 1.1-2.6 1.8-.5.5-1 .9-1.6 1.2-.3.2-.7.4-1 .7-.2.2-.6.4-.8.6-.1-.2-.2-.3-.3-.4-.1-.1-.2-.2-.4-.3.3-.2.7-.4 1.1-.5.8-.3 1.5-.7 2.2-1.3.6-.5 2-2 1.3-3.7-.7-1.7-2.7-1.7-4.5-1.7h-3c-.7 0-1.5 0-2.2-.1-.7-.2-1.4-.4-2.1-.8-.8-.4-1.7-.8-2.5-1-.9-.2-1.9-.3-2.8-.2-.8.1-1.5 0-2.3-.2-.1-.2-.2-.6-.3-.8-.4-1.1-.9-2.9-2.6-3.4-.4-.1-.8-.1-1.1 0-1.1.3-1.9 1.3-2 2.4h-.1c-.7.3-3.1.1-4.3 0-.8-.1-1.5-.1-2.2-.1h-.9l.3 4h.5c.5 0 1.2.1 2 .1 1.9.3 3.8.2 5.6-.1.6.1 1.1 0 1.6-.2.2.5.6.9 1 1.3 1.5.9 3.2 1.3 4.9 1.1.6 0 1.2 0 1.8.1.6.2 1.2.4 1.8.7 1 .5 2 .9 3.1 1.1 1 .2 2 .2 3 .1h.5c-1.1.8-2.1 1.8-3 2.8-.6.7-1.2 1.3-1.8 1.8-.8.7-.9 2-.2 2.8.5.5 1.2.8 1.9.6.5-.1 1-.3 1.5-.6.2-.1.6-.2 1-.4.1.2.2.3.3.4.4.4 1.1.7 1.7.6h.8c.4 0 .9 0 1.3-.1 1-.3 1.9-.8 2.6-1.4.3-.2.5-.4.8-.5.6-.4 1.3-.8 1.8-1.3.3.9 1.2 1.6 2.2 1.4.7 0 1.4.2 2 .5.9.4 2 .7 3 .8.7.1 1.4 0 2-.2.2.1.4.3.5.4-.4.2-.6.6-.8 1-.5-.1-1.1 0-1.5.4-1.4 1.2-2.4 2.7-2.8 4.5-.1.2-.1.3-.2.5-.6.5-1 1.1-1.3 1.9-.5 1 0 2.2 1 2.6.4.2.8.2 1.2.2l-.3 1.2c-.1.5-.3 1.1-.4 1.6-6.5 6.7-6.4 17.5.3 24 3.2 3.1 7.4 4.8 11.9 4.8h42.1c0 .6.2 1.2.4 1.8.2.4.5.8.8 1.2.9 1.3 1.5 2.2 1.9 2.9-.8.1-1.4.6-1.7 1.3h-40.6c-9.1 0-16.5 7.4-16.5 16.5s7.4 16.5 16.5 16.5H201c.1 2.6.7 5.2 1.9 7.5h-19.6c-1.1-.7-2.3-1.1-3.6-1.3-1.7 0-3.4.2-5 .5-.5.1-1.1.2-1.7.2-.1-.9-.8-1.7-1.7-1.9-1.1-.3-2.2.4-2.4 1.5 0 .2-.1.3-.1.5v.1c-.7.3-1.3.5-2 .6-1.2.2-2.4.5-3.5 1-.1 0-.3 0-.4.1-.2-.2-.4-.3-.6-.4l-.1-.1c-.7-.5-1.7-.6-2.5-.4-.7.2-1.2.7-1.5 1.3-.6 1.1-.3 2.4.7 3.1 1 .6 2.3.5 3.3-.1.1.1.1.1.2.1-.5.7-1.3 1.2-2.1 1.1-.2.2-.3.5-.4.8-.3 0-.7.1-1 .2-.3.1-.6.2-1 .3-.5-.1-1-.4-1.4-.8-.3-.2-.5-.4-.9-.7-1.7-1.3-3.2-2.1-5.1-.8-.2.2-.5.3-.8.4-.8.1-1.5-.1-2.3-.3-1.1-.3-2.3-.5-3.4-.4-1.7.2-3.4.7-5 1.3-.4-.5-1-.8-1.7-.8-1 0-1.9.6-2.2 1.5-.2.6-.2 1.2 0 1.8-.4.4-.7.8-1 1.2-.5.7-1.1 1.3-1.8 1.8-.4.2-.9.3-1.3.3-.8 0-1.6.3-2.3.8-.2.2-.3.3-.5.6-.7 1-1.5 1.9-2.4 2.8-.4-.1-.8-.2-1.2 0-1.1.3-1.7 1.4-1.4 2.5.1.3.2.5.4.7-.1.3-.2.6-.3.8-.2.6-.4 1.2-.5 1.8-.1.9-.1 1.8.1 2.6.1.2.1.5.2.9s.2.7.3 1.1c.1.2.2.4.2.7-1.6-.5-3.1-1.2-4.6-1.9-1.9-1.1-2.1-1.9-2.6-3.8-.3-1.1-.6-2.1-1-3.1-.6-1.1-1.3-2.1-2.2-2.9-.5-.5-1-1-1.3-1.6-.3-.5-.6-1.2-.9-1.8-.3-.7-.6-1.4-1.1-2.1-1.5-2.5-4.2-5.4-7.4-5.9-.3 0-.6-.1-.9-.1-1.7 0-3.4.7-4.6 2-.6.6-1.2 1.3-1.7 2-.1.1-.1.2-.2.3-.4-.2-.7-.4-1-.7-1.8-1.3-2.4-2.5-3.3-4.4-.3-.6-.6-1.2-.9-1.9-1.7-3.4-5-7.7-8.4-9.6-1.9-.9-4.1-1.3-6.2-1.1-.7 0-1.5 0-2.2-.1-1.1-.1-2.1.7-2.2 1.8v.6c-2 1.3-13.6-2.3-17.7-4.4-2.3-1.2-4.6-2.5-6.8-3.9-.6-.4-1.1-.9-1.6-1.5-.7-.8-1.5-1.4-2.3-2-1.6-.9-3.6-.9-5.7-.8-1.8.1-3.9.2-4.7-.6-.3-.6-.5-1.2-.6-1.9-.1-.6-.3-1.3-.5-1.9-.9-2.5-2.5-4.7-4.6-6.4-1-.8-2.2-1.5-3.3-2-1.8-1-3.9-2-4.3-3.3 0-.1 0-.4.1-.6.1-.9.1-1.8-.1-2.7-.3-1-.7-2-1.2-3-.4-.7-.7-1.4-.9-2.2-.2-.6-.3-1.1-.3-1.7v-.7c.2-.2.4-.5.4-.8.3-.9.1-1.9-.5-2.6-.3-.3-.6-.5-1-.6l-.2-.2-.1-.1h.1c.8-.2 1.3-.9 1.4-1.6.2-1-.2-2.1-.9-2.8-.3-.7-.9-1.2-1.6-1.3 0-.5-.1-1-.3-1.5-.2-.4-.4-.8-.5-1.2-.8-1.8-1.3-2.9-1.1-4.7.1-1.4.1-2.8 0-4.3-.2-1.5-.1-3.1.2-4.6.2-.7.5-1.3.7-1.9.8-2 1.3-4.1 1.5-6.3.3-2.6 1-5.2 2.3-7.5.5-1.2 1.1-2.4 1.6-3.8.4-1.1.9-2.2 1.5-3.2.1-.1.2-.3.2-.4 5.7 14.2 17.2 25.3 31.5 30.5 27.7 10 58.3-4.4 68.3-32.2C122 71 123 64.9 123 58.7c0-1.1 0-2.2-.1-3.3C121 26.1 95.7 3.7 66.3 5.5c-29.4 1.8-51.8 27.1-50 56.6.2 3.4.8 6.9 1.6 10.2 0 .6-.1 1.1-.2 1.6-.4 1.1-.9 2.1-1.5 3.1-.6 1.2-1.2 2.4-1.7 3.6-.5 1.3-1 2.4-1.5 3.5-1.5 2.8-2.4 5.8-2.7 9-.1 1.8-.6 3.5-1.2 5.2-.2.6-.5 1.3-.7 2-.5 2-.7 4.1-.4 6.1.1 1.2.1 2.4 0 3.6-.2 2.3.3 4.7 1.4 6.8.2.4.3.7.5 1.1 0 .8.2 1.6.7 2.3.1.2.3.4.4.5-.5 1.3-.5 2.6-.1 3.9.2.6.6 1.1 1 1.6.1.1.2.2.2.3-.1.4-.1.7-.1 1.1.1.4.1.8.1 1.3 0 .9.2 1.8.5 2.7.3.9.7 1.8 1.1 2.6.4.8.7 1.6 1 2.4v1.1c-.1.7-.1 1.4 0 2.1.8 3 3.7 4.5 6.3 5.9.9.5 1.8 1 2.7 1.6 1.5 1.3 2.7 2.9 3.4 4.8l.3 1.2c.2 1.4.8 2.7 1.6 3.8 2.1 2.2 5.1 2 7.8 1.9zm127-79.3zm.5-8.6c0-7.5 6-13.5 13.5-13.5h75c7.5 0 13.5 6 13.5 13.5s-6 13.5-13.5 13.5h-75c-7.5 0-13.5-6.1-13.5-13.5zm68.6 20.3c0 .6.2 1.1.5 1.6 0 .1-.1.2-.1.2H213c.2-.6.2-1.2 0-1.7v-.1c.3-1.3.8-2.6 1.4-3.8h19.1c-.2.6-.2.7-.2.8 0 .2-.1.4-.1.6-.2.7-.3 1.5-.3 2.4zm-23.8.7c-.5.4-1 .7-1.5.8-.7.2-1.3.3-2 .2-.4 0-.8 0-1.2.1h-18.8c-.1-.1-.2-.2-.4-.3l-.6-.3c0-.9-.2-1.8-.7-2.7 0-.1-.1-.2-.1-.3.3-.7.3-1.5-.1-2.1h26.4c-.4.9-.7 1.9-.9 2.9-.1.6-.2 1.1-.1 1.7zm-28.6.8c-.1.1-.1.2-.2.3h-4.9c-1 0-2 .1-3 .3.2-.7.5-1.4.8-2 .1 0 .2 0 .4-.1.7-.2 1.2-.8 1.4-1.5.1-.1.1-.2.2-.2.4-.4.6-.8.8-1.3 0-.1.1-.2.1-.3l2.4.9.3.1c.3.1.7.2 1 .3 0 .3 0 .7.1 1 .1.4.3.8.5 1.2.1.4.2.9.1 1.3zm-5.1 30.3c-7.2 0-13-5.8-13-13s5.8-13 13-13h77.4c7.2 0 13 5.8 13 13s-5.8 13-13 13h-77.4zm2.8 41.3c-7.5 0-13.5-6-13.5-13.5s6-13.5 13.5-13.5h55.2c7.5 0 13.5 6 13.5 13.5s-6 13.5-13.5 13.5h-55.2zm-11.7 14.8c.3-.1.5-.1.8-.2-.3.3-.6.6-.9.8.1-.2.1-.4.1-.6zm11.7-1.3h77.7c7.5 0 13.5 6 13.5 13.5s-6 13.5-13.5 13.5h-77.7c-7.5 0-13.5-6-13.5-13.5s6.1-13.5 13.5-13.5zm-17.4 1.2l.4-1v.2c0 .2 0 .3.1.5-.2.1-.3.2-.5.3zm.5-1.5l-1.4-1.3.1-.1c.5 0 1 .2 1.3.6.1.1.2.2.2.3-.1.2-.2.4-.2.5zm-23.4 3.7c-.4.2-.8.4-1.1.6l-.5-.3c.4-.4 1-.5 1.6-.3zm-91.5-79c-2.2-1.2-4.3-2.5-6.3-4 .3-.4.5-.8.5-1.3 0-1.2.4-4.9 2.1-6.4.6-.5 1.4-.7 2.2-.5 1.2.2 2.6 3.5 1.5 11.7v.5zm23.2 5.8c-7 0-13.8-1.5-20.2-4.3.5-.3.9-.8 1-1.5 1.2-8.5-.1-12.6-1.8-14.5.1-1.8.8-7.1 3-10.3.4-.1.7-.2 1-.3.5 1.9 1.5 3.7 2.9 5.1 2.8 2.8 7 4.2 12.5 4.2 10 0 15.1-5.3 16.9-9.2h.3c1.2 1.8 2.5 5.2 2.5 11.7-4.2 1.1-6.7 5.4-5.6 9.6.8 3 3.2 5.2 6.3 5.8-6.1 2.4-12.4 3.7-18.8 3.7zM82 39.9c-3.1-.8-6-2.3-8.4-4.4-2.3-2-4.4-4.2-6.2-6.6l-.5-1.1h-1.2c-3.5 0-8 1.1-10.2 3.7-.5.6-1.1 1.3-1.5 2 .4-2.6 1.5-5 3-7.1 2.7-3.5 6.1-4.9 12-5h.2c5.3.1 10 3.2 12 8.1 1 1.9 1.2 5.8.8 10.4zm1.2 10.5c.8 2.9 2.1 5.7 3.8 8.2-2.4 1.7-5.4 2.5-8.4 2.1 0-.6.1-1 .1-1.2 2.1-2.8 3.6-5.9 4.5-9.1zm-27.9-3.3c0-7.3 0-9.5 3.1-13 1-1.2 3.6-2.1 6.2-2.3 2 2.4 4.1 4.6 6.4 6.7 2.8 2.3 6 4.1 9.5 5.1 0 .8-.2 1.6-.3 2.4l-.2.6c-1.6 9.2-8.3 16.5-12.7 16.5-3.3.1-12-7.2-12-16zm1.2 13.3c-4 1.1-6.6-.3-7.9-1.4 1.6-1.6 2.9-3.5 3.8-5.5 1 2.5 2.4 4.9 4.1 6.9zm4.3 4.1c2.3 1.7 4.7 2.7 6.5 2.7 2.8-.2 5.4-1.3 7.4-3.2 0 .6.1 1.3.2 1.9.7 4.7 2.8 8.2 6.1 10.2-1.3 2.3-4.8 6.5-13.1 6.5-9.7 0-11.3-4.9-11.6-6.7 2.6-1.5 5.2-4.7 4.5-11.4zm28.8 36.1c-2.1 0-3.9-1.7-3.9-3.9 0-2.1 1.7-3.9 3.9-3.9 2.1 0 3.9 1.7 3.9 3.9s-1.7 3.9-3.9 3.9zm7.2-.6c1.8-3.9 0-8.6-3.9-10.4-.4-.2-.8-.3-1.2-.4.1-3.6-.4-7.2-1.5-10.7 6.3 1.7 14 5.1 16.8 12.2 0 .1.1.1.1.2-3 3.5-6.5 6.5-10.3 9.1zM69.6 9.4c27.2 0 49.4 22 49.4 49.3 0 10.3-3.2 20.3-9.2 28.7-2.5-4.6-8.4-11-22.5-13.6-.2-.2-.5-.5-.8-.7-1.5-1.3-3.4-1.9-5.3-1.9-1.5-1.9-2.3-4.1-2.5-6.4 2.7.3 7.5 0 12.6-4.3l1.8-1.5-1.8-1.5c-2-1.7-3.9-5.7-5.1-11.1-.4-1.8-.5-3.6-.3-5.4.4-4 .5-9.5-1.1-13.2-2.7-6.3-8.9-10.4-15.7-10.4h-.3c-7.3.1-11.7 2-15.1 6.6-3.3 4.3-4.6 9.4-4.1 16.2.1 1.8.2 3.1.3 4.2.3 2.9.3 3.5-.2 5.2-.9 3.1-2.7 5.8-5.1 7.9l-1.5 1.1 1 1.6c2.2 3.1 5.8 5 9.6 4.9 1.1 0 2.1-.1 3.1-.4.4 3 0 5.2-1.1 6.7-2.5 0-4.8 1.1-6.4 2.9-1.2 1.4-2.2 3-2.9 4.8-.9 2.4-1.5 4.8-1.8 7.3-1.7-.1-3.3.5-4.6 1.6-2.5 2.1-3.2 5.9-3.4 7.9-2.3-2.1-4.5-4.4-6.3-6.8-.9-1.2-1.8-2.5-2.6-3.8-14.5-23.1-7.5-53.5 15.5-68 8-5.3 17.1-7.9 26.4-7.9z" fill="#4d4d4d"/>
  <path d="M184.7 105.2h-.3c-.6 0-1 .4-1 1v3h-3.7v-3c0-.6-.4-1-1-1h-.3c-.6 0-1 .4-1 1v8.5c0 .6.4 1 1 1h.3c.6 0 1-.4 1-1v-3.3h3.7v3.3c0 .6.4 1 1 1h.3c.6 0 1-.4 1-1v-8.5c0-.5-.5-1-1-1zm12.7 1.4c-.5-.5-1.1-.9-1.7-1.2-1.4-.5-2.9-.5-4.3 0-.6.3-1.2.7-1.7 1.2s-.9 1.1-1.1 1.7c-.5 1.4-.5 3 0 4.4.3.7.6 1.2 1.1 1.7.5.5 1.1.9 1.7 1.2 1.4.6 2.9.6 4.3 0 .6-.3 1.2-.7 1.7-1.2s.9-1.1 1.1-1.7c.5-1.4.5-3 0-4.4-.2-.6-.6-1.2-1.1-1.7zm-.9 5.2c-.1.4-.4.7-.6 1-.3.3-.6.5-1 .7-.8.3-1.7.3-2.6 0-.4-.2-.7-.4-1-.7-.3-.3-.5-.6-.6-1-.2-.4-.2-.9-.2-1.3s.1-.9.2-1.3.4-.7.6-1c.3-.3.6-.5 1-.7.8-.3 1.7-.3 2.5 0 .4.2.7.4 1 .7.3.3.5.6.6 1 .2.4.2.9.2 1.3.1.4 0 .9-.1 1.3zm10.5-1.5c-.3-.2-.7-.4-1.1-.6-.3-.1-.7-.3-1.1-.4-.2-.1-.5-.2-.7-.3-.2-.1-.3-.1-.4-.3-.1-.1-.2-.2-.2-.3-.1-.2-.1-.5 0-.8.1-.1.1-.2.3-.3.1-.1.3-.2.4-.2.4-.1.9-.1 1.3.1.2.1.4.2.5.4.2.2.4.3.7.4.3 0 .5-.1.7-.2l.2-.2c.4-.4.5-1 .1-1.4-.4-.4-.8-.8-1.3-1-.9-.4-2-.4-2.9-.1-.4.1-.8.3-1.2.6-.7.6-1.2 1.5-1.2 2.4 0 .5.1.9.3 1.3.2.4.4.7.8 1 .3.3.6.5 1 .6.3.1.7.3 1.1.4.3.1.5.2.8.3.2.1.3.2.5.3l.3.3c0 .1.1.2.1.3 0 .1 0 .3-.1.4-.1.1-.1.2-.2.3-.1.1-.3.2-.4.2-.5.1-1 .1-1.5-.1-.3-.1-.5-.3-.7-.5-.4-.4-1-.4-1.4-.1l-.2.2c-.4.4-.5 1-.1 1.4.4.4.9.8 1.4 1 .6.2 1.2.4 1.8.4.4 0 .9-.1 1.3-.2s.8-.3 1.2-.6c.3-.3.6-.6.8-1 .2-.4.3-.9.3-1.4 0-.5-.1-1-.3-1.4-.2-.3-.5-.6-.9-.9zm9.3-4.5c-.4-.2-.8-.4-1.2-.5-.4-.1-.8-.1-1.1-.1h-2.3c-.6 0-1 .4-1 1v8.5c0 .6.4 1 1 1h.3c.6 0 1-.4 1-1v-3.2h1.2c.4 0 .8-.1 1.3-.2.4-.1.8-.3 1.1-.6.3-.3.6-.6.8-1 .2-.4.3-.9.3-1.4 0-.5-.1-1.1-.4-1.5-.3-.4-.6-.7-1-1zm-1 3c-.1.1-.1.2-.2.3-.1.1-.2.1-.4.2-.2 0-.4.1-.5.1H213v-1.9h1.1c.2 0 .4 0 .6.1.1 0 .3.1.4.2.1.1.2.1.2.2.1.1.1.3.1.4 0 .1 0 .3-.1.4zm5.7-3.6h.3c.6 0 1 .4 1 1v8.5c0 .6-.4 1-1 1h-.3c-.6 0-1-.4-1-1v-8.5c0-.5.4-1 1-1zm10.2 0h-6c-.6 0-1 .4-1 1v.2c0 .6.4 1 1 1h1.9v7.3c0 .6.4 1 1 1h.3c.6 0 1-.4 1-1v-7.3h1.9c.6 0 1-.4 1-1v-.2c-.1-.5-.6-1-1.1-1zm7 .7c-.2-.4-.5-.6-.9-.6h-.3c-.4 0-.8.2-.9.6l-3.7 8.5c-.2.5 0 1.1.5 1.3.1.1.3.1.4.1h.3c.4 0 .8-.2.9-.6l.8-1.8h3.6l.8 1.8c.2.4.5.6.9.6h.3c.6 0 1-.4 1-1 0-.1 0-.3-.1-.4l-3.6-8.5zm-2 5.2l.9-2.1.9 2.1h-1.8zm13 2.4H246v-7.3c0-.6-.4-1-1-1h-.3c-.6 0-1 .4-1 1v8.5c0 .6.4 1 1 1h4.5c.6 0 1-.4 1-1v-.2c0-.6-.4-1-1-1z" fill="#fff"/>
</svg>
