<?xml version="1.0"?>
<svg xmlns="http://www.w3.org/2000/svg" width="71" height="99">
  <g fill="none">
    <path d="M54.263 61.498c.381-.099.742-.191 1.074-.305.267-.092.312-.549.287-.95-.115.019-.232.03-.349.03a1.913 1.913 0 01-1.599-.826l-.221-.351.332-.25c.35-.303.608-.7.744-1.143.068-.243.076-.5.023-.746a26.589 26.589 0 01-.055-.652c-.12-.92.117-1.852.663-2.602.562-.732 1.295-1.053 2.452-1.074a2.773 2.773 0 012.61 1.699c.226.679.288 1.401.184 2.109-.027.263-.012.528.045.786.084.604.339 1.172.734 1.637l.41.34-.405.348a2.69 2.69 0 01-1.874.714c.045.45.32.843.725 1.043.72.15 1.429.345 2.124.585a6.156 6.156 0 10-9.214-.008c.432-.154.875-.272 1.31-.384z" fill="#FFF"/>
    <path d="M3.19 88.51l52.28.21a.9.9 0 01.825.547l2.74 6.444 2.513-6.362a.9.9 0 01.763-.566c1.224-.102 3.406-.135 5.028-.122.368-.046.693-.262.879-.582a3.307 3.307 0 00.51-1.837l.001-37.547a3.307 3.307 0 00-.512-1.836 1.19 1.19 0 00-.88-.583l-24.36.02v23.503a.903.903 0 01-.013.131v.081a.9.9 0 01-.9.9H7.155a.9.9 0 01-.9-.9V46.323h-3.06c-.658 0-1.391.995-1.391 2.42v37.345c-.004 1.425.729 2.419 1.386 2.422zm54.375-38.2a7.506 7.506 0 11-7.505 7.506 7.515 7.515 0 017.505-7.506zm-50.4 23.37h34.91a.9.9 0 110 1.8H7.166a.9.9 0 110-1.8zm0 4.782h34.91a.9.9 0 110 1.8H7.166a.9.9 0 110-1.8zm0 4.781h15.672a.9.9 0 110 1.8H7.167a.9.9 0 110-1.8h-.002zm1.808-66.511c1.26-.483 2.029-.835 1.995-1.925a.457.457 0 01.01-.061 4.185 4.185 0 01-1.004-2.61v-.23c-.003-1.307-.007-2.659 1.17-3.259a3.76 3.76 0 011.658-.424 3.25 3.25 0 012.01.702c.752.7.815 1.918.815 3.211a4.266 4.266 0 01-.982 2.681 1.43 1.43 0 00.804 1.32.45.45 0 01.174.09c.327.155.662.292 1.005.41.364.126.722.272 1.072.436a6.155 6.155 0 10-9.657.045c.304-.142.62-.266.93-.386z" fill="#FFF"/>
    <path fill="#FFF" d="M11.092 16.63l.002.003v-.004zm1.063 2.774c.097.011.195.016.294.023l-.03-.033c-.087.001-.175.006-.264.01z"/>
    <path d="M3.17 29.27a.382.382 0 01.084 0c2.32 0 3.98.025 4.94.076a.9.9 0 01.774.534l2.617 5.895 2.657-5.935a.9.9 0 01.82-.532l33.709-.087V13.774H64.31V29.18l3.053-.007a1.372 1.372 0 001.367-1.37V3.652a1.373 1.373 0 00-1.37-1.37L3.174 2.204c-.756 0-1.371.612-1.373 1.368V27.9c0 .756.612 1.37 1.368 1.37h.001zm41.002-4.137H28.5a.9.9 0 110-1.8h15.672a.9.9 0 110 1.8zM28.5 4.211h34.91a.9.9 0 110 1.8H28.5a.9.9 0 110-1.8zm0 4.782h34.91a.9.9 0 110 1.8H28.5a.9.9 0 110-1.8zm0 4.781h15.672a.9.9 0 110 1.8H28.5a.9.9 0 110-1.8zm-.096 4.782h15.672a.9.9 0 110 1.8H28.404a.9.9 0 110-1.8zm-15.55-12.77a7.506 7.506 0 11-7.505 7.506 7.515 7.515 0 017.505-7.506z" fill="#FFF"/>
    <path d="M19.3 57.887c.077-2.309-.107-4.986-1.105-6.158a.72.72 0 01-.07-.097c-.77-1.32-.665-3.05.23-3.78.303-.246 1.059-.659 2.219.043a1.38 1.38 0 011.022-.484 1.45 1.45 0 01.967.348 1.64 1.64 0 01.706-.24c.478-.048.956.1 1.323.411a2.09 2.09 0 011.845-.039c.07.042.135.09.194.145a1.865 1.865 0 011.66.25c.462.36.757 1.047.31 1.956.347 1.298.526 2.635.533 3.98a13.834 13.834 0 01-.44 3.665h12.47V46.522H8.066v11.365H19.3z" fill="#BCD7AA"/>
    <path d="M26.389 67.158c-1.485 1.018-3.354 1.193-4.697.477L19.121 68.9h22.042v-9.212H28.11a5.175 5.175 0 00-.05 3.603c.369 1.46-.258 2.898-1.671 3.868zm-7.317-6.405c.04-.307.08-.67.117-1.066H8.066V64.9l11.006-4.148z" fill="#CBCBCB"/>
    <path d="M54.332 22.872a.62.62 0 00.363.469v-.954c-.386.208-.373.386-.363.485z" fill="#AED7F0"/>
    <path d="M50.571 29.215l1.557-.004c.374-.783 1.256-1.341 2.567-1.62v-1.738a5.9 5.9 0 01-1.046-.162c-1.417-.409-2.229-1.38-2.229-2.666-.045-.84.29-1.655.913-2.22a3.936 3.936 0 012.362-1.043v-.142l-.608-.675a.697.697 0 01-.147-.666l.18-.583a.859.859 0 01.608-.565 4.17 4.17 0 012.212-.006.9.9 0 01.672.662l.109.476a.784.784 0 01-.148.663l-.53.678v.07c.203 0 .4-.004.602-.013.356-.31.813-.48 1.285-.48.37.01 2.751.601 2.751 1.468 0 1.248-1.633 1.7-2.73 1.7a1.715 1.715 0 01-1.2-.494c-.25.028-.466.033-.677.039l-.056.002-.021 1.865.146.01c2.048.143 3.348 1.25 3.312 2.82-.024 1.089-.968 2.005-2.65 2.61l4.706-.013V15.575h-11.94v13.64z" fill="#AED7F0"/>
    <path d="M56.903 26.07v.906c.31-.166.606-.398.618-.686a1.164 1.164 0 00-.618-.22z" fill="#AED7F0"/>
    <path d="M53.214 29.209h.876c-.002-.17 0-.356.01-.521a2.55 2.55 0 00-.886.52zm6.34-2.642c.03-1.272-1.26-1.816-2.475-1.901l-.16-.011c-1.411-.097-3.346-.229-3.484-1.7a1.376 1.376 0 01.844-1.37c0-.275.007-.586.017-.842a3.032 3.032 0 00-1.398.758c-.4.4-.61.953-.578 1.518 0 .9.53 1.504 1.578 1.806.4.087.808.14 1.218.159l.265.02c1.517.11 3.085.224 3.038 1.325-.02.489-.309 1.154-1.517 1.64v.552c.1-.015.198-.035.295-.062 1.46-.46 2.34-1.167 2.357-1.892zm-1.243-5.437a.814.814 0 00.639.318c.692 0 1.67-.244 1.812-.69a5.54 5.54 0 00-1.857-.678 1.08 1.08 0 00-.743.325.457.457 0 01-.306.145c-.28.016-.548.02-.824.023l-.005.419h.022c.271-.001.542-.022.81-.063a.45.45 0 01.452.2zm.503-.862a.218.218 0 11-.154.063.218.218 0 01.155-.063z" fill="#BCD7AA"/>
    <path d="M54.09 29.205h.605v-.7a5.058 5.058 0 00-.596.18 14.9 14.9 0 00-.009.52zm.605-7.805v-.732a4.04 4.04 0 00-.398.075c-.01.255-.02.567-.018.841a3.3 3.3 0 01.416-.183z" fill="#A4B494"/>
    <path d="M55.6 20.145c0 .01-.005.018-.005.028v3.443c.162.027.33.05.501.068l.05-4.244a.45.45 0 01.095-.27l.59-.756-.097-.426a3.44 3.44 0 00-1.767.01l-.132.433.645.715a.45.45 0 01.115.301v.685c0 .003.004.008.004.013zm-.005 9.057h.407v-2.877a7.97 7.97 0 00-.407-.054v2.931z" fill="#DFCDB9"/>
    <path d="M55.595 26.27c.131.014.273.033.407.054v-.368c-.142-.013-.28-.024-.407-.034v.349z" fill="#CFAB92"/>
    <path d="M55.595 20.13v.043c0-.01.005-.018.004-.028 0-.01-.003-.01-.004-.015zm3.22.573a.218.218 0 100-.435.218.218 0 000 .435z" fill="#4D4D4D"/>
    <path d="M3.169 31.07h.003c1.885.011 3.394.016 4.377.05l3.21 7.229a.9.9 0 001.643.003l3.245-7.246 51.719-.132a3.176 3.176 0 003.162-3.17V3.654A3.176 3.176 0 0067.362.481L3.176.405h-.004A3.171 3.171 0 000 3.573V27.9a3.17 3.17 0 003.168 3.17zm51.525-1.865h-1.481c.256-.233.558-.41.885-.523.195-.073.394-.133.596-.18v.703zM56 26.325v2.877h-.407V25.92c.126.01.265.021.407.035v.37zm.9 2.196v-.552c1.208-.485 1.497-1.15 1.518-1.64.045-1.099-1.522-1.215-3.039-1.325l-.265-.02a7.225 7.225 0 01-1.218-.158c-1.048-.302-1.578-.908-1.578-1.806a1.984 1.984 0 01.578-1.518c.39-.372.873-.634 1.398-.758.124-.03.256-.055.399-.075v.733a3.3 3.3 0 00-.416.183c-.548.228-.888.78-.844 1.372.138 1.47 2.073 1.602 3.484 1.699l.16.01c1.215.086 2.504.63 2.475 1.902-.016.724-.897 1.431-2.356 1.89a2.371 2.371 0 01-.294.063H56.9zm0-1.544v-.906c.223.013.438.09.618.22-.009.287-.306.519-.616.685H56.9zm-2.207-4.59v.953a.62.62 0 01-.364-.469c-.008-.098-.02-.276.365-.483l-.001-.001zm.784-3.244l-.644-.715.132-.432a3.44 3.44 0 011.767-.01l.097.425-.59.756a.45.45 0 00-.096.27l-.05 4.245a8.456 8.456 0 01-.5-.069v-4.17a.45.45 0 00-.114-.299h-.002zm7.03 10.04l-4.705.013c1.681-.604 2.625-1.52 2.65-2.61.036-1.57-1.265-2.676-3.312-2.82l-.147-.01.021-1.864.056-.003c.211-.005.428-.01.678-.039.32.316.75.494 1.2.495 1.097 0 2.73-.453 2.73-1.7 0-.867-2.382-1.458-2.752-1.468a1.952 1.952 0 00-1.285.48c-.2.008-.399.012-.6.013v-.07l.529-.679a.784.784 0 00.147-.662l-.109-.476a.9.9 0 00-.672-.662 4.17 4.17 0 00-2.212.006.859.859 0 00-.608.565l-.18.582a.697.697 0 00.148.666l.608.675v.144A3.936 3.936 0 0052.33 20.8a2.794 2.794 0 00-.913 2.22c0 1.286.813 2.258 2.229 2.666a5.9 5.9 0 001.047.163v1.738c-1.312.28-2.193.838-2.568 1.62l-1.557.004V15.575h11.94v13.609zm-5.482-8.192l.005-.42c.276-.002.544-.006.823-.022a.457.457 0 00.307-.145c.196-.2.462-.317.743-.325a5.54 5.54 0 011.857.679c-.142.445-1.12.689-1.812.689a.814.814 0 01-.64-.319.45.45 0 00-.45-.2 5.422 5.422 0 01-.81.062h-.023zM1.8 3.573c0-.756.614-1.37 1.37-1.37l64.188.08a1.373 1.373 0 011.37 1.37v24.15a1.372 1.372 0 01-1.368 1.37l-3.053.007V13.775H48.771V29.22l-33.71.086a.9.9 0 00-.819.532l-2.657 5.936-2.617-5.895a.9.9 0 00-.775-.534c-.958-.051-2.62-.077-4.939-.077a.382.382 0 00-.085 0A1.37 1.37 0 011.8 27.9V3.573z" fill="#4D4D4D"/>
    <path d="M15.438 17.141l-1.915 2.268a6.131 6.131 0 003.54-1.638 13.98 13.98 0 00-.74-.286 12.948 12.948 0 01-.885-.344zm-5.108-.01a10.9 10.9 0 01-1.036.441 21.05 21.05 0 00-.603.242 6.126 6.126 0 003.463 1.59c.09-.005.177-.008.263-.01l-2.088-2.262zm3.51-1.591c-.308.21-.668.329-1.04.343a1.894 1.894 0 01-1.007-.385 2.16 2.16 0 01-.7 1.13v.005l1.878 2.034 1.673-1.98a2.166 2.166 0 01-.804-1.147z" fill="#FFF"/>
    <path d="M13.84 15.54c-.308.21-.668.329-1.04.343a1.894 1.894 0 01-1.007-.385 2.16 2.16 0 01-.7 1.13v.005l1.878 2.034 1.673-1.98a2.166 2.166 0 01-.804-1.147z" fill="#C6B198" opacity=".7"/>
    <path d="M12.8 14.985c.659 0 1.926-1.201 1.926-2.845 0-.207-.003-.41-.01-.61-.869.406-2.544-.491-3.23-1.432-.162.453-.367.89-.61 1.305 0 .16-.003.327-.002.506v.232c0 1.632 1.524 2.844 1.926 2.844z" fill="#FFF"/>
    <path d="M12.8 14.985c.659 0 1.926-1.201 1.926-2.845 0-.207-.003-.41-.01-.61-.869.406-2.544-.491-3.23-1.432-.162.453-.367.89-.61 1.305 0 .16-.003.327-.002.506v.232c0 1.632 1.524 2.844 1.926 2.844z" fill="#C6B198" opacity=".7"/>
    <path d="M15.448 16.138c.054.031.116.06.175.09a.45.45 0 00-.175-.09z" fill="#4D4D4D"/>
    <path d="M12.854 20.797a7.506 7.506 0 10-7.505-7.505 7.515 7.515 0 007.505 7.505zm-.699-1.393a6.126 6.126 0 01-3.462-1.59c.198-.084.401-.164.603-.242a10.9 10.9 0 001.035-.44l2.089 2.263.03.033c-.1-.008-.198-.013-.295-.024zm-1.06-2.77l-.003-.003a2.16 2.16 0 00.7-1.13c.29.222.64.356 1.006.384a1.984 1.984 0 001.04-.343c.135.46.418.863.805 1.145l-1.673 1.98-1.876-2.034zm-.22-4.496v-.233c0-.18 0-.345.002-.506.243-.415.447-.852.61-1.305.685.94 2.36 1.839 3.23 1.433.006.2.009.402.01.609 0 1.644-1.268 2.845-1.927 2.845-.402.004-1.926-1.208-1.926-2.843zm2.648 7.271l1.915-2.268c.29.13.592.238.885.344.25.09.498.184.74.286a6.131 6.131 0 01-3.54 1.638zm-.669-12.273a6.146 6.146 0 014.846 9.938c-.35-.164-.708-.31-1.072-.437a9.334 9.334 0 01-1.005-.41c-.059-.029-.12-.058-.175-.09a1.43 1.43 0 01-.804-1.319 4.266 4.266 0 00.982-2.68c0-1.294-.063-2.512-.815-3.211a3.25 3.25 0 00-2.01-.703 3.76 3.76 0 00-1.658.425c-1.176.6-1.173 1.951-1.17 3.258v.23c.026.96.38 1.881 1.004 2.61a.457.457 0 00-.01.062c.034 1.09-.736 1.44-1.995 1.924-.31.12-.626.245-.93.388a6.147 6.147 0 014.811-9.984h.001zM8.053 46.522h1v11.365h-1zm.013 13.165h-.013v5.219l.013-.005zm-.9 15.793h34.909a.9.9 0 100-1.8H7.166a.9.9 0 100 1.8zm0 4.783h34.909a.9.9 0 100-1.8H7.166a.9.9 0 100 1.8zm0 4.782h15.672a.9.9 0 100-1.8H7.166a.9.9 0 100 1.8zM28.5 6.011h34.91a.9.9 0 100-1.8H28.5a.9.9 0 100 1.8zm0 4.782h34.91a.9.9 0 100-1.8H28.5a.9.9 0 100 1.8zm0 4.782h15.672a.9.9 0 100-1.8H28.5a.9.9 0 100 1.8zm-.096 4.781h15.672a.9.9 0 100-1.8H28.404a.9.9 0 100 1.8zm15.768 2.977H28.5a.9.9 0 100 1.8h15.672a.9.9 0 100-1.8z" fill="#4D4D4D"/>
    <path d="M57.478 63.643a2.748 2.748 0 01-2.03-.691 1.82 1.82 0 01-.44-.72c-.173.048-.348.093-.52.138-.27.069-.54.139-.806.218a6.134 6.134 0 007.756.007 18.28 18.28 0 00-1.278-.343c-.292.527-1.024 1.391-2.681 1.391z" fill="#98D0C0"/>
    <path d="M57.666 53.529h-.036c-.887.015-1.362.21-1.755.72a2.25 2.25 0 00-.264.45 2.638 2.638 0 011.503-.445h.284l.125.248c.277.353.586.68.923.975.32.269.688.475 1.085.609a3.277 3.277 0 00-.131-1.395 1.907 1.907 0 00-1.734-1.162zm-2.97 5.681c.227.138.496.191.758.148a3.895 3.895 0 01-.39-.656c-.106.18-.23.35-.368.508zm5.542-.08a3.828 3.828 0 01-.39-.787c-.14.361-.323.703-.545 1.02.328.017.653-.064.935-.233z" fill="#736357"/>
    <path d="M55.852 61.926c.085.291.405.817 1.627.817a2.052 2.052 0 001.831-.819 2.303 2.303 0 01-.9-1.651 1.85 1.85 0 01-1.029.362 1.746 1.746 0 01-.85-.279 1.716 1.716 0 01-.679 1.57zm1.528-2.191c.566 0 1.585-1.025 1.831-2.44l.017-.096c.012-.067.029-.161.039-.242a4.28 4.28 0 01-1.406-.794 9.34 9.34 0 01-.963-.993c-.29.016-.568.119-.797.297-.43.486-.444.75-.444 1.922 0 1.349 1.363 2.346 1.723 2.346z" fill="#D6B999"/>
    <path d="M21.43 66.26a.675.675 0 01.688.056c1.005.712 2.524.405 3.507-.27.446-.306 1.447-1.152 1.13-2.405a6.679 6.679 0 01.217-4.793c.566-1.477.841-3.049.81-4.63a13.923 13.923 0 00-.555-3.854.675.675 0 01.074-.564c.171-.27.175-.418.166-.444a.375.375 0 00-.214-.06.675.675 0 00-.405.114c-.064.25-.072.512-.023.767a.675.675 0 11-1.277.44 2.98 2.98 0 010-1.565 1.416 1.416 0 00-.528.173c-.073.306-.09.623-.05.935a.675.675 0 01-1.332.216 3.905 3.905 0 01.058-1.423.442.442 0 00-.294-.09.323.323 0 00-.27.233c-.035.338-.032.68.007 1.017a.675.675 0 01-1.342.146 6.04 6.04 0 01-.01-1.269c-.039-.164-.128-.225-.16-.228-.05 0-.099.105-.111.242 0 .006-.003.01-.004.016a.64.64 0 01-.095.282 1.28 1.28 0 00-.149.993.675.675 0 01-1.279.431 2.646 2.646 0 01.027-1.58c-.405-.285-.692-.341-.81-.245-.294.239-.378 1.224.06 2.011.378.487 2.185 3.243 1.084 10.437a.675.675 0 01-.429.53L8.051 66.35v2.763h7.573l5.806-2.854zm3.792-9.672a.45.45 0 11.191-.88l.128.029c.033-.184.064-.38.09-.585l-.27-.03a.45.45 0 01.097-.893l.273.03c.02-.225.036-.457.05-.69l-.18-.02a.45.45 0 11.097-.895l.121.014c.004-.157.006-.313.007-.466a.45.45 0 01.9 0c0 .147 0 .34-.008.562l.233.025a.45.45 0 11-.098.895l-.171-.018c-.013.222-.028.45-.05.69l.336.036a.45.45 0 01-.097.895l-.338-.037c-.032.23-.07.458-.113.678l.07.016a.45.45 0 01-.192.878l-.1-.022c-.101.394-.312.75-.61 1.028a.45.45 0 01-.54-.72 1.1 1.1 0 00.28-.5l-.106-.02z" fill="#CFAB92"/>
    <path d="M24.958 57.74a.45.45 0 00.63.09c.298-.277.509-.633.61-1.027l.1.022a.45.45 0 00.192-.879l-.07-.015c.045-.22.08-.45.113-.679l.338.037a.45.45 0 00.097-.893l-.336-.037c.02-.238.036-.468.049-.69l.17.019a.45.45 0 00.098-.895l-.232-.025c.005-.225.007-.415.008-.562a.45.45 0 00-.9 0c0 .153-.003.309-.007.465l-.12-.013a.45.45 0 10-.098.895l.18.02c-.013.232-.03.463-.05.69l-.273-.03a.445.445 0 00-.495.398.45.45 0 00.398.495l.27.03a19.38 19.38 0 01-.09.584l-.128-.028a.45.45 0 10-.191.88l.104.022a1.1 1.1 0 01-.28.5.45.45 0 00-.087.626z" fill="#4D4D4D"/>
    <path d="M3.183 90.31l51.688.207 3.368 7.92a.9.9 0 00.828.548h.012a.9.9 0 00.825-.57l3.11-7.875c.976-.053 2.471-.077 4.324-.079A2.907 2.907 0 0069.7 89.1a5.077 5.077 0 00.83-2.859V48.695a5.071 5.071 0 00-.831-2.859 2.907 2.907 0 00-2.361-1.36l-43.71.034H7.166a.911.911 0 00-.127.013l-3.848.003c-1.789 0-3.19 1.855-3.19 4.219V86.09C0 88.45 1.4 90.302 3.183 90.31zm4.872-43.788h33.11v11.365H28.693c.31-1.197.458-2.43.44-3.666a15.666 15.666 0 00-.534-3.98c.45-.908.153-1.597-.31-1.956a1.865 1.865 0 00-1.659-.25 1.17 1.17 0 00-.194-.144 2.09 2.09 0 00-1.845.039 1.774 1.774 0 00-1.323-.412 1.64 1.64 0 00-.706.24 1.448 1.448 0 00-.967-.347 1.383 1.383 0 00-1.022.483c-1.16-.701-1.916-.288-2.218-.042-.896.73-1.002 2.46-.23 3.78a.72.72 0 00.069.096c.998 1.17 1.182 3.85 1.106 6.158H8.055V46.522zM28.062 63.29a5.175 5.175 0 01.05-3.603h13.053v9.212H19.121l2.571-1.264c1.343.716 3.212.54 4.697-.477 1.413-.97 2.04-2.409 1.67-3.868h.003zM8.055 59.687h11.136c-.036.396-.077.759-.117 1.066L8.068 64.901l-.013.005v-5.22zm0 6.66l11.87-4.473a.675.675 0 00.429-.53c1.1-7.194-.706-9.95-1.085-10.436-.437-.787-.353-1.773-.059-2.011.118-.097.405-.04.81.245a2.646 2.646 0 00-.027 1.58.675.675 0 101.28-.432 1.28 1.28 0 01.148-.992.687.687 0 00.095-.283c0-.005.003-.01.004-.016.012-.135.06-.24.112-.242.03 0 .12.065.159.229a6.04 6.04 0 00.01 1.268.675.675 0 001.342-.146 4.642 4.642 0 01-.007-1.016.323.323 0 01.27-.233.442.442 0 01.294.09 3.905 3.905 0 00-.058 1.422.675.675 0 101.333-.216 2.575 2.575 0 01.05-.934c.162-.092.342-.151.527-.173a2.98 2.98 0 000 1.564.675.675 0 101.277-.44 1.755 1.755 0 01.023-.767.68.68 0 01.405-.114c.076-.002.15.02.214.061.009.025.005.172-.166.443a.675.675 0 00-.074.564c.365 1.253.552 2.55.555 3.855a12.259 12.259 0 01-.81 4.63 6.679 6.679 0 00-.216 4.793c.315 1.253-.685 2.099-1.131 2.404-.983.675-2.502.983-3.507.27a.675.675 0 00-.688-.055l-5.805 2.85-7.574.001v-2.76zM1.8 48.745c0-1.425.734-2.418 1.391-2.42h3.06v23.689a.9.9 0 00.9.9h34.91a.9.9 0 00.9-.9v-.084a.903.903 0 00.014-.131V46.295l24.36-.019c.368.047.694.262.88.583.347.549.525 1.187.512 1.836v37.547a3.307 3.307 0 01-.511 1.837c-.186.32-.511.536-.879.582-1.623-.011-3.804.02-5.028.122a.9.9 0 00-.763.566l-2.512 6.362-2.74-6.444a.9.9 0 00-.826-.548l-52.28-.21c-.657-.002-1.389-.996-1.389-2.419L1.8 48.745z" fill="#4D4D4D"/>
    <path d="M57.565 65.322a7.506 7.506 0 10-7.505-7.505 7.515 7.515 0 007.505 7.505zm0-1.35a6.123 6.123 0 01-3.883-1.385c.266-.079.538-.149.806-.218.172-.045.347-.09.52-.138.09.272.24.518.44.72a2.748 2.748 0 002.03.692c1.658 0 2.39-.864 2.682-1.392.353.081.82.2 1.279.343a6.125 6.125 0 01-3.874 1.378zm-1.035-3.616c.255.165.548.262.85.28a1.85 1.85 0 001.03-.363c.05.653.378 1.254.9 1.651a2.052 2.052 0 01-1.832.819c-1.22 0-1.542-.526-1.627-.817.49-.365.748-.963.678-1.57h.001zm2.774-.994a4.78 4.78 0 00.544-1.02c.1.277.23.54.39.787-.28.17-.607.25-.935.233zm.23-3.272a3.358 3.358 0 01-1.085-.608 7.225 7.225 0 01-.924-.975l-.124-.248h-.284a2.638 2.638 0 00-1.503.444c.07-.16.158-.31.263-.45.392-.51.867-.705 1.755-.72h.036a1.91 1.91 0 011.732 1.162c.144.45.19.926.132 1.395h.001zm-3.432-.623c.23-.178.507-.281.797-.297.296.355.618.687.963.993a4.28 4.28 0 001.406.794c-.01.081-.027.175-.039.242l-.017.095c-.246 1.416-1.265 2.441-1.832 2.441-.36 0-1.722-.997-1.722-2.346-.001-1.171.014-1.436.443-1.922h.001zm1.464-3.806A6.145 6.145 0 0162.17 61.89a17.214 17.214 0 00-2.124-.585 1.307 1.307 0 01-.724-1.043 2.69 2.69 0 001.874-.714l.405-.347-.41-.34a3.205 3.205 0 01-.735-1.638 2.475 2.475 0 01-.045-.786 4.567 4.567 0 00-.183-2.109 2.773 2.773 0 00-2.61-1.698c-1.157.02-1.89.341-2.452 1.074a3.621 3.621 0 00-.663 2.602c.02.274.038.484.054.652.054.246.046.502-.023.745a2.46 2.46 0 01-.744 1.144l-.332.25.222.35a1.91 1.91 0 001.599.827c.117-.001.234-.012.35-.031.023.402-.021.858-.289.95-.331.114-.692.207-1.073.305-.436.112-.878.23-1.308.384a6.146 6.146 0 014.607-10.221l.001.001zm-2.11 7.695a1.107 1.107 0 01-.759-.148c.138-.157.261-.327.369-.507.107.23.238.451.388.657l.001-.002z" fill="#4D4D4D"/>
  </g>
</svg>
