<?xml version="1.0"?>
<svg xmlns="http://www.w3.org/2000/svg" viewBox="0 0 320 320">
  <path d="M142.3 134.3h111c2.9 0 5.3 2.4 5.3 5.3v.5c0 2.9-2.4 5.3-5.3 5.3h-111c-2.9 0-5.3-2.4-5.3-5.3v-.5c.1-2.9 2.4-5.3 5.3-5.3zM73 49.3c2.2 0 4.3-.5 6.3-1.5-1.3-.4-2.5-.8-3.8-1.1-5-1.5-9.7-2.9-13.2-4.3-.1 0-.2-.1-.3-.2-.8-.6-1.4-1.5-1.5-2.5-.4-3.3 3.4-7.7 7-12 1-1.2 1.9-2.3 2.7-3.3.3-.4.9-.6 1.4-.5L85.7 28c-3.8-7-12.5-9.5-19.5-5.7s-9.5 12.5-5.7 19.5c2.4 4.6 7.3 7.5 12.5 7.5zm28.9 85c-3.5 0-6.3 2.8-6.3 6.3s2.8 6.3 6.3 6.3 6.3-2.8 6.3-6.3c0-3.4-2.9-6.3-6.3-6.3zm-1.5 3.2l1.4-1.4s.1-.1.1 0l1.3 1.3s.1.1.1.2 0 .2-.1.2h-.2l-.8-.8v4.6c0 .1-.1.2-.2.2s-.2-.1-.2-.2V137l-.5.5-.3.3c-.1.1-.2.1-.3 0l-.1-.1c-.3 0-.3-.1-.2-.2zm4.4 6.4c0 .1 0 .1-.1.1h-5.6c-.1 0-.1 0-.1-.1v-5.3c0-.1 0-.1.1-.1h1.5c.1 0 .2 0 .2.1.1.1.1.2 0 .3 0 .1-.1.1-.2.1h-1.2v4.5h4.9V139h-1.2c-.1 0-.2-.1-.2-.2s.1-.2.2-.2h1.5c.1 0 .1 0 .1.1v5.2zm-37.7-9.1c-3.5 0-6.3 2.8-6.3 6.3s2.8 6.3 6.3 6.3 6.3-2.8 6.3-6.3-2.9-6.3-6.3-6.3zm-2.5 8.7c0 .2-.1.3-.3.3h-.8c-.2 0-.3-.1-.3-.3V141c0-.2.1-.3.3-.3h.8c.2 0 .3.1.3.3v2.5zm5.2-1.8c0 .1-.1.1-.1.2-.1.1-.1.2 0 .2 0 .1.1.2.1.3.1.1 0 .3-.1.4l-.2.2c-.1.1-.1.1-.1.2v.2c0 .1 0 .2-.1.3-.1.2-.3.3-.5.4-.1 0-.3.1-.4.1h-1.9c-.2 0-.4-.1-.5-.1-.3-.1-.7-.2-1.1-.3v-2.9c.2 0 .4-.1.5-.2.2-.2.4-.5.5-.7.1-.2.2-.3.2-.5.1-.2.2-.4.4-.5.3-.2.5-.5.5-.9.1-.3.1-.6.1-.8 0-.1 0-.1.1-.1s.3 0 .4.1c.2.1.4.3.4.6.1.3 0 .7-.1 1l-.3.6c0 .1-.1.2-.1.4 0 .1 0 .1.1.1h1.7c.1 0 .2 0 .3.1.2.1.3.3.3.5v.2c0 .1-.1.1-.1.2-.1.1-.1.2 0 .2 0 .1.1.2.1.2 0 .1 0 .2-.1.3z" fill="#fff"/>
  <path d="M69.6 29.4c-2.8 3.3-6.6 7.8-6.4 10 0 .2.1.5.3.6 3.3 1.3 7.9 2.7 12.7 4.1l6 1.8c1.9-1.6 3.4-3.7 4.3-6-.2.2-.5.2-.8.2-.1 0-.3 0-.4-.1l-5.7-1.8c-.7-.2-1.1-1-.9-1.7.2-.7 1-1.1 1.7-.9l5.7 1.8c.4.1.7.4.8.8.2-.8.3-1.5.4-2.3l-5.1-1.5c-.7-.2-1.1-.9-.9-1.6.2-.7.9-1.1 1.6-.9l4.3 1.3c-.1-.7-.2-1.5-.4-2.2l-15.1-4.4c-.5 1-1.3 1.9-2.1 2.8zM74.7 40c-.2.7-1 1.1-1.7.9l-7-2.3c-.7-.3-1-1-.8-1.7.2-.6.9-1 1.6-.8l7.1 2.2c.6.3 1 1 .8 1.7zm9.1 1.4c.7.2 1.1 1 .9 1.7-.2.5-.7.9-1.3.9-.1 0-.3 0-.4-.1l-5.8-1.8c-.7-.2-1.1-1-.9-1.7.2-.7 1-1.1 1.7-.9l5.8 1.9zm-4.4-11.2c-1.6 2.2-3.2 4.2-4.2 5.8l-7.5-2.3c1.6-2 2.8-3.5 4.5-5.6l7.2 2.1z" fill="#fff"/>
  <path d="M43.4 156.3h234.2V5.3H43.4v151zm23.7-3.6c-6.4 0-11.6-5.2-11.6-11.6 0-6.4 5.2-11.6 11.6-11.6 6.4 0 11.6 5.2 11.6 11.6-.1 6.4-5.2 11.6-11.6 11.6zm-10.7-33.9c0-1.5 1.2-2.6 2.6-2.6h173.1c1.5 0 2.6 1.2 2.6 2.6s-1.2 2.6-2.6 2.6h-173c-1.5 0-2.7-1.1-2.7-2.6zm45.5 33.4c-6.4 0-11.6-5.2-11.6-11.6s5.2-11.6 11.6-11.6c6.4 0 11.6 5.2 11.6 11.6-.1 6.4-5.3 11.6-11.6 11.6zm162-12.1c0 5.8-4.7 10.5-10.6 10.6h-111c-5.8 0-10.5-4.7-10.6-10.6v-.5c0-5.8 4.7-10.5 10.6-10.6h111c5.8 0 10.5 4.7 10.6 10.6v.5zm-2.6-32.7H58.8c-1.5 0-2.6-1.2-2.6-2.6s1.2-2.6 2.6-2.6h202.5c1.5 0 2.6 1.2 2.6 2.6s-1.2 2.6-2.6 2.6zm3.5-46.1v29.3c0 1.5-1.2 2.6-2.6 2.6h-204c-1.5 0-2.6-1.2-2.6-2.6V61.3c0-1.5 1.2-2.6 2.6-2.6h204c1.4-.1 2.6 1.1 2.6 2.6zm-32.2-31.7h28.5c1.5 0 2.6 1.2 2.6 2.6 0 1.5-1.2 2.6-2.6 2.6h-28.5c-1.5 0-2.6-1.2-2.6-2.6 0-1.4 1.2-2.6 2.6-2.6zm-134.7-.5h72.9c1.5 0 2.6 1.2 2.6 2.6 0 1.5-1.2 2.6-2.6 2.6H97.9c-1.5 0-2.6-1.2-2.6-2.6 0-1.4 1.2-2.6 2.6-2.6zM73 16.6c10.1 0 18.3 8.2 18.3 18.3 0 10.1-8.2 18.3-18.3 18.3-10.1 0-18.3-8.2-18.3-18.3 0-10.1 8.2-18.3 18.3-18.3z" fill="#fff"/>
  <path d="M280.2 0H40.8c-1.5 0-2.6 1.2-2.6 2.6v156.3c0 1.5 1.2 2.6 2.6 2.6h239.5c1.5 0 2.6-1.2 2.6-2.6V2.6c0-1.4-1.2-2.6-2.7-2.6zm-2.6 156.3H43.4V5.3h234.2v151z" fill="#4d4d4d"/>
  <path d="M261.3 102.1H58.8c-1.5 0-2.6 1.2-2.6 2.6 0 1.5 1.2 2.6 2.6 2.6h202.5c1.5 0 2.6-1.2 2.6-2.6 0-1.4-1.2-2.6-2.6-2.6zm-29.1 19.3c1.5 0 2.6-1.2 2.6-2.6s-1.2-2.6-2.6-2.6H59.1c-1.5 0-2.6 1.2-2.6 2.6s1.2 2.6 2.6 2.6h173.1zm-134.3-87h72.9c1.5 0 2.6-1.2 2.6-2.6 0-1.5-1.2-2.6-2.6-2.6H97.9c-1.5 0-2.6 1.2-2.6 2.6 0 1.4 1.2 2.6 2.6 2.6z" fill="#4d4d4d"/>
  <path d="M75.2 36c1-1.6 2.6-3.6 4.2-5.8l-7.1-2.1c-1.7 2.1-2.9 3.5-4.5 5.6l7.4 2.3z" fill="#e28888"/>
  <path d="M73.8 38.4l-7-2.2c-.7-.2-1.4.2-1.7.9-.2.7.2 1.4.9 1.7l7.1 2.2c.7.2 1.4-.1 1.7-.8.1-.8-.2-1.6-1-1.8.1 0 0 0 0 0z" fill="#4d4d4d"/>
  <path d="M73 53.2c10.1 0 18.3-8.2 18.3-18.3S83.2 16.6 73 16.6c-10.1 0-18.3 8.2-18.3 18.3 0 10.1 8.2 18.3 18.3 18.3zm13.9-22.1c.2.7.3 1.5.4 2.2L83 32.1c-.7-.2-1.4.2-1.6.9-.2.7.2 1.4.9 1.6l5.1 1.5c-.1.8-.2 1.6-.4 2.3-.1-.4-.4-.7-.8-.8l-5.7-1.8c-.7-.2-1.4.2-1.7.9-.2.7.2 1.4.9 1.7l5.7 1.8c.1 0 .3.1.4.1.3 0 .5-.1.8-.2-.9 2.3-2.3 4.4-4.3 6l-6-1.8c-4.9-1.4-9.4-2.8-12.7-4.1-.2-.2-.3-.4-.3-.6-.2-2.2 3.6-6.7 6.4-10 .8-.9 1.5-1.8 2.2-2.6l15 4.1zM73 20.5c5.3 0 10.1 2.9 12.6 7.5l-13.9-4c-.5-.2-1.1 0-1.4.5-.8 1-1.7 2.1-2.7 3.3-3.6 4.3-7.4 8.7-7 12 .1 1 .6 1.9 1.5 2.5.1.1.2.1.3.2 3.4 1.4 8.2 2.8 13.2 4.3 1.3.4 2.5.7 3.8 1.1-7.1 3.5-15.7.5-19.2-6.7-3.6-7.2-.6-15.8 6.6-19.2 1.9-1 4.1-1.5 6.2-1.5z" fill="#4d4d4d"/>
  <path d="M76.4 40.5c-.2.7.2 1.4.9 1.7l5.8 1.8c.1 0 .3.1.4.1.7 0 1.3-.6 1.3-1.3 0-.6-.4-1.1-.9-1.3L78 39.6c-.7-.2-1.4.2-1.6.9z" fill="#4d4d4d"/>
  <path d="M232.6 34.9h28.5c1.5 0 2.6-1.2 2.6-2.6 0-1.5-1.2-2.6-2.6-2.6h-28.5c-1.5 0-2.6 1.2-2.6 2.6 0 1.4 1.2 2.6 2.6 2.6z" fill="#cbcbcb"/>
  <path d="M102.3 292.6c-3.5 0-6.3 2.8-6.3 6.3s2.8 6.3 6.3 6.3 6.3-2.8 6.3-6.3-2.8-6.3-6.3-6.3zm-1.5 3.2l1.4-1.4s.1-.1.1 0l1.3 1.3s.1.1.1.2 0 .2-.1.2h-.2l-.8-.8v4.6c0 .1-.1.2-.2.2s-.2-.1-.2-.2v-4.7l-.5.5-.3.3c-.1.1-.2.1-.3 0l-.1-.1c-.2 0-.2-.1-.2-.1zm4.4 6.3c0 .1 0 .1-.1.1h-5.6c-.1 0-.1 0-.1-.1v-5.3c0-.1 0-.1.1-.1h1.5c.1 0 .2 0 .2.1.1.1.1.2 0 .3 0 .1-.1.1-.2.1h-1.2v4.5h4.9v-4.5h-1.2c-.1 0-.2-.1-.2-.2s.1-.2.2-.2h1.5c.1 0 .1 0 .1.1v5.2zM67.5 293c-3.5 0-6.3 2.8-6.3 6.3s2.8 6.3 6.3 6.3 6.3-2.8 6.3-6.3c0-3.4-2.8-6.2-6.3-6.3zm-2.5 8.8c0 .2-.1.3-.3.3h-.8c-.2 0-.3-.1-.3-.3v-2.6c0-.2.1-.3.3-.3h.8c.2 0 .3.1.3.3v2.6zm5.3-1.9c0 .1-.1.1-.1.2-.1.1-.1.2 0 .2 0 .1.1.2.1.3.1.1 0 .3-.1.4l-.2.2c-.1.1-.1.1-.1.2v.2c0 .1 0 .2-.1.3-.1.2-.3.3-.5.4-.1 0-.3.1-.4.1H67c-.2 0-.4-.1-.5-.1-.3-.1-.7-.2-1.1-.3v-3c.2 0 .4-.1.5-.2.2-.2.4-.5.5-.7.1-.2.2-.3.2-.5.1-.2.2-.4.4-.5.3-.2.5-.5.5-.9.1-.3.1-.5.1-.8 0-.1 0-.1.1-.1s.3 0 .4.1c.2.1.4.3.4.6.1.3 0 .7-.1 1l-.3.6c0 .1-.1.2-.1.4 0 .1 0 .1.1.1h1.7c.1 0 .2 0 .3.1.2.1.3.3.3.5v.2c0 .1-.1.1-.1.2-.1.1-.1.2 0 .2 0 .1.1.2.1.2 0 .3 0 .3-.1.4zm72.5-7.3h111c2.9 0 5.3 2.4 5.3 5.3v.5c0 2.9-2.4 5.3-5.3 5.3h-111c-2.9 0-5.3-2.4-5.3-5.3v-.5c0-3 2.4-5.3 5.3-5.3z" fill="#fff"/>
  <path d="M42.7 314.7h234.2V173.9H42.7v140.8zm24.8-3.8c-6.4 0-11.6-5.2-11.6-11.6 0-6.4 5.2-11.6 11.6-11.6 6.4 0 11.6 5.2 11.6 11.6 0 6.4-5.2 11.6-11.6 11.6zm34.8-.4c-6.4 0-11.6-5.2-11.6-11.6s5.2-11.6 11.6-11.6c6.4 0 11.6 5.2 11.6 11.6 0 6.4-5.2 11.6-11.6 11.6zm162-12.2c0 5.8-4.7 10.5-10.6 10.6h-111c-5.8 0-10.5-4.7-10.6-10.6v-.5c0-5.8 4.7-10.5 10.6-10.6h111c5.8 0 10.5 4.7 10.6 10.6v.5zm-2.2-20.6H58.6c-1.5 0-2.6-1.2-2.6-2.6 0-1.5 1.2-2.6 2.6-2.6h203.5c1.5 0 2.6 1.2 2.6 2.6.1 1.5-1.1 2.6-2.6 2.6zm2.7-16.8c0 1.5-1.2 2.6-2.6 2.6H58.6c-1.5 0-2.6-1.2-2.6-2.6s1.2-2.6 2.6-2.6h203.5c1.5-.1 2.7 1.1 2.7 2.6zM59.1 244h72.1c1.5 0 2.6 1.2 2.6 2.6s-1.2 2.6-2.6 2.6H59.1c-1.5 0-2.6-1.2-2.6-2.6s1.1-2.6 2.6-2.6zm-2.7-12.5c0-1.5 1.2-2.6 2.6-2.6h173.1c1.5 0 2.6 1.2 2.6 2.6 0 1.5-1.2 2.6-2.6 2.6h-173c-1.5 0-2.7-1.2-2.7-2.6zm175.8-33h28.5c1.5 0 2.6 1.2 2.6 2.6s-1.2 2.6-2.6 2.6h-28.5c-1.5 0-2.6-1.2-2.6-2.6s1.2-2.6 2.6-2.6zm-134 .4h66.3c1.5 0 2.6 1.2 2.6 2.6 0 1.5-1.2 2.6-2.6 2.6H98.2c-1.5 0-2.6-1.2-2.6-2.6 0-1.4 1.2-2.6 2.6-2.6zm-28.3-14.8c9.6 0 17.4 7.8 17.4 17.4 0 9.6-7.8 17.4-17.4 17.4-9.6 0-17.4-7.8-17.4-17.4 0-9.6 7.8-17.3 17.4-17.4z" fill="#fff"/>
  <path d="M279.5 168.6H40c-1.5 0-2.6 1.2-2.6 2.6v146.1c0 1.5 1.2 2.6 2.6 2.6h239.4c1.5 0 2.6-1.2 2.6-2.6V171.2c.1-1.4-1.1-2.6-2.5-2.6zm-2.7 146.1H42.7V173.9h234.2v140.8z" fill="#4d4d4d"/>
  <path d="M69.9 215c7.4 0 13.4-6 13.4-13.4s-6-13.4-13.4-13.4-13.4 6-13.4 13.4 6 13.4 13.4 13.4zm-4.5-18.3c.5 0 1 .2 1.4.6.8-.8 2-.7 2.8.1l.2.2.5.7c.2-1.1 1.3-1.7 2.4-1.5.4.1.8.3 1.1.7l1 1.2c0-1.1.9-2 2-2s2 .9 2 2v5.7c0 1.1-.9 2-2 2-.6 0-1.2-.3-1.6-.7l-1-1.2c0 1.1-.9 2-2 2-.6 0-1.2-.3-1.6-.8l-.5-.7c-.2.9-1 1.6-1.9 1.6h-2.9c-1.2 0-2.4-.5-3.2-1.3-.9-.9-1.4-2.2-1.4-3.5-.1-2.6 1.9-4.8 4.5-4.9 0-.2.1-.2.2-.2z" fill="#e28888"/>
  <path d="M65.3 202.4h.8v-1.9c-.2.1-.5.1-.7.2-.8 0-.8.6-.8.9 0 .2 0 .4.1.6.2.1.4.2.6.2z" fill="#e28888"/>
  <path d="M69.9 218.9c9.6 0 17.4-7.8 17.4-17.4 0-9.6-7.8-17.4-17.4-17.4-9.6 0-17.4 7.8-17.4 17.4 0 9.6 7.8 17.4 17.4 17.4zm0-30.8c7.4 0 13.4 6 13.4 13.4s-6 13.4-13.4 13.4-13.4-6-13.4-13.4 6-13.4 13.4-13.4zm-10.8 46h173.1c1.5 0 2.6-1.2 2.6-2.6 0-1.5-1.2-2.6-2.6-2.6H59.1c-1.5 0-2.6 1.2-2.6 2.6-.1 1.4 1.1 2.6 2.6 2.6z" fill="#4d4d4d"/>
  <path d="M59.1 249.3h72.1c1.5 0 2.6-1.2 2.6-2.6s-1.2-2.6-2.6-2.6H59.1c-1.5 0-2.6 1.2-2.6 2.6s1.1 2.6 2.6 2.6z" fill="#cbcbcb"/>
  <path d="M98.2 204.2h66.3c1.5 0 2.6-1.2 2.6-2.6 0-1.5-1.2-2.6-2.6-2.6H98.2c-1.5 0-2.6 1.2-2.6 2.6 0 1.4 1.2 2.6 2.6 2.6z" fill="#4d4d4d"/>
  <path d="M232.2 203.8h28.5c1.5 0 2.6-1.2 2.6-2.6 0-1.5-1.2-2.6-2.6-2.6h-28.5c-1.5 0-2.6 1.2-2.6 2.6 0 1.4 1.2 2.6 2.6 2.6zM58.6 258.2c-1.5 0-2.6 1.2-2.6 2.6s1.2 2.6 2.6 2.6h203.5c1.5 0 2.6-1.2 2.6-2.6s-1.2-2.6-2.6-2.6H58.6zm203.5 14.3H58.6c-1.5 0-2.6 1.2-2.6 2.6 0 1.5 1.2 2.6 2.6 2.6h203.5c1.5 0 2.6-1.2 2.6-2.6.1-1.5-1.1-2.6-2.6-2.6z" fill="#cbcbcb"/>
  <path d="M65.2 206.4h2.9c.9 0 1.7-.6 1.9-1.6l.5.7c.6.9 1.9 1.1 2.8.5.5-.4.8-1 .8-1.6l1 1.2c.7.9 1.9 1 2.8.3.5-.4.7-.9.7-1.6v-5.7c0-1.1-.9-2-2-2s-2 .9-2 2l-1-1.2c-.7-.9-1.9-1-2.8-.3-.4.3-.6.7-.7 1.1l-.5-.7c-.6-.9-1.9-1.1-2.8-.5l-.2.2c-.4-.4-.9-.6-1.4-.6-2.6 0-4.7 2-4.8 4.6v.3c-.1 1.3.4 2.6 1.4 3.5 1.1.9 2.2 1.4 3.4 1.4zm.2-5.7c.3 0 .5-.1.7-.2v1.9h-.8c-.2 0-.4-.1-.6-.2-.1-.2-.2-.4-.1-.6 0-.3 0-.9.8-.9z" fill="#fff"/>
  <path fill="#aed7f0" d="M60.8 63.9h198.7v24H60.8z"/>
  <path d="M58.1 58.6c-1.5 0-2.6 1.2-2.6 2.6v29.3c0 1.5 1.2 2.6 2.6 2.6h204c1.5 0 2.6-1.2 2.6-2.6V61.3c0-1.5-1.2-2.6-2.6-2.6h-204zm201.4 29.3H60.8v-24h198.7v24z" fill="#4d4d4d"/>
  <path d="M69.7 141.1c-.1-.1 0-.2 0-.2 0-.1.1-.1.1-.2.1-.1.1-.2 0-.2-.1-.2-.2-.4-.3-.5-.1-.1-.2-.1-.3-.1h-1.7c-.1 0-.1 0-.1-.1s0-.2.1-.4l.3-.6c.2-.3.2-.7.1-1 0-.3-.2-.5-.4-.6-.1-.1-.3-.1-.4-.1-.1 0-.1 0-.1.1 0 .3-.1.6-.1.8 0 .4-.2.7-.5.9-.2.1-.3.3-.4.5-.1.2-.1.3-.2.5-.1.3-.3.5-.5.7-.1.1-.3.2-.5.2v2.9c.4.1.7.1 1.1.3.2 0 .4.1.5.1h1.9c.1 0 .3 0 .4-.1.2-.1.4-.2.5-.4.1-.1.1-.2.1-.3v-.2c0-.1 0-.2.1-.2l.2-.2c.1-.1.1-.2.1-.4 0-.1-.1-.2-.1-.3v-.2c0-.1.1-.1.1-.2.1-.1.1-.2 0-.4.1.1 0 0 0-.1zm-5.4-.5h-.8c-.2 0-.3.1-.3.3v2.6c0 .2.1.3.3.3h.8c.2 0 .3-.1.3-.3V141c0-.2-.1-.4-.3-.4z" fill="#cbcbcb"/>
  <path d="M67.1 129.5c-6.4 0-11.6 5.2-11.6 11.6 0 6.4 5.2 11.6 11.6 11.6 6.4 0 11.6-5.2 11.6-11.6 0-6.4-5.2-11.6-11.6-11.6zm0 17.9c-3.5 0-6.3-2.8-6.3-6.3s2.8-6.3 6.3-6.3 6.3 2.8 6.3 6.3-2.9 6.3-6.3 6.3zm34.8-18.4c-6.4 0-11.6 5.2-11.6 11.6 0 6.4 5.2 11.6 11.6 11.6 6.4 0 11.6-5.2 11.6-11.6-.1-6.4-5.2-11.5-11.6-11.6zm0 17.9c-3.5 0-6.3-2.8-6.3-6.3s2.8-6.3 6.3-6.3 6.3 2.8 6.3 6.3-2.9 6.3-6.3 6.3zM253.3 129h-111c-5.8 0-10.5 4.7-10.6 10.6v.5c0 5.8 4.7 10.5 10.6 10.6h111c5.8 0 10.5-4.7 10.6-10.6v-.5c0-5.8-4.7-10.5-10.6-10.6zm5.3 11.1c0 2.9-2.4 5.3-5.3 5.3h-111c-2.9 0-5.3-2.4-5.3-5.3v-.5c0-2.9 2.4-5.3 5.3-5.3h111c2.9 0 5.3 2.4 5.3 5.3v.5z" fill="#cbcbcb"/>
  <path d="M104.7 138.5h-1.5c-.1 0-.2.1-.2.2s.1.2.2.2h1.2v4.5h-4.9V139h1.2c.1 0 .2-.1.2-.1v-.3c-.1-.1-.1-.1-.2-.1h-1.5c-.1 0-.1 0-.1.1v5.3c0 .1 0 .1.1.1h5.6c.1 0 .1 0 .1-.1v-5.3c-.1-.1-.1-.1-.2-.1z" fill="#cbcbcb"/>
  <path d="M100.7 137.8l.3-.3.5-.5v4.7c0 .1.1.2.2.2s.2-.1.2-.2V137l.8.8h.2c.1 0 .1-.1.1-.2s0-.1-.1-.2l-1.3-1.3s-.1-.1-.1 0l-1.3 1.3c0 .1-.1.1 0 .2 0 .1 0 .1.1.1.2.3.4.2.4.1zM70.2 299.3c-.1-.1 0-.2 0-.2 0-.1.1-.1.1-.2.1-.1.1-.2 0-.2-.1-.2-.2-.4-.3-.5-.1-.1-.2-.1-.3-.1H68c-.1 0-.1 0-.1-.1s0-.2.1-.4l.3-.6c.2-.3.2-.7.1-1 0-.3-.2-.5-.4-.6-.1-.1-.3-.1-.4-.1-.1 0-.1 0-.1.1 0 .3-.1.6-.1.8 0 .4-.2.7-.5.9-.2.1-.3.3-.4.5-.1.2-.1.3-.2.5-.1.3-.3.5-.5.7-.1.1-.3.2-.5.2v2.9c.4.1.7.1 1.1.3.2 0 .4.1.5.1h1.9c.1 0 .3 0 .4-.1.2-.1.4-.2.5-.4.1-.1.1-.2.1-.3v-.2c0-.1 0-.2.1-.2l.2-.2c.1-.1.1-.2.1-.4 0-.1-.1-.2-.1-.3v-.2c0-.1.1-.1.1-.2.1-.1.1-.2 0-.4.1.1 0 0 0-.1zm-5.5-.4H64c-.2 0-.3.1-.3.3v2.6c0 .2.1.3.3.3h.8c.2 0 .3-.1.3-.3v-2.6c0-.2-.2-.3-.4-.3.1 0 0 0 0 0z" fill="#cbcbcb"/>
  <path d="M67.5 287.8c-6.4 0-11.6 5.2-11.6 11.6S61.1 311 67.5 311c6.4 0 11.6-5.2 11.6-11.6 0-6.4-5.2-11.6-11.6-11.6zm0 17.9c-3.5 0-6.3-2.8-6.3-6.3s2.8-6.3 6.3-6.3 6.3 2.8 6.3 6.3c0 3.4-2.8 6.2-6.3 6.3zm34.8-18.4c-6.4 0-11.6 5.2-11.6 11.6s5.2 11.6 11.6 11.6c6.4 0 11.6-5.2 11.6-11.6 0-6.4-5.2-11.6-11.6-11.6zm0 17.9c-3.5 0-6.3-2.8-6.3-6.3s2.8-6.3 6.3-6.3 6.3 2.8 6.3 6.3-2.8 6.3-6.3 6.3zm151.5-17.9h-111c-5.8 0-10.5 4.7-10.6 10.6v.5c0 5.8 4.7 10.5 10.6 10.6h111c5.8 0 10.5-4.7 10.6-10.6v-.5c-.1-5.9-4.8-10.6-10.6-10.6zm5.3 11c0 2.9-2.4 5.3-5.3 5.3h-111c-2.9 0-5.3-2.4-5.3-5.3v-.5c0-2.9 2.4-5.3 5.3-5.3h111c2.9 0 5.3 2.4 5.3 5.3v.5z" fill="#cbcbcb"/>
  <path d="M105.1 296.7h-1.5c-.1 0-.2.1-.2.2s.1.2.2.2h1.2v4.5h-4.9v-4.5h1.2c.1 0 .2-.1.2-.1v-.3c-.1-.1-.1-.1-.2-.1h-1.5c-.1 0-.1 0-.1.1v5.3c0 .1 0 .1.1.1h5.6c.1 0 .1 0 .1-.1v-5.3h-.2z" fill="#cbcbcb"/>
  <path d="M101.2 296.1l.3-.3.5-.5v4.7c0 .1.1.2.2.2s.2-.1.2-.2v-4.6l.8.8h.2c.1 0 .1-.1.1-.2s0-.1-.1-.2l-1.3-1.3s-.1-.1-.1 0l-1.3 1.3c0 .1-.1.1 0 .2 0 .1 0 .1.1.1.2.1.3.1.4 0z" fill="#cbcbcb"/>
</svg>
