<?xml version="1.0"?>
<svg xmlns="http://www.w3.org/2000/svg" width="320" height="320">
  <path d="M80.29 96.47v-8.49a8.36 8.36 0 00-4.62 15.59l4.68 2.7v-4.67a2.92 2.92 0 01.86-2.07 2.88 2.88 0 01.7-.5 3 3 0 01-1.62-2.56zm107.47 142.65a97.76 97.76 0 00-10.91-12.69v.16a2.49 2.49 0 01-1.86 3 2.78 2.78 0 01-.57.07 2.53 2.53 0 01-2.44-1.94c-.17-.77-.32-1.5-.49-2.25a19.91 19.91 0 01-3.53.34l-41.55.05c14 5.86 31.95 6.79 32.17 6.8l1.26.06L172.78 252a135.21 135.21 0 0115.34-12.4z" fill="#b18d76"/>
  <path d="M80.32 106.28l-4.68-2.7A8.36 8.36 0 0180.26 88v-5a13.36 13.36 0 00-7.1 24.93l7.2 4.15z" fill="#424343"/>
  <path d="M181.91 158.92v-7.6l-1.19-2.92V160c.41-.37.81-.74 1.19-1.08zm-21.63 40.94a2.24 2.24 0 01-1 0h-.18l-53.73.07a11.16 11.16 0 01-14.92 3.54L87.91 202v4.89a14 14 0 0014 14l66-.08a15.49 15.49 0 002.54-.24 127.58 127.58 0 01-2.3-20.72zM141.82 217a9.4 9.4 0 01-6.6 2.68 9.29 9.29 0 01-9.37-9.18 9 9 0 012.75-6.5 9.4 9.4 0 016.6-2.68 9.41 9.41 0 016.6 2.68 9.07 9.07 0 01.24 12.83c-.04.03-.15.1-.22.17z" fill="#979797"/>
  <path d="M135.21 206.29a4.4 4.4 0 00-3.11 1.25 4.11 4.11 0 00-1.26 3 4.3 4.3 0 004.37 4.19 4.46 4.46 0 003.11-1.26 4.07 4.07 0 00.12-5.76 1.59 1.59 0 00-.13-.13 4.41 4.41 0 00-3.1-1.29zM89.44 67.12a4.23 4.23 0 014.23-4.23l82.68-.1a4.22 4.22 0 014.23 4.21l.07 46.54h1.19V61.5a14 14 0 00-14-14l-66 .08a14 14 0 00-14 14l.09 62.58a12.93 12.93 0 011.73.56zm41-13.49h17.63a1.73 1.73 0 011.73 1.73v.95a1.73 1.73 0 01-1.69 1.69h-17.63a1.72 1.72 0 01-1.73-1.73v-1a1.73 1.73 0 011.73-1.64zm-9 .93a1.75 1.75 0 011.26-.5 1.75 1.75 0 011.8 1.71A1.66 1.66 0 01124 57a1.79 1.79 0 01-1.26.5 1.75 1.75 0 01-1.8-1.71 1.6 1.6 0 01.5-1.23z" fill="#979797"/>
  <path d="M184.62 93.47a2.8 2.8 0 01-2.8-2.8v22.87h5V93.3a2.5 2.5 0 01-.89.16zM82.84 151.39v1.26a12.3 12.3 0 011.7-.28zm4.96-27.18l-.09-62.58a14 14 0 0114-14l66-.08a14 14 0 0114 14v21.71V77a2.8 2.8 0 012.8-2.8h1.31a2.74 2.74 0 01.89.16V61.55a19.05 19.05 0 00-19-19l-66 .09a19 19 0 00-18.55 14.91h.56a3.09 3.09 0 013.16 3v8.22a3.08 3.08 0 01-3.16 3h-.39a3.36 3.36 0 01-.63-.06v5.79a2.84 2.84 0 01.66-.07h.38a3.09 3.09 0 013.17 3l.06 16a2.9 2.9 0 01-.86 2.06 2.85 2.85 0 01-.7.51 3 3 0 011.59 2.59v16a2.92 2.92 0 01-.86 2.07 3.24 3.24 0 01-2.3.93h-.39a3 3 0 01-.73-.09v3.5a12.9 12.9 0 015.08.21zm30.33 97.1a41.15 41.15 0 008.31 4.55l41.55-.05a19.91 19.91 0 003.53-.34c-.37-1.67-.7-3.31-1-4.9a13.57 13.57 0 01-2.54.24l-66 .08a14 14 0 01-14-14V202l-5-2.89v7.79a19 19 0 0019 19h14c-.25-.18-.51-.35-.76-.54zm-32.49-43.49l-2.76-1.6v2.45a11.17 11.17 0 012.76-.85zm98.6-20.76l-2.34-5.74v7.6a24.34 24.34 0 012.34-1.86z" fill="#424343"/>
  <path d="M162.46 147.1a2.48 2.48 0 01-1.87.85h-5.39a201.25 201.25 0 0120.52 7.36v-14.23c-3.58-.21-8-.48-8.86-.55h-.22c-1.45 0-2.81-.1-4.13-.24l.61 4.83a2.5 2.5 0 01-.66 1.98zm-46.18 1.71l-6.57-.33a2.52 2.52 0 01-1.74-.84 1.33 1.33 0 01-.14-.19 13.16 13.16 0 01-2.48 4.37l2.93-.77c2.82-.72 5.49-1.42 8-2.24zm-6.17-44.87c0-10.35.81-19.77 9.7-24.18a33.07 33.07 0 0114.12-3.55h.07c6.1 0 13.41 2.49 17 5.74 5.25 4.75 6.5 12.67 6.78 21.5a2.44 2.44 0 01.06.26l1.24 9.84h16.57l-.07-45.76-81.14.1.09 59.59 7.34 4.24a13.23 13.23 0 015.93 7.28zm-9.71-28.78l-.77.43c.26-.14.5-.3.77-.43z" fill="#add6ef"/>
  <path d="M155.18 170.42a2.51 2.51 0 010-4.33l6.42-3.7-1.6-7.63c-2.43-.81-4.62-1.5-6.27-2l-3.38 42.12h7.24l3.41-21.1zm10.32-13.75l1.38 6.46a2.5 2.5 0 01-1.2 2.69l-4.26 2.45 3.53 2.06a2.5 2.5 0 011.21 2.55l-3.53 22h5.63c.43-13.38 3.77-22.45 7.47-28.45v-5.53a104.42 104.42 0 00-10.23-4.23zM109.61 169l-3.33-1.59a11.68 11.68 0 010 4l.08-.08zm-4.16 5.15c-.18.39-.37.77-.58 1.14a11.57 11.57 0 01-8.47 5.76l5.25 3a11.21 11.21 0 015.53 10.85h3.23zm6.8-18.96l-2.61 8.25 5.94 2.83a2.49 2.49 0 011.18 3.33 2.46 2.46 0 01-.79 1l-5.33 3.82 4.9 20.54h5.62l-4-41.13c-1.59.45-3.25.92-4.91 1.36zm-12.5 3.52l.8.46a11.77 11.77 0 014 3.79l2-6.28c-2.31.61-4.55 1.26-6.8 2.03z" fill="#fff"/>
  <path d="M134.38 164.2a17.67 17.67 0 01-11.54-3.79l3.34 34.49h19.13l2.84-35.38a20.71 20.71 0 01-13.77 4.68z" fill="#e18787"/>
  <path d="M122.21 151c1 3 3.85 8.24 12.17 8.24 9.09 0 12.81-5.34 14.17-8.26a13.36 13.36 0 01-3.9-3.32 2.5 2.5 0 01-1.08-1.64 13.2 13.2 0 01-.67-1.36 15.14 15.14 0 01-1-6.63 16.2 16.2 0 01-7.89 2.38c-2.36 0-5.37-1.22-8.46-3.36.17 4.57-.3 10.48-3.34 13.95zm30.64-44.59c-4.94-3.48-13.23-3.82-18-8.79 0-3 .21-14.75-.81-14.75s-.69 11.75-.74 14.84c-7.92 6-14.48 5.22-18.14 9.48v2.5h3.83-3.83c.42 14.07 13.76 25.66 18.85 25.66 3.23 0 7.3-2.37 10.84-6.26a19.52 19.52 0 01-1.28-7.25 8.41 8.41 0 018.39-8.32h.53a26.27 26.27 0 00.39-4.52l-.03-2.59z" fill="#ceaa91"/>
  <path d="M133.25 97.71c.05-3.09-.38-14.85.74-14.84s.77 11.72.81 14.75c4.82 5 13.11 5.31 18 8.79-.09-8.82-.81-16.79-5.2-20.75-2.35-2.13-8.24-4.43-13.67-4.45a27.9 27.9 0 00-11.9 3c-6.63 3.29-7 10.79-6.92 22.75v.2c3.66-4.23 10.22-3.44 18.14-9.45z" fill="#424343"/>
  <path d="M119 109.74h-3.84" fill="none"/>
  <path d="M120 132.24a39.19 39.19 0 01-6.21-8.74l-1.33 20.11 7.59.39a35.44 35.44 0 00-.05-11.76zm27.54 10.5c0 .1.09.19.13.28l10.08-.05-.45-3.57a19.09 19.09 0 01-9.46-5.37l-.13-.15c-.5 1.52-1.57 5.49-.17 8.86z" fill="#424343"/>
  <path d="M109.71 148.48l6.57.33.4-.13v-.14a2.46 2.46 0 012.18-2.72 2.35 2.35 0 01.7 0 11.76 11.76 0 00.54-1.84l-7.59-.39 1.33-20.11a31.53 31.53 0 01-3.72-14.48v-5.08l-2.32 35a13.3 13.3 0 010 8.5l.14.19a2.54 2.54 0 001.77.87zm48.08-45.03c.06 1.82.08 3.69.08 5.57a34.22 34.22 0 01-.32 4.52h1.54l-1.24-9.84a1.83 1.83 0 00-.06-.25zm-13.13 44.17a12 12 0 01-1.09-1.64 2.55 2.55 0 001.09 1.64zm3.01-4.62a8 8 0 003.52 3.66 2.46 2.46 0 012 .7l2 .6h5.39a2.51 2.51 0 002.49-2.52v-.3l-.61-4.83a32.09 32.09 0 01-5.15-.9l.45 3.56z" fill="#424343"/>
  <path d="M141.88 138a15.3 15.3 0 001 6.63 11.37 11.37 0 00.66 1.36 12 12 0 001.09 1.64 13.23 13.23 0 003.9 3.32c-1.36 2.92-5.08 8.26-14.18 8.26-8.32 0-11.2-5.23-12.16-8.24a3.45 3.45 0 01-.26.28l.89 9.18a17.68 17.68 0 0011.53 3.78 20.61 20.61 0 0013.77-4.7l.76-9.5a2.37 2.37 0 01.33-1.92 2.51 2.51 0 011.95-1.4 8 8 0 01-3.52-3.66c0-.09-.09-.18-.13-.28-1.4-3.37-.33-7.34.17-8.86l-.21-.27a27.68 27.68 0 01-5.59 4.38zM154 149.36l-.27 3.39c1.65.51 3.84 1.2 6.27 2l-.24-1.13a2.5 2.5 0 014.89-1l.87 4.09a104.42 104.42 0 0110.22 4.2v-5.53A204.57 204.57 0 00155.2 148l-2-.6a2.49 2.49 0 01.8 1.96z" fill="#424343"/>
  <path d="M149.24 148.08a2.37 2.37 0 00-.33 1.92l.08-1a2.53 2.53 0 01.25-.92zm-41.45 4.63a2.5 2.5 0 114.77 1.51l-.31 1c1.66-.44 3.32-.9 4.93-1.41l-.5-5.1-.4.13c-2.51.82-5.18 1.52-8 2.24l-2.93.77a13.21 13.21 0 01-6.67 4.15 13.86 13.86 0 01-2.79.44l3.86 2.23c2.21-.77 4.49-1.42 6.78-2zm13.86-4.65l.31 3.18c.08-.09.17-.18.25-.28 3-3.43 3.51-9.34 3.32-14a34.61 34.61 0 01-5.49-4.77 35.7 35.7 0 010 11.76 11.76 11.76 0 01-.54 1.84 2.5 2.5 0 012.15 2.27z" fill="#424343"/>
  <path d="M157.79 103.45c-.28-8.83-1.54-16.75-6.78-21.5-3.6-3.25-10.91-5.72-17-5.74h-.07a33 33 0 00-14.11 3.55c-8.89 4.41-9.66 13.83-9.7 24.18V109a31.41 31.41 0 003.71 14.48 39.19 39.19 0 006.21 8.74 34.61 34.61 0 005.49 4.77c3.09 2.14 6.1 3.36 8.46 3.36a16.2 16.2 0 007.89-2.38 27.35 27.35 0 005.61-4.38 15.73 15.73 0 01-2.66-4.5c-3.54 3.89-7.61 6.26-10.84 6.26-5.09 0-18.43-11.59-18.85-25.66V107c0-12 .28-19.46 6.92-22.75a27.83 27.83 0 0111.9-3h.03c5.42 0 11.31 2.32 13.66 4.45 4.39 4 5.11 11.94 5.2 20.75v2.61a26.27 26.27 0 01-.39 4.52h5.07a32.39 32.39 0 00.32-4.52c.01-1.92-.01-3.79-.07-5.61zm-42.25 91.47l-4.9-20.54 5.33-3.82a2.5 2.5 0 00-.39-4.29l-5.94-2.83 2.61-8.25.31-1a2.5 2.5 0 10-4.77-1.51l-1.26 4-2 6.28a11.92 11.92 0 011.5 3.38 9.18 9.18 0 01.23 1l3.34 1.59-3.26 2.33-.08.07a11.72 11.72 0 01-.83 2.78l5 20.78zm6.46-43.68l-.31-3.18a2.5 2.5 0 00-5 .4v.22l.5 5.1 4 41.13h5l-3.34-34.48zm32-1.88a2.49 2.49 0 00-2.26-2.69 3.13 3.13 0 00-.53 0A2.55 2.55 0 00149 149l-.08 1-.76 9.51-2.84 35.37h5l3.38-42.13zm5.29 50.55a2.26 2.26 0 001 0h-1.19zm5.71-29.58l-3.53-2.06 4.26-2.45a2.48 2.48 0 001.2-2.69l-1.38-6.46-.87-4.09a2.5 2.5 0 00-4.89 1l.24 1.13 1.63 7.63-6.42 3.7a2.51 2.51 0 00-.92 3.42 2.48 2.48 0 00.91.91l5.78 3.37-3.39 21.08h5.06l3.54-22a2.51 2.51 0 00-1.22-2.49z" fill="#424343"/>
  <path d="M99.63 75.59l.77-.43c-.27.13-.51.29-.77.43z" fill="#e39e86"/>
  <path d="M159.1 199.86h9.12v-5h-61.04a11.26 11.26 0 01-1.43 4.44c-.12.2-.25.37-.38.56zM94.44 67.88l81.15-.1.06 45.76h5L180.59 67a4.24 4.24 0 00-4.23-4.23l-82.69.1a4.24 4.24 0 00-4.22 4.24l.08 57.65a12.59 12.59 0 011.78.84l3.22 1.86zm81.28 92.99v5.53a35 35 0 015-6.37V148.4l-2.12-5.19a3.41 3.41 0 00-2.9-2.1v14.23zM83.75 71.74a3.08 3.08 0 003.16-3v-8.22a3.09 3.09 0 00-3.16-3h-.56a3.26 3.26 0 00-2.14.92 2.86 2.86 0 00-.85 2.06v8.22a3.06 3.06 0 002.54 2.93 3.36 3.36 0 00.63.06zM80.26 88v8.49a3 3 0 001.6 2.51 3.33 3.33 0 011.6-.43h.39a3.26 3.26 0 011.59.42A2.9 2.9 0 0087 96.45l-.06-16a3.09 3.09 0 00-3.16-3h-.38a3 3 0 00-.66.07 3.25 3.25 0 00-1.65.86 2.87 2.87 0 00-.85 2.07V88z" fill="#424343"/>
  <path d="M83.9 120.62a3.28 3.28 0 002.3-.93 2.84 2.84 0 00.86-2.07v-16A3 3 0 0085.44 99a3.26 3.26 0 00-1.59-.42h-.39a3.33 3.33 0 00-1.6.43 2.85 2.85 0 00-.7.51 2.9 2.9 0 00-.86 2.06v16.04a3 3 0 002.44 2.89 3 3 0 00.73.09zm100.69-46.47a2.8 2.8 0 00-2.8 2.8v13.71a2.8 2.8 0 002.8 2.8h1.31a2.75 2.75 0 00.9-.16 2.79 2.79 0 001.9-2.64V76.94a2.86 2.86 0 00-2.8-2.8z" fill="#424343"/>
  <path d="M130.48 58h17.63a1.72 1.72 0 001.73-1.73v-.95a1.73 1.73 0 00-1.73-1.73h-17.63a1.73 1.73 0 00-1.73 1.73v1a1.72 1.72 0 001.73 1.68zm-9.08-2.22a1.26 1.26 0 001.3 1.22 1.27 1.27 0 00.92-.36 1.2 1.2 0 00.38-.86 1.26 1.26 0 00-1.31-1.21 1.27 1.27 0 00-.92.36 1.19 1.19 0 00-.37.85z" fill="#4d4d4d"/>
  <path d="M122.7 57.49A1.79 1.79 0 00124 57a1.65 1.65 0 00.52-1.22 1.74 1.74 0 00-1.8-1.71 1.75 1.75 0 00-1.26.5 1.64 1.64 0 00-.53 1.22 1.75 1.75 0 001.77 1.7zm0-2.93a1.25 1.25 0 011.3 1.21 1.19 1.19 0 01-.37.86 1.27 1.27 0 01-.92.36 1.27 1.27 0 01-1.31-1.21 1.2 1.2 0 01.38-.86 1.27 1.27 0 01.92-.36z" fill="#4d4d4d"/>
  <path d="M135.21 201.29a9.35 9.35 0 00-6.6 2.68 9 9 0 00-2.76 6.52 9.3 9.3 0 009.37 9.19 9.44 9.44 0 006.6-2.68 9.07 9.07 0 00.2-12.83l-.21-.22a9.41 9.41 0 00-6.6-2.66zm3.12 12.13a4.48 4.48 0 01-3.12 1.26 4.29 4.29 0 01-4.37-4.19 4.1 4.1 0 011.25-3 4.4 4.4 0 013.11-1.25 4.44 4.44 0 013.11 1.24 4.07 4.07 0 01.13 5.76l-.12.13z" fill="#424343"/>
  <path d="M188.12 239.64c10.11-7 24-14.73 40-18.34l-1.4-1.92a2.68 2.68 0 01-.46-1.21l-4.42-41.95a2.45 2.45 0 010-.27c0-9.65-.8-20.63-6.71-28.78l-16.2-24a10.4 10.4 0 00-8.63-4.59H152a3.39 3.39 0 00-3.39 3.35 12.42 12.42 0 003 8.77c2.91 3.2 8 4.84 15.08 4.89h.63c.59.05 3.77.25 8.72.55a8.43 8.43 0 017.26 5.2l6.46 15.82a2.51 2.51 0 01-1.25 3.21c-.23.11-24 12.41-11.58 66.07a98.52 98.52 0 0110.91 12.7zM80.53 144.28l10.57 6.1A8.28 8.28 0 0099.38 136l-10.57-6.1a8.28 8.28 0 10-8.28 14.34zm10.72 31a6.8 6.8 0 106.8-11.78l-9.12-5.27a6.8 6.8 0 00-6.8 11.77z" fill="#ceaa91"/>
  <path d="M232.68 225.48c-33.12 6-58.24 31.92-58.49 32.18a2.43 2.43 0 01-.34.3l12.5 21.84c22.84-28.3 34.73-34.5 59.22-34.62z" fill="#cacaca"/>
  <path d="M84.42 194.22l8.58 4.92a6.2 6.2 0 006.37-10.64l-.17-.09-8.53-4.93a6.2 6.2 0 00-6.2 10.74z" fill="#ceaa91"/>
  <path d="M170.39 254.45a1.55 1.55 0 01.19-.24c.16-.17.92-1 2.21-2.17l-12.92-19.32-1.26-.06c-.21 0-18.2-.94-32.17-6.8a41.15 41.15 0 01-8.31-4.55l-2.95 4c.25.18.5.36.76.53 13.3 9.2 35.56 11.31 41.17 11.7L168.77 255a3.18 3.18 0 01.37-.27 2.49 2.49 0 011.25-.28zm11.45-140.91h-29.9a8.41 8.41 0 00-8.39 8.32 19.52 19.52 0 001.28 7.25 15.73 15.73 0 002.66 4.5l.22.27.13.15a19 19 0 009.46 5.37 33.25 33.25 0 005.15.91c1.32.13 2.68.22 4.13.23h.22c.84.07 5.28.34 8.86.56a3.39 3.39 0 012.9 2.09l2.12 5.19 1.19 2.92 2.34 5.74a27.92 27.92 0 00-2.33 1.86c-.39.34-.78.71-1.19 1.12a34.21 34.21 0 00-5 6.37c-3.7 6-7 15.06-7.47 28.44 0 1.61-.08 3.27 0 5a127.58 127.58 0 002.3 20.72c.3 1.6.63 3.23 1 4.9.16.75.32 1.49.49 2.25a2.5 2.5 0 002.44 1.94 2.22 2.22 0 00.57-.07 2.5 2.5 0 001.86-3v-.16c-12.44-53.66 11.35-66 11.57-66.08a2.49 2.49 0 001.26-3.2l-6.46-15.83a8.43 8.43 0 00-7.26-5.2l-8.72-.54h-.63c-7.09 0-12.17-1.69-15.08-4.89a12.41 12.41 0 01-3-8.76 3.38 3.38 0 013.38-3.35h38.38a10.35 10.35 0 018.62 4.58l16.2 24c5.92 8.16 6.72 19.13 6.72 28.79a2.46 2.46 0 000 .26l4.42 41.95a2.43 2.43 0 00.46 1.21l1.4 1.93c1.28-.29 2.56-.56 3.87-.79a2.45 2.45 0 011.41.16h.1a2.5 2.5 0 00-.43-1L231.2 217l-4.34-41.16c0-10.42-.94-22.31-7.62-31.52l-16.15-24a15.4 15.4 0 00-12.77-6.8h-8.48z" fill="#424343"/>
  <path d="M236.18 221.71a2.49 2.49 0 00-2.64-1.06h-.1a2.5 2.5 0 01-.53 4.76h-.23l12.89 19.7.9 1.38a2.5 2.5 0 004.18-2.74zM91.43 153.9l4.46 2.58a13.86 13.86 0 002.79-.44 13.21 13.21 0 006.67-4.22 13.47 13.47 0 001.39-2 13.33 13.33 0 00-4.86-18.14l-7.35-4.24-3.22-1.86a13.13 13.13 0 00-1.78-.84 12.8 12.8 0 00-6.73-.8 13.47 13.47 0 00-1.56.32A13.27 13.27 0 0078 148.61l4.81 2.78 1.69 1a11.76 11.76 0 016.93 1.51zM77.5 133a8.34 8.34 0 017.18-4.15 8.3 8.3 0 014.13 1.11L99.38 136a8.28 8.28 0 01-8.28 14.35l-10.57-6.1a8.28 8.28 0 01-3-11.31z" fill="#424343"/>
  <path d="M85.64 177.82a11.1 11.1 0 017.48 1.33l3.28 1.9a11.57 11.57 0 008.47-5.76c.21-.37.4-.75.58-1.14a11.91 11.91 0 00.83-6.77c-.06-.35-.14-.7-.23-1a11.84 11.84 0 00-5.5-7.17l-.8-.46-3.86-2.23-4.46-2.58a11.76 11.76 0 00-6.89-1.53 11 11 0 00-1.7.28 11.79 11.79 0 00-3.21 21.7l3.25 1.87zm-6-17.1a6.81 6.81 0 019.29-2.49l9.13 5.27a6.8 6.8 0 11-6.8 11.78L82.13 170a6.81 6.81 0 01-2.49-9.29z" fill="#424343"/>
  <path d="M87.92 202l2.53 1.46a11.16 11.16 0 0014.92-3.54c.13-.19.26-.36.38-.55a11.25 11.25 0 00-4.1-15.31l-5.25-3-3.29-1.9a11.14 11.14 0 00-7.47-1.34 11.49 11.49 0 00-2.76.86 11.19 11.19 0 00-1 19.88l1 .57zm-5.77-16.26a6.21 6.21 0 018.47-2.27l8.53 4.93a6.2 6.2 0 11-6 10.83l-.16-.1-8.53-4.92a6.2 6.2 0 01-2.27-8.47zm90.23 72.7a2.49 2.49 0 01-2.49-2.49 2.53 2.53 0 01.5-1.5 2.38 2.38 0 00-1.25.32 2.53 2.53 0 00-.93 3.41l14.28 24.95a2.5 2.5 0 104.34-2.48l-.49-.85-12.5-21.8a2.53 2.53 0 01-1.46.44z" fill="#424343"/>
  <path d="M232 220.52c-1.3.23-2.59.5-3.87.78-16.06 3.6-29.93 11.29-40 18.34A136.31 136.31 0 00172.78 252c-1.28 1.22-2 2-2.2 2.17a2.5 2.5 0 103.61 3.46c.25-.26 25.37-26.18 58.48-32.18l.23-.05a2.5 2.5 0 00.54-4.76 2.44 2.44 0 00-1.44-.12z" fill="#424343"/>
</svg>
